<?xml version="1.0" encoding="UTF-8"?>
<!--Generator: Apple Native CoreSVG 232.5-->
<!DOCTYPE svg
PUBLIC "-//W3C//DTD SVG 1.1//EN"
       "http://www.w3.org/Graphics/SVG/1.1/DTD/svg11.dtd">
<svg version="1.1" xmlns="http://www.w3.org/2000/svg" xmlns:xlink="http://www.w3.org/1999/xlink" width="3300" height="2200">
 <!--glyph: "", point size: 100.0, font version: "19.0d7e1", template writer version: "128"-->
 <style>.monochrome-0 {-sfsymbols-motion-group:0}

.multicolor-0:tintColor {-sfsymbols-motion-group:0}

.hierarchical-0:primary {-sfsymbols-motion-group:0}

.SFSymbolsPreviewWireframe {fill:none;opacity:1.0;stroke:black;stroke-width:0.5}
</style>
 <g id="Notes">
  <rect height="2200" id="artboard" style="fill:white;opacity:1" width="3300" x="0" y="0"/>
  <line style="fill:none;stroke:black;opacity:1;stroke-width:0.5;" x1="263" x2="3036" y1="292" y2="292"/>
  <text style="stroke:none;fill:black;font-family:sans-serif;font-size:13;font-weight:bold;" transform="matrix(1 0 0 1 263 322)">Weight/Scale Variations</text>
  <text style="stroke:none;fill:black;font-family:sans-serif;font-size:13;text-anchor:middle;" transform="matrix(1 0 0 1 559.711 322)">Ultralight</text>
  <text style="stroke:none;fill:black;font-family:sans-serif;font-size:13;text-anchor:middle;" transform="matrix(1 0 0 1 856.422 322)">Thin</text>
  <text style="stroke:none;fill:black;font-family:sans-serif;font-size:13;text-anchor:middle;" transform="matrix(1 0 0 1 1153.13 322)">Light</text>
  <text style="stroke:none;fill:black;font-family:sans-serif;font-size:13;text-anchor:middle;" transform="matrix(1 0 0 1 1449.84 322)">Regular</text>
  <text style="stroke:none;fill:black;font-family:sans-serif;font-size:13;text-anchor:middle;" transform="matrix(1 0 0 1 1746.56 322)">Medium</text>
  <text style="stroke:none;fill:black;font-family:sans-serif;font-size:13;text-anchor:middle;" transform="matrix(1 0 0 1 2043.27 322)">Semibold</text>
  <text style="stroke:none;fill:black;font-family:sans-serif;font-size:13;text-anchor:middle;" transform="matrix(1 0 0 1 2339.98 322)">Bold</text>
  <text style="stroke:none;fill:black;font-family:sans-serif;font-size:13;text-anchor:middle;" transform="matrix(1 0 0 1 2636.69 322)">Heavy</text>
  <text style="stroke:none;fill:black;font-family:sans-serif;font-size:13;text-anchor:middle;" transform="matrix(1 0 0 1 2933.4 322)">Black</text>
  <line style="fill:none;stroke:black;opacity:1;stroke-width:0.5;" x1="263" x2="3036" y1="1903" y2="1903"/>
  <g transform="matrix(0.2 0 0 0.2 263 1933)">
   <path d="m46.2402 4.15039c21.5332 0 39.4531-17.8711 39.4531-39.4043s-17.9688-39.4043-39.502-39.4043c-21.4844 0-39.3555 17.8711-39.3555 39.4043s17.9199 39.4043 39.4043 39.4043Zm0-7.42188c-17.7246 0-31.8848-14.209-31.8848-31.9824s14.1113-31.9824 31.8359-31.9824c17.7734 0 32.0312 14.209 32.0312 31.9824s-14.209 31.9824-31.9824 31.9824Zm-17.9688-31.9824c0 2.14844 1.51367 3.61328 3.75977 3.61328h10.498v10.5957c0 2.19727 1.46484 3.71094 3.61328 3.71094 2.24609 0 3.71094-1.51367 3.71094-3.71094v-10.5957h10.5957c2.19727 0 3.71094-1.46484 3.71094-3.61328 0-2.19727-1.51367-3.71094-3.71094-3.71094h-10.5957v-10.5469c0-2.24609-1.46484-3.75977-3.71094-3.75977-2.14844 0-3.61328 1.51367-3.61328 3.75977v10.5469h-10.498c-2.24609 0-3.75977 1.51367-3.75977 3.71094Z"/>
  </g>
  <g transform="matrix(0.2 0 0 0.2 281.506 1933)">
   <path d="m58.5449 14.5508c27.2461 0 49.8047-22.6074 49.8047-49.8047 0-27.2461-22.6074-49.8047-49.8535-49.8047-27.1973 0-49.7559 22.5586-49.7559 49.8047 0 27.1973 22.6074 49.8047 49.8047 49.8047Zm0-8.30078c-23.0469 0-41.4551-18.457-41.4551-41.5039s18.3594-41.5039 41.4062-41.5039 41.5527 18.457 41.5527 41.5039-18.457 41.5039-41.5039 41.5039Zm-22.6562-41.5039c0 2.39258 1.66016 4.00391 4.15039 4.00391h14.3555v14.4043c0 2.44141 1.66016 4.15039 4.05273 4.15039 2.44141 0 4.15039-1.66016 4.15039-4.15039v-14.4043h14.4043c2.44141 0 4.15039-1.61133 4.15039-4.00391 0-2.44141-1.70898-4.15039-4.15039-4.15039h-14.4043v-14.3555c0-2.49023-1.70898-4.19922-4.15039-4.19922-2.39258 0-4.05273 1.70898-4.05273 4.19922v14.3555h-14.3555c-2.49023 0-4.15039 1.70898-4.15039 4.15039Z"/>
  </g>
  <g transform="matrix(0.2 0 0 0.2 304.924 1933)">
   <path d="m74.8535 28.3203c34.8145 0 63.623-28.8086 63.623-63.5742 0-34.8145-28.8574-63.623-63.6719-63.623-34.7656 0-63.5254 28.8086-63.5254 63.623 0 34.7656 28.8086 63.5742 63.5742 63.5742Zm0-9.08203c-30.1758 0-54.4434-24.3164-54.4434-54.4922 0-30.2246 24.2188-54.4922 54.3945-54.4922 30.2246 0 54.541 24.2676 54.541 54.4922 0 30.1758-24.2676 54.4922-54.4922 54.4922Zm-28.8574-54.4922c0 2.58789 1.85547 4.39453 4.58984 4.39453h19.7266v19.7754c0 2.68555 1.85547 4.58984 4.44336 4.58984 2.68555 0 4.54102-1.85547 4.54102-4.58984v-19.7754h19.7754c2.68555 0 4.58984-1.80664 4.58984-4.39453 0-2.73438-1.85547-4.58984-4.58984-4.58984h-19.7754v-19.7266c0-2.73438-1.85547-4.63867-4.54102-4.63867-2.58789 0-4.44336 1.9043-4.44336 4.63867v19.7266h-19.7266c-2.73438 0-4.58984 1.85547-4.58984 4.58984Z"/>
  </g>
  <text style="stroke:none;fill:black;font-family:sans-serif;font-size:13;font-weight:bold;" transform="matrix(1 0 0 1 263 1953)">Design Variations</text>
  <text style="stroke:none;fill:black;font-family:sans-serif;font-size:13;" transform="matrix(1 0 0 1 263 1971)">Symbols are supported in up to nine weights and three scales.</text>
  <text style="stroke:none;fill:black;font-family:sans-serif;font-size:13;" transform="matrix(1 0 0 1 263 1989)">For optimal layout with text and other symbols, vertically align</text>
  <text style="stroke:none;fill:black;font-family:sans-serif;font-size:13;" transform="matrix(1 0 0 1 263 2007)">symbols with the adjacent text.</text>
  <line style="fill:none;stroke:#00AEEF;stroke-width:0.5;opacity:1.0;" x1="776" x2="776" y1="1919" y2="1933"/>
  <g transform="matrix(0.2 0 0 0.2 776 1933)">
   <path d="m16.5527 0.78125c2.58789 0 3.85742-0.976562 4.78516-3.71094l6.29883-17.2363h28.8086l6.29883 17.2363c0.927734 2.73438 2.19727 3.71094 4.73633 3.71094 2.58789 0 4.24805-1.5625 4.24805-4.00391 0-0.830078-0.146484-1.61133-0.537109-2.63672l-22.9004-60.9863c-1.12305-2.97852-3.125-4.49219-6.25-4.49219-3.02734 0-5.07812 1.46484-6.15234 4.44336l-22.9004 61.084c-0.390625 1.02539-0.537109 1.80664-0.537109 2.63672 0 2.44141 1.5625 3.95508 4.10156 3.95508Zm13.4766-28.3691 11.8652-32.8613h0.244141l11.8652 32.8613Z"/>
  </g>
  <line style="fill:none;stroke:#00AEEF;stroke-width:0.5;opacity:1.0;" x1="792.836" x2="792.836" y1="1919" y2="1933"/>
  <text style="stroke:none;fill:black;font-family:sans-serif;font-size:13;font-weight:bold;" transform="matrix(1 0 0 1 776 1953)">Margins</text>
  <text style="stroke:none;fill:black;font-family:sans-serif;font-size:13;" transform="matrix(1 0 0 1 776 1971)">Leading and trailing margins on the left and right side of each symbol</text>
  <text style="stroke:none;fill:black;font-family:sans-serif;font-size:13;" transform="matrix(1 0 0 1 776 1989)">can be adjusted by modifying the x-location of the margin guidelines.</text>
  <text style="stroke:none;fill:black;font-family:sans-serif;font-size:13;" transform="matrix(1 0 0 1 776 2007)">Modifications are automatically applied proportionally to all</text>
  <text style="stroke:none;fill:black;font-family:sans-serif;font-size:13;" transform="matrix(1 0 0 1 776 2025)">scales and weights.</text>
  <g transform="matrix(0.2 0 0 0.2 1289 1933)">
   <path d="m14.209 9.32617 8.49609 8.54492c4.29688 4.3457 9.22852 4.05273 13.8672-1.07422l53.4668-58.9355-4.83398-4.88281-53.0762 58.3984c-1.75781 2.00195-3.41797 2.49023-5.76172 0.146484l-5.85938-5.81055c-2.34375-2.29492-1.80664-4.00391 0.195312-5.81055l57.373-54.0039-4.88281-4.83398-57.959 54.4434c-4.93164 4.58984-5.32227 9.47266-1.02539 13.8184Zm32.0801-90.9668c-2.09961 2.05078-2.24609 4.93164-1.07422 6.88477 1.17188 1.80664 3.4668 2.97852 6.68945 2.14844 7.32422-1.70898 14.9414-2.00195 22.0703 2.68555l-2.92969 7.27539c-1.70898 4.15039-0.830078 7.08008 1.85547 9.81445l11.4746 11.5723c2.44141 2.44141 4.49219 2.53906 7.32422 2.05078l5.32227-0.976562 3.32031 3.36914-0.195312 2.7832c-0.195312 2.49023 0.439453 4.39453 2.88086 6.78711l3.80859 3.71094c2.39258 2.39258 5.46875 2.53906 7.8125 0.195312l14.5508-14.5996c2.34375-2.34375 2.24609-5.32227-0.146484-7.71484l-3.85742-3.80859c-2.39258-2.39258-4.24805-3.17383-6.64062-2.97852l-2.88086 0.244141-3.22266-3.17383 1.2207-5.61523c0.634766-2.83203-0.146484-5.0293-3.07617-7.95898l-10.9863-10.9375c-16.6992-16.6016-38.8672-16.2109-53.3203-1.75781Zm7.4707 1.85547c12.1582-8.88672 28.6133-7.37305 39.7461 3.75977l12.1582 12.0605c1.17188 1.17188 1.36719 2.09961 1.02539 3.80859l-1.61133 7.42188 7.51953 7.42188 4.93164-0.292969c1.26953-0.0488281 1.66016 0.0488281 2.63672 1.02539l2.88086 2.88086-12.207 12.207-2.88086-2.88086c-0.976562-0.976562-1.12305-1.36719-1.07422-2.68555l0.341797-4.88281-7.4707-7.42188-7.61719 1.26953c-1.61133 0.341797-2.34375 0.195312-3.56445-0.976562l-10.0098-10.0098c-1.26953-1.17188-1.41602-2.00195-0.634766-3.85742l4.39453-10.4492c-7.8125-7.27539-17.9688-10.4004-28.125-7.42188-0.78125 0.195312-1.07422-0.439453-0.439453-0.976562Z"/>
  </g>
  <text style="stroke:none;fill:black;font-family:sans-serif;font-size:13;font-weight:bold;" transform="matrix(1 0 0 1 1289 1953)">Exporting</text>
  <text style="stroke:none;fill:black;font-family:sans-serif;font-size:13;" transform="matrix(1 0 0 1 1289 1971)">Symbols should be outlined when exporting to ensure the</text>
  <text style="stroke:none;fill:black;font-family:sans-serif;font-size:13;" transform="matrix(1 0 0 1 1289 1989)">design is preserved when submitting to Xcode.</text>
  <text id="template-version" style="stroke:none;fill:black;font-family:sans-serif;font-size:13;text-anchor:end;" transform="matrix(1 0 0 1 3036 1933)">Template v.5.0</text>
  <text style="stroke:none;fill:black;font-family:sans-serif;font-size:13;text-anchor:end;" transform="matrix(1 0 0 1 3036 1951)">Requires Xcode 15 or greater</text>
  <text id="descriptive-name" style="stroke:none;fill:black;font-family:sans-serif;font-size:13;text-anchor:end;" transform="matrix(1 0 0 1 3036 1969)">Generated from note</text>
  <text style="stroke:none;fill:black;font-family:sans-serif;font-size:13;text-anchor:end;" transform="matrix(1 0 0 1 3036 1987)">Typeset at 100.0 points</text>
  <text style="stroke:none;fill:black;font-family:sans-serif;font-size:13;" transform="matrix(1 0 0 1 263 726)">Small</text>
  <text style="stroke:none;fill:black;font-family:sans-serif;font-size:13;" transform="matrix(1 0 0 1 263 1156)">Medium</text>
  <text style="stroke:none;fill:black;font-family:sans-serif;font-size:13;" transform="matrix(1 0 0 1 263 1586)">Large</text>
 </g>
 <g id="Guides">
  <g id="H-reference" style="fill:#27AAE1;stroke:none;" transform="matrix(1 0 0 1 339 696)">
   <path d="M0.993654 0L3.63775 0L29.3281-67.1323L30.0303-67.1323L30.0303-70.459L28.1226-70.459ZM11.6885-24.4799L46.9815-24.4799L46.2315-26.7285L12.4385-26.7285ZM55.1196 0L57.7637 0L30.6382-70.459L29.4326-70.459L29.4326-67.1323Z"/>
  </g>
  <line id="Baseline-S" style="fill:none;stroke:#27AAE1;opacity:1;stroke-width:0.5;" x1="263" x2="3036" y1="696" y2="696"/>
  <line id="Capline-S" style="fill:none;stroke:#27AAE1;opacity:1;stroke-width:0.5;" x1="263" x2="3036" y1="625.541" y2="625.541"/>
  <g id="H-reference" style="fill:#27AAE1;stroke:none;" transform="matrix(1 0 0 1 339 1126)">
   <path d="M0.993654 0L3.63775 0L29.3281-67.1323L30.0303-67.1323L30.0303-70.459L28.1226-70.459ZM11.6885-24.4799L46.9815-24.4799L46.2315-26.7285L12.4385-26.7285ZM55.1196 0L57.7637 0L30.6382-70.459L29.4326-70.459L29.4326-67.1323Z"/>
  </g>
  <line id="Baseline-M" style="fill:none;stroke:#27AAE1;opacity:1;stroke-width:0.5;" x1="263" x2="3036" y1="1126" y2="1126"/>
  <line id="Capline-M" style="fill:none;stroke:#27AAE1;opacity:1;stroke-width:0.5;" x1="263" x2="3036" y1="1055.54" y2="1055.54"/>
  <g id="H-reference" style="fill:#27AAE1;stroke:none;" transform="matrix(1 0 0 1 339 1556)">
   <path d="M0.993654 0L3.63775 0L29.3281-67.1323L30.0303-67.1323L30.0303-70.459L28.1226-70.459ZM11.6885-24.4799L46.9815-24.4799L46.2315-26.7285L12.4385-26.7285ZM55.1196 0L57.7637 0L30.6382-70.459L29.4326-70.459L29.4326-67.1323Z"/>
  </g>
  <line id="Baseline-L" style="fill:none;stroke:#27AAE1;opacity:1;stroke-width:0.5;" x1="263" x2="3036" y1="1556" y2="1556"/>
  <line id="Capline-L" style="fill:none;stroke:#27AAE1;opacity:1;stroke-width:0.5;" x1="263" x2="3036" y1="1485.54" y2="1485.54"/>
  <line id="left-margin-Regular-M" style="fill:none;stroke:#00AEEF;stroke-width:0.5;opacity:1.0;" x1="1392.39" x2="1392.39" y1="1030.79" y2="1150.12"/>
  <line id="right-margin-Regular-M" style="fill:none;stroke:#00AEEF;stroke-width:0.5;opacity:1.0;" x1="1507.3" x2="1507.3" y1="1030.79" y2="1150.12"/>
 </g>
 <g id="Symbols">
  <g id="Bold-L" transform="matrix(1 0 0 1 2265.36 1556)">
   <path class="monochrome-0 multicolor-0:tintColor hierarchical-0:primary SFSymbolsPreviewWireframe" d="M27.6082 11.694L89.2062 11.694L89.2062-12.977Q89.2062-16.162 91.4032-18.359Q93.6002-20.556 96.7852-20.556L121.456-20.556L121.456-82.154Q121.456-82.154 121.456-82.154Q121.456-82.154 121.456-82.154L27.6082-82.154Q27.6082-82.154 27.6082-82.154Q27.6082-82.154 27.6082-82.154L27.6082 11.694Q27.6082 11.694 27.6082 11.694Q27.6082 11.694 27.6082 11.694ZM27.6082 26.851Q21.3562 26.851 16.9032 22.399Q12.4512 17.946 12.4512 11.694L12.4512-82.154Q12.4512-88.473 16.9032-92.973Q21.3562-97.472 27.6082-97.472L121.456-97.472Q127.775-97.472 132.275-92.973Q136.775-88.473 136.775-82.154L136.775-21.685Q136.775-18.532 135.484-15.674Q134.194-12.816 132.098-10.72L99.0422 22.336Q96.9082 24.447 94.1152 25.649Q91.3212 26.851 88.2382 26.851L27.6082 26.851ZM67.5982-24.104L52.6022-24.104Q50.2032-24.104 48.5812-25.776Q46.9582-27.448 46.9582-29.92Q46.9582-32.323 48.6272-33.938Q50.2962-35.552 52.7632-35.552L67.5982-35.552Q69.9972-35.552 71.6202-33.926Q73.2422-32.299 73.2422-29.895Q73.2422-27.49 71.6202-25.797Q69.9972-24.104 67.5982-24.104ZM96.4622-51.677L52.6022-51.677Q50.2032-51.677 48.5812-53.35Q46.9582-55.022 46.9582-57.494Q46.9582-59.897 48.6272-61.592Q50.2962-63.287 52.7632-63.287L96.4622-63.287Q98.8612-63.287 100.483-61.563Q102.106-59.839 102.106-57.434Q102.106-55.03 100.483-53.354Q98.8612-51.677 96.4622-51.677Z"/>
  </g>
  <g id="Semibold-L" transform="matrix(1 0 0 1 1970.44 1556)">
   <path class="monochrome-0 multicolor-0:tintColor hierarchical-0:primary SFSymbolsPreviewWireframe" d="M25.2252 12.325L88.0852 12.325L88.0852-13.538Q88.0852-16.232 89.9312-18.079Q91.7782-19.925 94.4722-19.925L120.335-19.925L120.335-82.785Q120.335-82.785 120.335-82.785Q120.335-82.785 120.335-82.785L25.2252-82.785Q25.2252-82.785 25.2252-82.785Q25.2252-82.785 25.2252-82.785L25.2252 12.325Q25.2252 12.325 25.2252 12.325Q25.2252 12.325 25.2252 12.325ZM25.2252 25.099Q19.9562 25.099 16.2042 21.346Q12.4512 17.594 12.4512 12.325L12.4512-82.785Q12.4512-88.091 16.2042-91.871Q19.9562-95.65 25.2252-95.65L120.335-95.65Q125.641-95.65 129.421-91.871Q133.2-88.091 133.2-82.785L133.2-20.914Q133.2-18.259 132.12-15.853Q131.04-13.447 129.295-11.702L96.3082 21.285Q94.5422 23.038 92.1722 24.069Q89.8022 25.099 87.1872 25.099L25.2252 25.099ZM66.0572-24.735L49.8682-24.735Q47.6192-24.735 46.0972-26.288Q44.5752-27.842 44.5752-30.138Q44.5752-32.395 46.1232-33.904Q47.6712-35.412 49.9602-35.412L66.0572-35.412Q68.3062-35.412 69.8282-33.885Q71.3502-32.357 71.3502-30.099Q71.3502-27.841 69.8282-26.288Q68.3062-24.735 66.0572-24.735ZM95.6922-51.537L49.8682-51.537Q47.6192-51.537 46.0972-53.091Q44.5752-54.644 44.5752-56.94Q44.5752-59.198 46.1232-60.752Q47.6712-62.306 49.9602-62.306L95.6922-62.306Q97.9412-62.306 99.4632-60.723Q100.985-59.14 100.985-56.882Q100.985-54.624 99.4632-53.081Q97.9412-51.537 95.6922-51.537Z"/>
  </g>
  <g id="Medium-L" transform="matrix(1 0 0 1 1675.07 1556)">
   <path class="monochrome-0 multicolor-0:tintColor hierarchical-0:primary SFSymbolsPreviewWireframe" d="M23.4372 12.798L87.2432 12.798L87.2432-13.959Q87.2432-16.285 88.8262-17.869Q90.4102-19.452 92.7362-19.452L119.493-19.452L119.493-83.258Q119.493-83.258 119.493-83.258Q119.493-83.258 119.493-83.258L23.4372-83.258Q23.4372-83.258 23.4372-83.258Q23.4372-83.258 23.4372-83.258L23.4372 12.798Q23.4372 12.798 23.4372 12.798Q23.4372 12.798 23.4372 12.798ZM23.4372 23.784Q18.9052 23.784 15.6782 20.557Q12.4512 17.33 12.4512 12.798L12.4512-83.258Q12.4512-87.806 15.6782-91.044Q18.9052-94.283 23.4372-94.283L119.493-94.283Q124.041-94.283 127.279-91.044Q130.518-87.806 130.518-83.258L130.518-20.335Q130.518-18.055 129.596-15.988Q128.674-13.92 127.191-12.438L94.2572 20.496Q92.7662 21.982 90.7142 22.883Q88.6622 23.784 86.3982 23.784L23.4372 23.784ZM64.8992-25.208L47.8172-25.208Q45.6802-25.208 44.2332-26.672Q42.7872-28.136 42.7872-30.301Q42.7872-32.449 44.2442-33.878Q45.7022-35.307 47.8562-35.307L64.8992-35.307Q67.0372-35.307 68.4832-33.854Q69.9302-32.4 69.9302-30.252Q69.9302-28.103 68.4832-26.656Q67.0372-25.208 64.8992-25.208ZM95.1132-51.432L47.8172-51.432Q45.6802-51.432 44.2332-52.896Q42.7872-54.361 42.7872-56.525Q42.7872-58.673 44.2442-60.122Q45.7022-61.57 47.8562-61.57L95.1132-61.57Q97.2502-61.57 98.6972-60.093Q100.143-58.616 100.143-56.468Q100.143-54.319 98.6972-52.876Q97.2502-51.432 95.1132-51.432Z"/>
  </g>
  <g id="Regular-L" transform="matrix(1 0 0 1 1379.34 1556)">
   <path class="monochrome-0 multicolor-0:tintColor hierarchical-0:primary SFSymbolsPreviewWireframe" d="M22.1262 13.145L86.6262 13.145L86.6262-14.267Q86.6262-16.323 88.0172-17.714Q89.4082-19.105 91.4632-19.105L118.876-19.105L118.876-83.605Q118.876-83.605 118.876-83.605Q118.876-83.605 118.876-83.605L22.1262-83.605Q22.1262-83.605 22.1262-83.605Q22.1262-83.605 22.1262-83.605L22.1262 13.145Q22.1262 13.145 22.1262 13.145Q22.1262 13.145 22.1262 13.145ZM22.1262 22.82Q18.1352 22.82 15.2932 19.978Q12.4512 17.136 12.4512 13.145L12.4512-83.605Q12.4512-87.596 15.2932-90.438Q18.1352-93.28 22.1262-93.28L118.876-93.28Q122.867-93.28 125.709-90.438Q128.551-87.596 128.551-83.605L128.551-19.911Q128.551-17.905 127.745-16.086Q126.939-14.267 125.649-12.977L92.7542 19.918Q91.4632 21.208 89.6452 22.014Q87.8262 22.82 85.8202 22.82L22.1262 22.82ZM64.0512-25.555L46.3132-25.555Q44.2582-25.555 42.8672-26.954Q41.4762-28.353 41.4762-30.421Q41.4762-32.489 42.8672-33.859Q44.2582-35.23 46.3132-35.23L64.0512-35.23Q66.1072-35.23 67.4982-33.831Q68.8892-32.432 68.8892-30.364Q68.8892-28.296 67.4982-26.926Q66.1072-25.555 64.0512-25.555ZM94.6892-51.355L46.3132-51.355Q44.2582-51.355 42.8672-52.754Q41.4762-54.153 41.4762-56.221Q41.4762-58.289 42.8672-59.659Q44.2582-61.03 46.3132-61.03L94.6892-61.03Q96.7442-61.03 98.1352-59.631Q99.5262-58.232 99.5262-56.164Q99.5262-54.096 98.1352-52.726Q96.7442-51.355 94.6892-51.355Z"/>
  </g>
  <g id="Light-L" transform="matrix(1 0 0 1 1085.86 1556)">
   <path class="monochrome-0 multicolor-0:tintColor hierarchical-0:primary SFSymbolsPreviewWireframe" d="M21.7542 12.277L82.5332 12.277L82.5332-15.322Q82.5332-17.299 83.8702-18.636Q85.2072-19.973 87.1842-19.973L114.783-19.973L114.783-80.752Q114.783-81.62 114.224-82.178Q113.666-82.737 112.798-82.737L21.7542-82.737Q20.8862-82.737 20.3282-82.178Q19.7692-81.62 19.7692-80.752L19.7692 10.292Q19.7692 11.16 20.3282 11.718Q20.8862 12.277 21.7542 12.277ZM21.7542 19.595Q17.9652 19.595 15.2082 16.838Q12.4512 14.081 12.4512 10.292L12.4512-80.752Q12.4512-84.541 15.2082-87.298Q17.9652-90.055 21.7542-90.055L112.798-90.055Q116.587-90.055 119.344-87.298Q122.101-84.541 122.101-80.752L122.101-22.082Q122.101-20.11 121.326-18.367Q120.55-16.624 119.322-15.396L87.1722 16.754Q85.8822 18.044 84.1392 18.82Q82.3962 19.595 80.4242 19.595L21.7542 19.595ZM62.4392-26.423L43.8952-26.423Q42.3402-26.423 41.2882-27.484Q40.2362-28.545 40.2362-30.114Q40.2362-31.682 41.2882-32.712Q42.3402-33.742 43.8952-33.742L62.4392-33.742Q63.9942-33.742 65.0462-32.68Q66.0982-31.619 66.0982-30.051Q66.0982-28.482 65.0462-27.453Q63.9942-26.423 62.4392-26.423ZM90.6572-52.099L43.8952-52.099Q42.3402-52.099 41.2882-53.16Q40.2362-54.221 40.2362-55.79Q40.2362-57.358 41.2882-58.388Q42.3402-59.417 43.8952-59.417L90.6572-59.417Q92.2122-59.417 93.2642-58.356Q94.3162-57.295 94.3162-55.727Q94.3162-54.158 93.2642-53.129Q92.2122-52.099 90.6572-52.099Z"/>
  </g>
  <g id="Thin-L" transform="matrix(1 0 0 1 792.371 1556)">
   <path class="monochrome-0 multicolor-0:tintColor hierarchical-0:primary SFSymbolsPreviewWireframe" d="M21.3822 11.408L78.4392 11.408L78.4392-16.376Q78.4392-18.274 79.7232-19.558Q81.0072-20.842 82.9052-20.842L110.689-20.842L110.689-77.899Q110.689-79.636 109.573-80.752Q108.457-81.868 106.72-81.868L21.3822-81.868Q19.6452-81.868 18.5292-80.752Q17.4132-79.636 17.4132-77.899L17.4132 7.439Q17.4132 9.176 18.5292 10.292Q19.6452 11.408 21.3822 11.408ZM21.3822 16.37Q17.7942 16.37 15.1222 13.699Q12.4512 11.027 12.4512 7.439L12.4512-77.899Q12.4512-81.487 15.1222-84.159Q17.7942-86.83 21.3822-86.83L106.72-86.83Q110.308-86.83 112.98-84.159Q115.651-81.487 115.651-77.899L115.651-24.253Q115.651-22.315 114.907-20.648Q114.163-18.981 112.997-17.815L81.5902 13.592Q80.3002 14.882 78.6332 15.626Q76.9662 16.37 75.0282 16.37L21.3822 16.37ZM60.8262-27.292L41.4762-27.292Q40.4222-27.292 39.7082-28.015Q38.9952-28.738 38.9952-29.807Q38.9952-30.876 39.7082-31.565Q40.4222-32.253 41.4762-32.253L60.8262-32.253Q61.8802-32.253 62.5932-31.53Q63.3072-30.807 63.3072-29.738Q63.3072-28.668 62.5932-27.98Q61.8802-27.292 60.8262-27.292ZM86.6262-52.843L41.4762-52.843Q40.4222-52.843 39.7082-53.567Q38.9952-54.29 38.9952-55.359Q38.9952-56.428 39.7082-57.117Q40.4222-57.805 41.4762-57.805L86.6262-57.805Q87.6802-57.805 88.3942-57.082Q89.1072-56.359 89.1072-55.289Q89.1072-54.22 88.3942-53.532Q87.6802-52.843 86.6262-52.843Z"/>
  </g>
  <g id="Ultralight-L" transform="matrix(1 0 0 1 497.595 1556)">
   <path class="monochrome-0 multicolor-0:tintColor hierarchical-0:primary SFSymbolsPreviewWireframe" d="M21.1592 10.888L75.9832 10.888L75.9832-17.009Q75.9832-18.859 77.2352-20.111Q78.4872-21.362 80.3372-21.362L108.233-21.362L108.233-76.187Q108.233-78.445 106.782-79.896Q105.331-81.347 103.074-81.347L21.1592-81.347Q18.9012-81.347 17.4502-79.896Q15.9992-78.445 15.9992-76.187L15.9992 5.728Q15.9992 7.985 17.4502 9.436Q18.9012 10.888 21.1592 10.888ZM21.1592 14.435Q17.6922 14.435 15.0712 11.815Q12.4512 9.194 12.4512 5.728L12.4512-76.187Q12.4512-79.654 15.0712-82.275Q17.6922-84.895 21.1592-84.895L103.074-84.895Q106.54-84.895 109.161-82.275Q111.781-79.654 111.781-76.187L111.781-25.555Q111.781-23.638 111.055-22.017Q110.33-20.395 109.201-19.266L78.2412 11.694Q76.9512 12.984 75.3292 13.709Q73.7082 14.435 71.7912 14.435L21.1592 14.435ZM59.8582-27.812L40.0252-27.812Q39.2712-27.812 38.7612-28.333Q38.2512-28.854 38.2512-29.623Q38.2512-30.392 38.7612-30.876Q39.2712-31.36 40.0252-31.36L59.8582-31.36Q60.6122-31.36 61.1222-30.839Q61.6322-30.319 61.6322-29.549Q61.6322-28.78 61.1222-28.296Q60.6122-27.812 59.8582-27.812ZM84.2072-53.29L40.0252-53.29Q39.2712-53.29 38.7612-53.811Q38.2512-54.331 38.2512-55.101Q38.2512-55.87 38.7612-56.354Q39.2712-56.837 40.0252-56.837L84.2072-56.837Q84.9612-56.837 85.4712-56.317Q85.9812-55.796 85.9812-55.027Q85.9812-54.257 85.4712-53.774Q84.9612-53.29 84.2072-53.29Z"/>
  </g>
  <g id="Bold-M" transform="matrix(1 0 0 1 2278.28 1126)">
   <path class="monochrome-0 multicolor-0:tintColor hierarchical-0:primary SFSymbolsPreviewWireframe" d="M28.2012-1.73L70.2012-1.73L70.2012-18.855Q70.2012-22.105 72.5132-24.417Q74.8262-26.73 78.0762-26.73L95.2012-26.73L95.2012-68.73Q95.2012-68.73 95.2012-68.73Q95.2012-68.73 95.2012-68.73L28.2012-68.73Q28.2012-68.73 28.2012-68.73Q28.2012-68.73 28.2012-68.73L28.2012-1.73Q28.2012-1.73 28.2012-1.73Q28.2012-1.73 28.2012-1.73ZM28.2012 14.02Q21.7042 14.02 17.0782 9.394Q12.4512 4.767 12.4512-1.73L12.4512-68.73Q12.4512-75.227 17.0782-79.853Q21.7042-84.48 28.2012-84.48L95.2012-84.48Q101.698-84.48 106.324-79.853Q110.951-75.227 110.951-68.73L110.951-26.105Q110.951-22.949 109.763-20.09Q108.576-17.23 106.326-14.98L81.9512 9.395Q79.7012 11.645 76.8412 12.833Q73.9822 14.02 70.8262 14.02L28.2012 14.02ZM56.2012-23.73L44.0762-23.73Q41.5792-23.73 39.8902-25.455Q38.2012-27.18 38.2012-29.73Q38.2012-32.227 39.9262-33.916Q41.6512-35.605 44.2012-35.605L56.2012-35.605Q58.6982-35.605 60.3872-33.915Q62.0762-32.226 62.0762-29.728Q62.0762-27.23 60.3872-25.48Q58.6982-23.73 56.2012-23.73ZM79.3262-45.605L44.0762-45.605Q41.5792-45.605 39.8902-47.33Q38.2012-49.055 38.2012-51.605Q38.2012-54.102 39.9262-55.791Q41.6512-57.48 44.2012-57.48L79.3262-57.48Q81.8232-57.48 83.5122-55.79Q85.2012-54.101 85.2012-51.603Q85.2012-49.105 83.5122-47.355Q81.8232-45.605 79.3262-45.605Z"/>
  </g>
  <g id="Semibold-M" transform="matrix(1 0 0 1 1983.41 1126)">
   <path class="monochrome-0 multicolor-0:tintColor hierarchical-0:primary SFSymbolsPreviewWireframe" d="M25.7012-1.078L69.0052-1.078L69.0052-19.453Q69.0052-22.214 70.9372-24.146Q72.8692-26.078 75.6302-26.078L94.0052-26.078L94.0052-69.382Q94.0052-69.382 94.0052-69.382Q94.0052-69.382 94.0052-69.382L25.7012-69.382Q25.7012-69.382 25.7012-69.382Q25.7012-69.382 25.7012-69.382L25.7012-1.078Q25.7012-1.078 25.7012-1.078Q25.7012-1.078 25.7012-1.078ZM25.7012 12.172Q20.2352 12.172 16.3432 8.28Q12.4512 4.388 12.4512-1.078L12.4512-69.382Q12.4512-74.848 16.3432-78.74Q20.2352-82.632 25.7012-82.632L94.0052-82.632Q99.4712-82.632 103.363-78.74Q107.255-74.848 107.255-69.382L107.255-25.344Q107.255-22.691 106.258-20.287Q105.261-17.882 103.391-16.012L79.0712 8.308Q77.2012 10.178 74.7962 11.175Q72.3922 12.172 69.7392 12.172L25.7012 12.172ZM54.5702-24.382L41.1962-24.382Q38.8602-24.382 37.2812-25.982Q35.7012-27.582 35.7012-29.947Q35.7012-32.283 37.3012-33.862Q38.9012-35.442 41.2662-35.442L54.5702-35.442Q56.9062-35.442 58.4852-33.862Q60.0652-32.282 60.0652-29.946Q60.0652-27.61 58.4852-25.996Q56.9062-24.382 54.5702-24.382ZM78.5102-45.442L41.1962-45.442Q38.8602-45.442 37.2812-47.042Q35.7012-48.642 35.7012-51.007Q35.7012-53.342 37.3012-54.922Q38.9012-56.502 41.2662-56.502L78.5102-56.502Q80.8462-56.502 82.4252-54.922Q84.0052-53.342 84.0052-51.006Q84.0052-48.67 82.4252-47.056Q80.8462-45.442 78.5102-45.442Z"/>
  </g>
  <g id="Medium-M" transform="matrix(1 0 0 1 1688.09 1126)">
   <path class="monochrome-0 multicolor-0:tintColor hierarchical-0:primary SFSymbolsPreviewWireframe" d="M23.8262-0.589L68.1082-0.589L68.1082-19.901Q68.1082-22.295 69.7552-23.942Q71.4022-25.589 73.7962-25.589L93.1082-25.589L93.1082-69.871Q93.1082-69.871 93.1082-69.871Q93.1082-69.871 93.1082-69.871L23.8262-69.871Q23.8262-69.871 23.8262-69.871Q23.8262-69.871 23.8262-69.871L23.8262-0.589Q23.8262-0.589 23.8262-0.589Q23.8262-0.589 23.8262-0.589ZM23.8262 10.786Q19.1332 10.786 15.7922 7.445Q12.4512 4.104 12.4512-0.589L12.4512-69.871Q12.4512-74.563 15.7922-77.905Q19.1332-81.246 23.8262-81.246L93.1082-81.246Q97.8012-81.246 101.142-77.905Q104.483-74.563 104.483-69.871L104.483-24.773Q104.483-22.497 103.629-20.434Q102.774-18.371 101.19-16.787L76.9102 7.493Q75.3262 9.077 73.2632 9.932Q71.2002 10.786 68.9242 10.786L23.8262 10.786ZM53.3472-24.871L39.0352-24.871Q36.8212-24.871 35.3232-26.377Q33.8262-27.884 33.8262-30.11Q33.8262-32.324 35.3322-33.822Q36.8382-35.32 39.0652-35.32L53.3472-35.32Q55.5612-35.32 57.0592-33.822Q58.5572-32.324 58.5572-30.11Q58.5572-27.896 57.0592-26.383Q55.5612-24.871 53.3472-24.871ZM77.8992-45.32L39.0352-45.32Q36.8212-45.32 35.3232-46.826Q33.8262-48.332 33.8262-50.559Q33.8262-52.773 35.3322-54.27Q36.8382-55.768 39.0652-55.768L77.8992-55.768Q80.1132-55.768 81.6112-54.27Q83.1082-52.772 83.1082-50.558Q83.1082-48.344 81.6112-46.832Q80.1132-45.32 77.8992-45.32Z"/>
  </g>
  <g id="Regular-M" transform="matrix(1 0 0 1 1392.39 1126)">
   <path class="monochrome-0 multicolor-0:tintColor hierarchical-0:primary SFSymbolsPreviewWireframe" d="M22.4512-0.23L67.4512-0.23L67.4512-20.23Q67.4512-22.355 68.8892-23.792Q70.3262-25.23 72.4512-25.23L92.4512-25.23L92.4512-70.23Q92.4512-70.23 92.4512-70.23Q92.4512-70.23 92.4512-70.23L22.4512-70.23Q22.4512-70.23 22.4512-70.23Q22.4512-70.23 22.4512-70.23L22.4512-0.23Q22.4512-0.23 22.4512-0.23Q22.4512-0.23 22.4512-0.23ZM22.4512 9.77Q18.3262 9.77 15.3892 6.833Q12.4512 3.895 12.4512-0.23L12.4512-70.23Q12.4512-74.355 15.3892-77.292Q18.3262-80.23 22.4512-80.23L92.4512-80.23Q96.5762-80.23 99.5132-77.292Q102.451-74.355 102.451-70.23L102.451-24.355Q102.451-22.355 101.701-20.542Q100.951-18.73 99.5762-17.355L75.3262 6.895Q73.9512 8.27 72.1392 9.02Q70.3262 9.77 68.3262 9.77L22.4512 9.77ZM52.4512-25.23L37.4512-25.23Q35.3262-25.23 33.8892-26.667Q32.4512-28.105 32.4512-30.23Q32.4512-32.355 33.8892-33.792Q35.3262-35.23 37.4512-35.23L52.4512-35.23Q54.5762-35.23 56.0132-33.792Q57.4512-32.355 57.4512-30.23Q57.4512-28.105 56.0132-26.667Q54.5762-25.23 52.4512-25.23ZM77.4512-45.23L37.4512-45.23Q35.3262-45.23 33.8892-46.667Q32.4512-48.105 32.4512-50.23Q32.4512-52.355 33.8892-53.792Q35.3262-55.23 37.4512-55.23L77.4512-55.23Q79.5762-55.23 81.0132-53.792Q82.4512-52.355 82.4512-50.23Q82.4512-48.105 81.0132-46.667Q79.5762-45.23 77.4512-45.23Z"/>
  </g>
  <g id="Light-M" transform="matrix(1 0 0 1 1098.18 1126)">
   <path class="monochrome-0 multicolor-0:tintColor hierarchical-0:primary SFSymbolsPreviewWireframe" d="M21.4902-0.23L64.9512-0.23L64.9512-20.711Q64.9512-22.631 66.2502-23.931Q67.5502-25.23 69.4702-25.23L89.9512-25.23L89.9512-68.691Q89.9512-69.364 89.5182-69.797Q89.0862-70.23 88.4122-70.23L21.4902-70.23Q20.8172-70.23 20.3842-69.797Q19.9512-69.364 19.9512-68.691L19.9512-1.769Q19.9512-1.095 20.3842-0.663Q20.8172-0.23 21.4902-0.23ZM21.4902 7.27Q17.7612 7.27 15.1062 4.615Q12.4512 1.96 12.4512-1.769L12.4512-68.691Q12.4512-72.42 15.1062-75.075Q17.7612-77.73 21.4902-77.73L88.4122-77.73Q92.1412-77.73 94.7962-75.075Q97.4512-72.42 97.4512-68.691L97.4512-25.749Q97.4512-23.92 96.7492-22.263Q96.0472-20.605 94.8162-19.374L70.8072 4.635Q69.5762 5.866 67.9182 6.568Q66.2612 7.27 64.4322 7.27L21.4902 7.27ZM51.2012-26.576L35.9132-26.576Q34.3192-26.576 33.2412-27.655Q32.1632-28.733 32.1632-30.328Q32.1632-31.922 33.2412-32.999Q34.3192-34.076 35.9132-34.076L51.2012-34.076Q52.7952-34.076 53.8732-32.997Q54.9512-31.919 54.9512-30.324Q54.9512-28.73 53.8732-27.653Q52.7952-26.576 51.2012-26.576ZM73.9892-46.48L35.9132-46.48Q34.3192-46.48 33.2412-47.559Q32.1632-48.637 32.1632-50.232Q32.1632-51.826 33.2412-52.903Q34.3192-53.98 35.9132-53.98L73.9892-53.98Q75.5832-53.98 76.6612-52.901Q77.7392-51.823 77.7392-50.228Q77.7392-48.634 76.6612-47.557Q75.5832-46.48 73.9892-46.48Z"/>
  </g>
  <g id="Thin-M" transform="matrix(1 0 0 1 803.971 1126)">
   <path class="monochrome-0 multicolor-0:tintColor hierarchical-0:primary SFSymbolsPreviewWireframe" d="M20.5282-0.23L62.4512-0.23L62.4512-21.191Q62.4512-22.908 63.6122-24.069Q64.7732-25.23 66.4892-25.23L87.4512-25.23L87.4512-67.153Q87.4512-68.499 86.5862-69.365Q85.7202-70.23 84.3742-70.23L20.5282-70.23Q19.1822-70.23 18.3162-69.365Q17.4512-68.499 17.4512-67.153L17.4512-3.307Q17.4512-1.961 18.3162-1.095Q19.1822-0.23 20.5282-0.23ZM20.5282 4.77Q17.1962 4.77 14.8242 2.397Q12.4512 0.025 12.4512-3.307L12.4512-67.153Q12.4512-70.485 14.8242-72.857Q17.1962-75.23 20.5282-75.23L84.3742-75.23Q87.7062-75.23 90.0782-72.857Q92.4512-70.485 92.4512-67.153L92.4512-27.143Q92.4512-25.485 91.7972-23.983Q91.1432-22.48 90.0572-21.393L66.2882 2.376Q65.2012 3.462 63.6982 4.116Q62.1962 4.77 60.5382 4.77L20.5282 4.77ZM49.9512-27.922L34.3742-27.922Q33.3122-27.922 32.5932-28.642Q31.8742-29.362 31.8742-30.426Q31.8742-31.49 32.5932-32.206Q33.3122-32.922 34.3742-32.922L49.9512-32.922Q51.0132-32.922 51.7322-32.203Q52.4512-31.483 52.4512-30.419Q52.4512-29.355 51.7322-28.639Q51.0132-27.922 49.9512-27.922ZM70.5282-47.73L34.3742-47.73Q33.3122-47.73 32.5932-48.45Q31.8742-49.169 31.8742-50.233Q31.8742-51.297 32.5932-52.014Q33.3122-52.73 34.3742-52.73L70.5282-52.73Q71.5902-52.73 72.3092-52.01Q73.0282-51.291 73.0282-50.227Q73.0282-49.163 72.3092-48.446Q71.5902-47.73 70.5282-47.73Z"/>
  </g>
  <g id="Ultralight-M" transform="matrix(1 0 0 1 508.76 1126)">
   <path class="monochrome-0 multicolor-0:tintColor hierarchical-0:primary SFSymbolsPreviewWireframe" d="M19.9512-0.23L60.9512-0.23L60.9512-21.48Q60.9512-23.074 62.0292-24.152Q63.1072-25.23 64.7012-25.23L85.9512-25.23L85.9512-66.23Q85.9512-67.98 84.8262-69.105Q83.7012-70.23 81.9512-70.23L19.9512-70.23Q18.2012-70.23 17.0762-69.105Q15.9512-67.98 15.9512-66.23L15.9512-4.23Q15.9512-2.48 17.0762-1.355Q18.2012-0.23 19.9512-0.23ZM19.9512 3.27Q16.8572 3.27 14.6542 1.067Q12.4512-1.136 12.4512-4.23L12.4512-66.23Q12.4512-69.324 14.6542-71.527Q16.8572-73.73 19.9512-73.73L81.9512-73.73Q85.0452-73.73 87.2482-71.527Q89.4512-69.324 89.4512-66.23L89.4512-27.98Q89.4512-26.424 88.8262-25.015Q88.2012-23.605 87.2012-22.605L63.5762 1.02Q62.5762 2.02 61.1662 2.645Q59.7562 3.27 58.2012 3.27L19.9512 3.27ZM49.2012-28.73L33.4512-28.73Q32.7072-28.73 32.2042-29.234Q31.7012-29.739 31.7012-30.484Q31.7012-31.23 32.2042-31.73Q32.7072-32.23 33.4512-32.23L49.2012-32.23Q49.9452-32.23 50.4482-31.726Q50.9512-31.221 50.9512-30.476Q50.9512-29.73 50.4482-29.23Q49.9452-28.73 49.2012-28.73ZM68.4512-48.48L33.4512-48.48Q32.7072-48.48 32.2042-48.984Q31.7012-49.489 31.7012-50.234Q31.7012-50.98 32.2042-51.48Q32.7072-51.98 33.4512-51.98L68.4512-51.98Q69.1952-51.98 69.6982-51.476Q70.2012-50.971 70.2012-50.226Q70.2012-49.48 69.6982-48.98Q69.1952-48.48 68.4512-48.48Z"/>
  </g>
  <g id="Bold-S" transform="matrix(1 0 0 1 2291.04 696)">
   <path class="monochrome-0 multicolor-0:tintColor hierarchical-0:primary SFSymbolsPreviewWireframe" d="M24.0882-10.376L54.8602-10.376L54.8602-23.494Q54.8602-25.89 56.5712-27.601Q58.2822-29.312 60.6782-29.312L73.7962-29.312L73.7962-60.083Q73.7962-60.083 73.7962-60.083Q73.7962-60.083 73.7962-60.083L24.0882-60.083Q24.0882-60.083 24.0882-60.083Q24.0882-60.083 24.0882-60.083L24.0882-10.376Q24.0882-10.376 24.0882-10.376Q24.0882-10.376 24.0882-10.376ZM24.0552 1.261Q19.2582 1.261 15.8542-2.157Q12.4512-5.576 12.4512-10.376L12.4512-60.083Q12.4512-64.884 15.8692-68.303Q19.2882-71.721 24.0882-71.721L73.7962-71.721Q78.5962-71.721 82.0152-68.306Q85.4332-64.891 85.4332-60.095L85.4332-30.139Q85.4332-27.809 84.5952-25.701Q83.7572-23.592 81.9612-21.797L62.3752-2.211Q60.5802-0.415 58.4682 0.423Q56.3562 1.261 54.0262 1.261L24.0552 1.261ZM44.9972-26.945L35.4302-26.945Q33.6282-26.945 32.4092-28.187Q31.1902-29.429 31.1902-31.264Q31.1902-33.058 32.4372-34.292Q33.6852-35.526 35.5292-35.526L44.9972-35.526Q46.7992-35.526 48.0192-34.312Q49.2382-33.098 49.2382-31.304Q49.2382-29.51 48.0192-28.228Q46.7992-26.945 44.9972-26.945ZM62.4542-42.627L35.4302-42.627Q33.6282-42.627 32.4092-43.868Q31.1902-45.11 31.1902-46.946Q31.1902-48.739 32.4372-49.973Q33.6852-51.207 35.5292-51.207L62.4542-51.207Q64.2562-51.207 65.4752-49.993Q66.6952-48.78 66.6952-46.985Q66.6952-45.191 65.4752-43.909Q64.2562-42.627 62.4542-42.627Z"/>
  </g>
  <g id="Semibold-S" transform="matrix(1 0 0 1 1995.78 696)">
   <path class="monochrome-0 multicolor-0:tintColor hierarchical-0:primary SFSymbolsPreviewWireframe" d="M22.1162-9.862L53.9162-9.862L53.9162-23.965Q53.9162-25.976 55.3272-27.387Q56.7382-28.798 58.7492-28.798L72.8522-28.798L72.8522-60.598Q72.8522-60.598 72.8522-60.598Q72.8522-60.598 72.8522-60.598L22.1162-60.598Q22.1162-60.598 22.1162-60.598Q22.1162-60.598 22.1162-60.598L22.1162-9.862Q22.1162-9.862 22.1162-9.862Q22.1162-9.862 22.1162-9.862ZM22.0832-0.197Q18.0992-0.197 15.2752-3.036Q12.4512-5.875 12.4512-9.862L12.4512-60.598Q12.4512-64.585 15.2902-67.424Q18.1292-70.263 22.1162-70.263L72.8522-70.263Q76.8392-70.263 79.6782-67.428Q82.5172-64.592 82.5172-60.61L82.5172-29.538Q82.5172-27.605 81.8292-25.856Q81.1412-24.107 79.6462-22.612L60.1022-3.068Q58.6072-1.573 56.8552-0.885Q55.1022-0.197 53.1682-0.197L22.0832-0.197ZM43.7112-27.46L33.1582-27.46Q31.4832-27.46 30.3502-28.603Q29.2172-29.746 29.2172-31.436Q29.2172-33.102 30.3662-34.249Q31.5152-35.397 33.2132-35.397L43.7112-35.397Q45.3852-35.397 46.5182-34.27Q47.6512-33.143 47.6512-31.476Q47.6512-29.81 46.5182-28.635Q45.3852-27.46 43.7112-27.46ZM61.8102-42.498L33.1582-42.498Q31.4832-42.498 30.3502-43.641Q29.2172-44.784 29.2172-46.474Q29.2172-48.14 30.3662-49.288Q31.5152-50.435 33.2132-50.435L61.8102-50.435Q63.4852-50.435 64.6182-49.308Q65.7512-48.181 65.7512-46.514Q65.7512-44.848 64.6182-43.673Q63.4852-42.498 61.8102-42.498Z"/>
  </g>
  <g id="Medium-S" transform="matrix(1 0 0 1 1700.16 696)">
   <path class="monochrome-0 multicolor-0:tintColor hierarchical-0:primary SFSymbolsPreviewWireframe" d="M20.6372-9.476L53.2092-9.476L53.2092-24.319Q53.2092-26.04 54.3952-27.226Q55.5812-28.412 57.3022-28.412L72.1452-28.412L72.1452-60.984Q72.1452-60.984 72.1452-60.984Q72.1452-60.984 72.1452-60.984L20.6372-60.984Q20.6372-60.984 20.6372-60.984Q20.6372-60.984 20.6372-60.984L20.6372-9.476Q20.6372-9.476 20.6372-9.476Q20.6372-9.476 20.6372-9.476ZM20.6042-1.29Q17.2312-1.29 14.8412-3.695Q12.4512-6.099 12.4512-9.476L12.4512-60.984Q12.4512-64.361 14.8562-66.765Q17.2602-69.17 20.6372-69.17L72.1452-69.17Q75.5222-69.17 77.9262-66.769Q80.3312-64.368 80.3312-60.996L80.3312-29.088Q80.3312-27.452 79.7552-25.972Q79.1802-24.493 77.9092-23.223L58.3982-3.712Q57.1282-2.441 55.6452-1.866Q54.1622-1.29 52.5262-1.29L20.6042-1.29ZM42.7462-27.846L31.4542-27.846Q29.8742-27.846 28.8062-28.915Q27.7382-29.984 27.7382-31.564Q27.7382-33.135 28.8132-34.218Q29.8882-35.301 31.4772-35.301L42.7462-35.301Q44.3252-35.301 45.3942-34.238Q46.4622-33.176 46.4622-31.606Q46.4622-30.035 45.3942-28.94Q44.3252-27.846 42.7462-27.846ZM61.3282-42.402L31.4542-42.402Q29.8742-42.402 28.8062-43.471Q27.7382-44.54 27.7382-46.12Q27.7382-47.69 28.8132-48.773Q29.8882-49.856 31.4772-49.856L61.3282-49.856Q62.9082-49.856 63.9762-48.794Q65.0442-47.732 65.0442-46.161Q65.0442-44.591 63.9762-43.496Q62.9082-42.402 61.3282-42.402Z"/>
  </g>
  <g id="Regular-S" transform="matrix(1 0 0 1 1404.26 696)">
   <path class="monochrome-0 multicolor-0:tintColor hierarchical-0:primary SFSymbolsPreviewWireframe" d="M19.5522-9.193L52.6902-9.193L52.6902-24.578Q52.6902-26.087 53.7112-27.108Q54.7322-28.129 56.2412-28.129L71.6262-28.129L71.6262-61.267Q71.6262-61.267 71.6262-61.267Q71.6262-61.267 71.6262-61.267L19.5522-61.267Q19.5522-61.267 19.5522-61.267Q19.5522-61.267 19.5522-61.267L19.5522-9.193Q19.5522-9.193 19.5522-9.193Q19.5522-9.193 19.5522-9.193ZM19.5192-2.092Q16.5932-2.092 14.5222-4.178Q12.4512-6.264 12.4512-9.193L12.4512-61.267Q12.4512-64.196 14.5372-66.282Q16.6232-68.368 19.5522-68.368L71.6262-68.368Q74.5552-68.368 76.6412-66.286Q78.7272-64.203 78.7272-61.279L78.7272-28.758Q78.7272-27.34 78.2342-26.058Q77.7412-24.776 76.6362-23.671L57.1482-4.183Q56.0432-3.078 54.7582-2.585Q53.4722-2.092 52.0542-2.092L19.5192-2.092ZM42.0392-28.129L30.2042-28.129Q28.6952-28.129 27.6742-29.144Q26.6532-30.159 26.6532-31.659Q26.6532-33.159 27.6742-34.194Q28.6952-35.23 30.2042-35.23L42.0392-35.23Q43.5472-35.23 44.5682-34.215Q45.5892-33.2 45.5892-31.7Q45.5892-30.2 44.5682-29.165Q43.5472-28.129 42.0392-28.129ZM60.9752-42.331L30.2042-42.331Q28.6952-42.331 27.6742-43.346Q26.6532-44.361 26.6532-45.861Q26.6532-47.361 27.6742-48.396Q28.6952-49.432 30.2042-49.432L60.9752-49.432Q62.4832-49.432 63.5042-48.417Q64.5252-47.402 64.5252-45.902Q64.5252-44.402 63.5042-43.367Q62.4832-42.331 60.9752-42.331Z"/>
  </g>
  <g id="Light-S" transform="matrix(1 0 0 1 1109.52 696)">
   <path class="monochrome-0 multicolor-0:tintColor hierarchical-0:primary SFSymbolsPreviewWireframe" d="M18.7932-9.193L50.7172-9.193L50.7172-24.958Q50.7172-26.306 51.6292-27.217Q52.5402-28.129 53.8882-28.129L69.6532-28.129L69.6532-60.053Q69.6532-60.584 69.3122-60.926Q68.9702-61.267 68.4392-61.267L18.7932-61.267Q18.2622-61.267 17.9202-60.926Q17.5792-60.584 17.5792-60.053L17.5792-10.407Q17.5792-9.876 17.9202-9.534Q18.2622-9.193 18.7932-9.193ZM18.7602-4.065Q16.1472-4.065 14.2992-5.928Q12.4512-7.791 12.4512-10.407L12.4512-60.053Q12.4512-62.669 14.3142-64.532Q16.1772-66.395 18.7932-66.395L68.4392-66.395Q71.0552-66.395 72.9182-64.536Q74.7812-62.676 74.7812-60.065L74.7812-29.858Q74.7812-28.575 74.3262-27.415Q73.8712-26.255 72.8802-25.264L53.5822-5.966Q52.5912-4.975 51.4282-4.52Q50.2642-4.065 48.9812-4.065L18.7602-4.065ZM41.0522-29.191L28.9892-29.191Q27.8992-29.191 27.1622-29.923Q26.4252-30.654 26.4252-31.736Q26.4252-32.817 27.1622-33.568Q27.8992-34.32 28.9892-34.32L41.0522-34.32Q42.1422-34.32 42.8792-33.588Q43.6162-32.856 43.6162-31.775Q43.6162-30.693 42.8792-29.942Q42.1422-29.191 41.0522-29.191ZM58.2432-43.317L28.9892-43.317Q27.8992-43.317 27.1622-44.049Q26.4252-44.781 26.4252-45.862Q26.4252-46.944 27.1622-47.695Q27.8992-48.446 28.9892-48.446L58.2432-48.446Q59.3332-48.446 60.0702-47.714Q60.8072-46.982 60.8072-45.901Q60.8072-44.819 60.0702-44.068Q59.3332-43.317 58.2432-43.317Z"/>
  </g>
  <g id="Thin-S" transform="matrix(1 0 0 1 814.778 696)">
   <path class="monochrome-0 multicolor-0:tintColor hierarchical-0:primary SFSymbolsPreviewWireframe" d="M18.0352-9.193L48.7452-9.193L48.7452-25.337Q48.7452-26.524 49.5482-27.326Q50.3502-28.129 51.5372-28.129L67.6812-28.129L67.6812-58.839Q67.6812-59.901 66.9982-60.584Q66.3152-61.267 65.2532-61.267L18.0352-61.267Q16.9732-61.267 16.2902-60.584Q15.6072-59.901 15.6072-58.839L15.6072-11.621Q15.6072-10.559 16.2902-9.876Q16.9732-9.193 18.0352-9.193ZM18.0012-6.037Q15.7022-6.037 14.0762-7.677Q12.4512-9.317 12.4512-11.621L12.4512-58.839Q12.4512-61.143 14.0912-62.783Q15.7312-64.423 18.0352-64.423L65.2532-64.423Q67.5572-64.423 69.1972-62.786Q70.8372-61.15 70.8372-58.851L70.8372-30.958Q70.8372-29.81 70.4202-28.772Q70.0032-27.734 69.1252-26.857L50.0172-7.749Q49.1402-6.871 48.0992-6.454Q47.0582-6.037 45.9092-6.037L18.0012-6.037ZM40.0662-30.253L27.7762-30.253Q27.1052-30.253 26.6512-30.702Q26.1982-31.15 26.1982-31.813Q26.1982-32.476 26.6512-32.943Q27.1052-33.409 27.7762-33.409L40.0662-33.409Q40.7372-33.409 41.1902-32.961Q41.6442-32.512 41.6442-31.849Q41.6442-31.186 41.1902-30.72Q40.7372-30.253 40.0662-30.253ZM55.5122-44.303L27.7762-44.303Q27.1052-44.303 26.6512-44.752Q26.1982-45.2 26.1982-45.863Q26.1982-46.526 26.6512-46.993Q27.1052-47.459 27.7762-47.459L55.5122-47.459Q56.1832-47.459 56.6372-47.011Q57.0902-46.563 57.0902-45.9Q57.0902-45.237 56.6372-44.77Q56.1832-44.303 55.5122-44.303Z"/>
  </g>
  <g id="Ultralight-S" transform="matrix(1 0 0 1 519.25 696)">
   <path class="monochrome-0 multicolor-0:tintColor hierarchical-0:primary SFSymbolsPreviewWireframe" d="M17.5792-9.193L47.5612-9.193L47.5612-25.565Q47.5612-26.655 48.2982-27.392Q49.0352-28.129 50.1252-28.129L66.4972-28.129L66.4972-58.111Q66.4972-59.492 65.6092-60.379Q64.7222-61.267 63.3412-61.267L17.5792-61.267Q16.1982-61.267 15.3112-60.379Q14.4232-59.492 14.4232-58.111L14.4232-12.349Q14.4232-10.968 15.3112-10.081Q16.1982-9.193 17.5792-9.193ZM17.5462-7.22Q15.4342-7.22 13.9422-8.727Q12.4512-10.233 12.4512-12.349L12.4512-58.111Q12.4512-60.227 13.9572-61.733Q15.4632-63.239 17.5792-63.239L63.3412-63.239Q65.4572-63.239 66.9632-61.736Q68.4702-60.234 68.4702-58.123L68.4702-31.618Q68.4702-30.551 68.0752-29.586Q67.6812-28.622 66.8712-27.813L47.8772-8.819Q47.0682-8.009 46.1002-7.615Q45.1332-7.22 44.0652-7.22L17.5462-7.22ZM39.4742-30.89L27.0472-30.89Q26.6282-30.89 26.3442-31.169Q26.0612-31.448 26.0612-31.859Q26.0612-32.271 26.3442-32.567Q26.6282-32.863 27.0472-32.863L39.4742-32.863Q39.8932-32.863 40.1762-32.584Q40.4602-32.306 40.4602-31.894Q40.4602-31.482 40.1762-31.186Q39.8932-30.89 39.4742-30.89ZM53.8732-44.895L27.0472-44.895Q26.6282-44.895 26.3442-45.174Q26.0612-45.452 26.0612-45.864Q26.0612-46.276 26.3442-46.572Q26.6282-46.868 27.0472-46.868L53.8732-46.868Q54.2922-46.868 54.5762-46.589Q54.8592-46.311 54.8592-45.899Q54.8592-45.487 54.5762-45.191Q54.2922-44.895 53.8732-44.895Z"/>
  </g>
 </g>
</svg>
