<?xml version="1.0" encoding="UTF-8"?>
<!--Generator: Apple Native CoreSVG 232.5-->
<!DOCTYPE svg
PUBLIC "-//W3C//DTD SVG 1.1//EN"
       "http://www.w3.org/Graphics/SVG/1.1/DTD/svg11.dtd">
<svg version="1.1" xmlns="http://www.w3.org/2000/svg" xmlns:xlink="http://www.w3.org/1999/xlink" width="3300" height="2200">
 <!--glyph: "", point size: 100.0, font version: "19.0d7e1", template writer version: "128"-->
 <style>.monochrome-0 {-sfsymbols-motion-group:0}

.multicolor-0:tintColor {-sfsymbols-motion-group:0}

.hierarchical-0:primary {-sfsymbols-motion-group:0}

.SFSymbolsPreviewWireframe {fill:none;opacity:1.0;stroke:black;stroke-width:0.5}
</style>
 <g id="Notes">
  <rect height="2200" id="artboard" style="fill:white;opacity:1" width="3300" x="0" y="0"/>
  <line style="fill:none;stroke:black;opacity:1;stroke-width:0.5;" x1="263" x2="3036" y1="292" y2="292"/>
  <text style="stroke:none;fill:black;font-family:sans-serif;font-size:13;font-weight:bold;" transform="matrix(1 0 0 1 263 322)">Weight/Scale Variations</text>
  <text style="stroke:none;fill:black;font-family:sans-serif;font-size:13;text-anchor:middle;" transform="matrix(1 0 0 1 559.711 322)">Ultralight</text>
  <text style="stroke:none;fill:black;font-family:sans-serif;font-size:13;text-anchor:middle;" transform="matrix(1 0 0 1 856.422 322)">Thin</text>
  <text style="stroke:none;fill:black;font-family:sans-serif;font-size:13;text-anchor:middle;" transform="matrix(1 0 0 1 1153.13 322)">Light</text>
  <text style="stroke:none;fill:black;font-family:sans-serif;font-size:13;text-anchor:middle;" transform="matrix(1 0 0 1 1449.84 322)">Regular</text>
  <text style="stroke:none;fill:black;font-family:sans-serif;font-size:13;text-anchor:middle;" transform="matrix(1 0 0 1 1746.56 322)">Medium</text>
  <text style="stroke:none;fill:black;font-family:sans-serif;font-size:13;text-anchor:middle;" transform="matrix(1 0 0 1 2043.27 322)">Semibold</text>
  <text style="stroke:none;fill:black;font-family:sans-serif;font-size:13;text-anchor:middle;" transform="matrix(1 0 0 1 2339.98 322)">Bold</text>
  <text style="stroke:none;fill:black;font-family:sans-serif;font-size:13;text-anchor:middle;" transform="matrix(1 0 0 1 2636.69 322)">Heavy</text>
  <text style="stroke:none;fill:black;font-family:sans-serif;font-size:13;text-anchor:middle;" transform="matrix(1 0 0 1 2933.4 322)">Black</text>
  <line style="fill:none;stroke:black;opacity:1;stroke-width:0.5;" x1="263" x2="3036" y1="1903" y2="1903"/>
  <g transform="matrix(0.2 0 0 0.2 263 1933)">
   <path d="m46.2402 4.15039c21.5332 0 39.4531-17.8711 39.4531-39.4043s-17.9688-39.4043-39.502-39.4043c-21.4844 0-39.3555 17.8711-39.3555 39.4043s17.9199 39.4043 39.4043 39.4043Zm0-7.42188c-17.7246 0-31.8848-14.209-31.8848-31.9824s14.1113-31.9824 31.8359-31.9824c17.7734 0 32.0312 14.209 32.0312 31.9824s-14.209 31.9824-31.9824 31.9824Zm-17.9688-31.9824c0 2.14844 1.51367 3.61328 3.75977 3.61328h10.498v10.5957c0 2.19727 1.46484 3.71094 3.61328 3.71094 2.24609 0 3.71094-1.51367 3.71094-3.71094v-10.5957h10.5957c2.19727 0 3.71094-1.46484 3.71094-3.61328 0-2.19727-1.51367-3.71094-3.71094-3.71094h-10.5957v-10.5469c0-2.24609-1.46484-3.75977-3.71094-3.75977-2.14844 0-3.61328 1.51367-3.61328 3.75977v10.5469h-10.498c-2.24609 0-3.75977 1.51367-3.75977 3.71094Z"/>
  </g>
  <g transform="matrix(0.2 0 0 0.2 281.506 1933)">
   <path d="m58.5449 14.5508c27.2461 0 49.8047-22.6074 49.8047-49.8047 0-27.2461-22.6074-49.8047-49.8535-49.8047-27.1973 0-49.7559 22.5586-49.7559 49.8047 0 27.1973 22.6074 49.8047 49.8047 49.8047Zm0-8.30078c-23.0469 0-41.4551-18.457-41.4551-41.5039s18.3594-41.5039 41.4062-41.5039 41.5527 18.457 41.5527 41.5039-18.457 41.5039-41.5039 41.5039Zm-22.6562-41.5039c0 2.39258 1.66016 4.00391 4.15039 4.00391h14.3555v14.4043c0 2.44141 1.66016 4.15039 4.05273 4.15039 2.44141 0 4.15039-1.66016 4.15039-4.15039v-14.4043h14.4043c2.44141 0 4.15039-1.61133 4.15039-4.00391 0-2.44141-1.70898-4.15039-4.15039-4.15039h-14.4043v-14.3555c0-2.49023-1.70898-4.19922-4.15039-4.19922-2.39258 0-4.05273 1.70898-4.05273 4.19922v14.3555h-14.3555c-2.49023 0-4.15039 1.70898-4.15039 4.15039Z"/>
  </g>
  <g transform="matrix(0.2 0 0 0.2 304.924 1933)">
   <path d="m74.8535 28.3203c34.8145 0 63.623-28.8086 63.623-63.5742 0-34.8145-28.8574-63.623-63.6719-63.623-34.7656 0-63.5254 28.8086-63.5254 63.623 0 34.7656 28.8086 63.5742 63.5742 63.5742Zm0-9.08203c-30.1758 0-54.4434-24.3164-54.4434-54.4922 0-30.2246 24.2188-54.4922 54.3945-54.4922 30.2246 0 54.541 24.2676 54.541 54.4922 0 30.1758-24.2676 54.4922-54.4922 54.4922Zm-28.8574-54.4922c0 2.58789 1.85547 4.39453 4.58984 4.39453h19.7266v19.7754c0 2.68555 1.85547 4.58984 4.44336 4.58984 2.68555 0 4.54102-1.85547 4.54102-4.58984v-19.7754h19.7754c2.68555 0 4.58984-1.80664 4.58984-4.39453 0-2.73438-1.85547-4.58984-4.58984-4.58984h-19.7754v-19.7266c0-2.73438-1.85547-4.63867-4.54102-4.63867-2.58789 0-4.44336 1.9043-4.44336 4.63867v19.7266h-19.7266c-2.73438 0-4.58984 1.85547-4.58984 4.58984Z"/>
  </g>
  <text style="stroke:none;fill:black;font-family:sans-serif;font-size:13;font-weight:bold;" transform="matrix(1 0 0 1 263 1953)">Design Variations</text>
  <text style="stroke:none;fill:black;font-family:sans-serif;font-size:13;" transform="matrix(1 0 0 1 263 1971)">Symbols are supported in up to nine weights and three scales.</text>
  <text style="stroke:none;fill:black;font-family:sans-serif;font-size:13;" transform="matrix(1 0 0 1 263 1989)">For optimal layout with text and other symbols, vertically align</text>
  <text style="stroke:none;fill:black;font-family:sans-serif;font-size:13;" transform="matrix(1 0 0 1 263 2007)">symbols with the adjacent text.</text>
  <line style="fill:none;stroke:#00AEEF;stroke-width:0.5;opacity:1.0;" x1="776" x2="776" y1="1919" y2="1933"/>
  <g transform="matrix(0.2 0 0 0.2 776 1933)">
   <path d="m16.5527 0.78125c2.58789 0 3.85742-0.976562 4.78516-3.71094l6.29883-17.2363h28.8086l6.29883 17.2363c0.927734 2.73438 2.19727 3.71094 4.73633 3.71094 2.58789 0 4.24805-1.5625 4.24805-4.00391 0-0.830078-0.146484-1.61133-0.537109-2.63672l-22.9004-60.9863c-1.12305-2.97852-3.125-4.49219-6.25-4.49219-3.02734 0-5.07812 1.46484-6.15234 4.44336l-22.9004 61.084c-0.390625 1.02539-0.537109 1.80664-0.537109 2.63672 0 2.44141 1.5625 3.95508 4.10156 3.95508Zm13.4766-28.3691 11.8652-32.8613h0.244141l11.8652 32.8613Z"/>
  </g>
  <line style="fill:none;stroke:#00AEEF;stroke-width:0.5;opacity:1.0;" x1="792.836" x2="792.836" y1="1919" y2="1933"/>
  <text style="stroke:none;fill:black;font-family:sans-serif;font-size:13;font-weight:bold;" transform="matrix(1 0 0 1 776 1953)">Margins</text>
  <text style="stroke:none;fill:black;font-family:sans-serif;font-size:13;" transform="matrix(1 0 0 1 776 1971)">Leading and trailing margins on the left and right side of each symbol</text>
  <text style="stroke:none;fill:black;font-family:sans-serif;font-size:13;" transform="matrix(1 0 0 1 776 1989)">can be adjusted by modifying the x-location of the margin guidelines.</text>
  <text style="stroke:none;fill:black;font-family:sans-serif;font-size:13;" transform="matrix(1 0 0 1 776 2007)">Modifications are automatically applied proportionally to all</text>
  <text style="stroke:none;fill:black;font-family:sans-serif;font-size:13;" transform="matrix(1 0 0 1 776 2025)">scales and weights.</text>
  <g transform="matrix(0.2 0 0 0.2 1289 1933)">
   <path d="m14.209 9.32617 8.49609 8.54492c4.29688 4.3457 9.22852 4.05273 13.8672-1.07422l53.4668-58.9355-4.83398-4.88281-53.0762 58.3984c-1.75781 2.00195-3.41797 2.49023-5.76172 0.146484l-5.85938-5.81055c-2.34375-2.29492-1.80664-4.00391 0.195312-5.81055l57.373-54.0039-4.88281-4.83398-57.959 54.4434c-4.93164 4.58984-5.32227 9.47266-1.02539 13.8184Zm32.0801-90.9668c-2.09961 2.05078-2.24609 4.93164-1.07422 6.88477 1.17188 1.80664 3.4668 2.97852 6.68945 2.14844 7.32422-1.70898 14.9414-2.00195 22.0703 2.68555l-2.92969 7.27539c-1.70898 4.15039-0.830078 7.08008 1.85547 9.81445l11.4746 11.5723c2.44141 2.44141 4.49219 2.53906 7.32422 2.05078l5.32227-0.976562 3.32031 3.36914-0.195312 2.7832c-0.195312 2.49023 0.439453 4.39453 2.88086 6.78711l3.80859 3.71094c2.39258 2.39258 5.46875 2.53906 7.8125 0.195312l14.5508-14.5996c2.34375-2.34375 2.24609-5.32227-0.146484-7.71484l-3.85742-3.80859c-2.39258-2.39258-4.24805-3.17383-6.64062-2.97852l-2.88086 0.244141-3.22266-3.17383 1.2207-5.61523c0.634766-2.83203-0.146484-5.0293-3.07617-7.95898l-10.9863-10.9375c-16.6992-16.6016-38.8672-16.2109-53.3203-1.75781Zm7.4707 1.85547c12.1582-8.88672 28.6133-7.37305 39.7461 3.75977l12.1582 12.0605c1.17188 1.17188 1.36719 2.09961 1.02539 3.80859l-1.61133 7.42188 7.51953 7.42188 4.93164-0.292969c1.26953-0.0488281 1.66016 0.0488281 2.63672 1.02539l2.88086 2.88086-12.207 12.207-2.88086-2.88086c-0.976562-0.976562-1.12305-1.36719-1.07422-2.68555l0.341797-4.88281-7.4707-7.42188-7.61719 1.26953c-1.61133 0.341797-2.34375 0.195312-3.56445-0.976562l-10.0098-10.0098c-1.26953-1.17188-1.41602-2.00195-0.634766-3.85742l4.39453-10.4492c-7.8125-7.27539-17.9688-10.4004-28.125-7.42188-0.78125 0.195312-1.07422-0.439453-0.439453-0.976562Z"/>
  </g>
  <text style="stroke:none;fill:black;font-family:sans-serif;font-size:13;font-weight:bold;" transform="matrix(1 0 0 1 1289 1953)">Exporting</text>
  <text style="stroke:none;fill:black;font-family:sans-serif;font-size:13;" transform="matrix(1 0 0 1 1289 1971)">Symbols should be outlined when exporting to ensure the</text>
  <text style="stroke:none;fill:black;font-family:sans-serif;font-size:13;" transform="matrix(1 0 0 1 1289 1989)">design is preserved when submitting to Xcode.</text>
  <text id="template-version" style="stroke:none;fill:black;font-family:sans-serif;font-size:13;text-anchor:end;" transform="matrix(1 0 0 1 3036 1933)">Template v.5.0</text>
  <text style="stroke:none;fill:black;font-family:sans-serif;font-size:13;text-anchor:end;" transform="matrix(1 0 0 1 3036 1951)">Requires Xcode 15 or greater</text>
  <text id="descriptive-name" style="stroke:none;fill:black;font-family:sans-serif;font-size:13;text-anchor:end;" transform="matrix(1 0 0 1 3036 1969)">Generated from card</text>
  <text style="stroke:none;fill:black;font-family:sans-serif;font-size:13;text-anchor:end;" transform="matrix(1 0 0 1 3036 1987)">Typeset at 100.0 points</text>
  <text style="stroke:none;fill:black;font-family:sans-serif;font-size:13;" transform="matrix(1 0 0 1 263 726)">Small</text>
  <text style="stroke:none;fill:black;font-family:sans-serif;font-size:13;" transform="matrix(1 0 0 1 263 1156)">Medium</text>
  <text style="stroke:none;fill:black;font-family:sans-serif;font-size:13;" transform="matrix(1 0 0 1 263 1586)">Large</text>
 </g>
 <g id="Guides">
  <g id="H-reference" style="fill:#27AAE1;stroke:none;" transform="matrix(1 0 0 1 339 696)">
   <path d="M0.993654 0L3.63775 0L29.3281-67.1323L30.0303-67.1323L30.0303-70.459L28.1226-70.459ZM11.6885-24.4799L46.9815-24.4799L46.2315-26.7285L12.4385-26.7285ZM55.1196 0L57.7637 0L30.6382-70.459L29.4326-70.459L29.4326-67.1323Z"/>
  </g>
  <line id="Baseline-S" style="fill:none;stroke:#27AAE1;opacity:1;stroke-width:0.5;" x1="263" x2="3036" y1="696" y2="696"/>
  <line id="Capline-S" style="fill:none;stroke:#27AAE1;opacity:1;stroke-width:0.5;" x1="263" x2="3036" y1="625.541" y2="625.541"/>
  <g id="H-reference" style="fill:#27AAE1;stroke:none;" transform="matrix(1 0 0 1 339 1126)">
   <path d="M0.993654 0L3.63775 0L29.3281-67.1323L30.0303-67.1323L30.0303-70.459L28.1226-70.459ZM11.6885-24.4799L46.9815-24.4799L46.2315-26.7285L12.4385-26.7285ZM55.1196 0L57.7637 0L30.6382-70.459L29.4326-70.459L29.4326-67.1323Z"/>
  </g>
  <line id="Baseline-M" style="fill:none;stroke:#27AAE1;opacity:1;stroke-width:0.5;" x1="263" x2="3036" y1="1126" y2="1126"/>
  <line id="Capline-M" style="fill:none;stroke:#27AAE1;opacity:1;stroke-width:0.5;" x1="263" x2="3036" y1="1055.54" y2="1055.54"/>
  <g id="H-reference" style="fill:#27AAE1;stroke:none;" transform="matrix(1 0 0 1 339 1556)">
   <path d="M0.993654 0L3.63775 0L29.3281-67.1323L30.0303-67.1323L30.0303-70.459L28.1226-70.459ZM11.6885-24.4799L46.9815-24.4799L46.2315-26.7285L12.4385-26.7285ZM55.1196 0L57.7637 0L30.6382-70.459L29.4326-70.459L29.4326-67.1323Z"/>
  </g>
  <line id="Baseline-L" style="fill:none;stroke:#27AAE1;opacity:1;stroke-width:0.5;" x1="263" x2="3036" y1="1556" y2="1556"/>
  <line id="Capline-L" style="fill:none;stroke:#27AAE1;opacity:1;stroke-width:0.5;" x1="263" x2="3036" y1="1485.54" y2="1485.54"/>
  <line id="left-margin-Regular-M" style="fill:none;stroke:#00AEEF;stroke-width:0.5;opacity:1.0;" x1="1387.39" x2="1387.39" y1="1030.79" y2="1150.12"/>
  <line id="right-margin-Regular-M" style="fill:none;stroke:#00AEEF;stroke-width:0.5;opacity:1.0;" x1="1512.3" x2="1512.3" y1="1030.79" y2="1150.12"/>
 </g>
 <g id="Symbols">
  <g id="Bold-L" transform="matrix(1 0 0 1 2258.91 1556)">
   <path class="monochrome-0 multicolor-0:tintColor hierarchical-0:primary SFSymbolsPreviewWireframe" d="M149.675-75.704L149.675 5.244Q149.675 11.541 145.197 15.971Q140.719 20.401 134.356 20.401L27.6082 20.401Q21.3112 20.401 16.8812 15.971Q12.4512 11.541 12.4512 5.244L12.4512-75.704Q12.4512-82.067 16.8812-86.545Q21.3112-91.022 27.6082-91.022L134.356-91.022Q140.719-91.022 145.197-86.545Q149.675-82.067 149.675-75.704ZM27.6082-59.901L134.356-59.901L134.356-75.704Q134.356-75.704 134.356-75.704Q134.356-75.704 134.356-75.704L27.6082-75.704Q27.6082-75.704 27.6082-75.704Q27.6082-75.704 27.6082-75.704L27.6082-59.901ZM27.6082-39.1L27.6082 5.244Q27.6082 5.244 27.6082 5.244Q27.6082 5.244 27.6082 5.244L134.356 5.244Q134.356 5.244 134.356 5.244Q134.356 5.244 134.356 5.244L134.356-39.1L27.6082-39.1Z"/>
  </g>
  <g id="Semibold-L" transform="matrix(1 0 0 1 1963.99 1556)">
   <path class="monochrome-0 multicolor-0:tintColor hierarchical-0:primary SFSymbolsPreviewWireframe" d="M146.1-76.335L146.1 5.875Q146.1 11.116 142.307 14.882Q138.514 18.649 133.235 18.649L25.2252 18.649Q19.9842 18.649 16.2182 14.882Q12.4512 11.116 12.4512 5.875L12.4512-76.335Q12.4512-81.614 16.2182-85.407Q19.9842-89.2 25.2252-89.2L133.235-89.2Q138.514-89.2 142.307-85.407Q146.1-81.614 146.1-76.335ZM25.2252-59.761L133.235-59.761L133.235-76.335Q133.235-76.335 133.235-76.335Q133.235-76.335 133.235-76.335L25.2252-76.335Q25.2252-76.335 25.2252-76.335Q25.2252-76.335 25.2252-76.335L25.2252-59.761ZM25.2252-38.96L25.2252 5.875Q25.2252 5.875 25.2252 5.875Q25.2252 5.875 25.2252 5.875L133.235 5.875Q133.235 5.875 133.235 5.875Q133.235 5.875 133.235 5.875L133.235-38.96L25.2252-38.96Z"/>
  </g>
  <g id="Medium-L" transform="matrix(1 0 0 1 1668.62 1556)">
   <path class="monochrome-0 multicolor-0:tintColor hierarchical-0:primary SFSymbolsPreviewWireframe" d="M143.418-76.808L143.418 6.348Q143.418 10.798 140.138 14.066Q136.859 17.334 132.393 17.334L23.4372 17.334Q18.9872 17.334 15.7192 14.066Q12.4512 10.798 12.4512 6.348L12.4512-76.808Q12.4512-81.274 15.7192-84.553Q18.9872-87.833 23.4372-87.833L132.393-87.833Q136.859-87.833 140.138-84.553Q143.418-81.274 143.418-76.808ZM23.4372-59.656L132.393-59.656L132.393-76.808Q132.393-76.808 132.393-76.808Q132.393-76.808 132.393-76.808L23.4372-76.808Q23.4372-76.808 23.4372-76.808Q23.4372-76.808 23.4372-76.808L23.4372-59.656ZM23.4372-38.855L23.4372 6.348Q23.4372 6.348 23.4372 6.348Q23.4372 6.348 23.4372 6.348L132.393 6.348Q132.393 6.348 132.393 6.348Q132.393 6.348 132.393 6.348L132.393-38.855L23.4372-38.855Z"/>
  </g>
  <g id="Regular-L" transform="matrix(1 0 0 1 1372.89 1556)">
   <path class="monochrome-0 multicolor-0:tintColor hierarchical-0:primary SFSymbolsPreviewWireframe" d="M141.451-77.155L141.451 6.695Q141.451 10.565 138.549 13.468Q135.646 16.37 131.776 16.37L22.1262 16.37Q18.2562 16.37 15.3542 13.468Q12.4512 10.565 12.4512 6.695L12.4512-77.155Q12.4512-81.025 15.3542-83.927Q18.2562-86.83 22.1262-86.83L131.776-86.83Q135.646-86.83 138.549-83.927Q141.451-81.025 141.451-77.155ZM22.1262-59.579L131.776-59.579L131.776-77.155Q131.776-77.155 131.776-77.155Q131.776-77.155 131.776-77.155L22.1262-77.155Q22.1262-77.155 22.1262-77.155Q22.1262-77.155 22.1262-77.155L22.1262-59.579ZM22.1262-38.777L22.1262 6.695Q22.1262 6.695 22.1262 6.695Q22.1262 6.695 22.1262 6.695L131.776 6.695Q131.776 6.695 131.776 6.695Q131.776 6.695 131.776 6.695L131.776-38.777L22.1262-38.777Z"/>
  </g>
  <g id="Light-L" transform="matrix(1 0 0 1 1079.41 1556)">
   <path class="monochrome-0 multicolor-0:tintColor hierarchical-0:primary SFSymbolsPreviewWireframe" d="M135.001-74.302L135.001 3.842Q135.001 7.636 132.246 10.39Q129.492 13.145 125.698 13.145L21.7542 13.145Q17.9602 13.145 15.2062 10.39Q12.4512 7.636 12.4512 3.842L12.4512-74.302Q12.4512-78.096 15.2062-80.85Q17.9602-83.605 21.7542-83.605L125.698-83.605Q129.492-83.605 132.246-80.85Q135.001-78.096 135.001-74.302ZM19.7692-57.346L127.683-57.346L127.683-74.302Q127.683-75.046 127.063-75.667Q126.442-76.287 125.698-76.287L21.7542-76.287Q21.0102-76.287 20.3892-75.667Q19.7692-75.046 19.7692-74.302L19.7692-57.346ZM19.7692-40.452L19.7692 3.842Q19.7692 4.586 20.3892 5.207Q21.0102 5.827 21.7542 5.827L125.698 5.827Q126.442 5.827 127.063 5.207Q127.683 4.586 127.683 3.842L127.683-40.452L19.7692-40.452Z"/>
  </g>
  <g id="Thin-L" transform="matrix(1 0 0 1 785.921 1556)">
   <path class="monochrome-0 multicolor-0:tintColor hierarchical-0:primary SFSymbolsPreviewWireframe" d="M128.551-71.449L128.551 0.989Q128.551 4.707 125.945 7.314Q123.338 9.92 119.62 9.92L21.3822 9.92Q17.6642 9.92 15.0572 7.314Q12.4512 4.707 12.4512 0.989L12.4512-71.449Q12.4512-75.167 15.0572-77.774Q17.6642-80.38 21.3822-80.38L119.62-80.38Q123.338-80.38 125.945-77.774Q128.551-75.167 128.551-71.449ZM17.4132-55.113L123.589-55.113L123.589-71.449Q123.589-72.938 122.349-74.178Q121.109-75.418 119.62-75.418L21.3822-75.418Q19.8932-75.418 18.6532-74.178Q17.4132-72.938 17.4132-71.449L17.4132-55.113ZM17.4132-42.127L17.4132 0.989Q17.4132 2.478 18.6532 3.718Q19.8932 4.958 21.3822 4.958L119.62 4.958Q121.109 4.958 122.349 3.718Q123.589 2.478 123.589 0.989L123.589-42.127L17.4132-42.127Z"/>
  </g>
  <g id="Ultralight-L" transform="matrix(1 0 0 1 491.145 1556)">
   <path class="monochrome-0 multicolor-0:tintColor hierarchical-0:primary SFSymbolsPreviewWireframe" d="M124.681-69.737L124.681-0.722Q124.681 2.95 122.164 5.467Q119.646 7.985 115.974 7.985L21.1582 7.985Q17.4862 7.985 14.9692 5.467Q12.4512 2.95 12.4512-0.722L12.4512-69.737Q12.4512-73.41 14.9692-75.928Q17.4862-78.445 21.1582-78.445L115.974-78.445Q119.646-78.445 122.164-75.928Q124.681-73.41 124.681-69.737ZM15.9982-53.774L121.134-53.774L121.134-69.737Q121.134-71.672 119.521-73.285Q117.909-74.897 115.974-74.897L21.1582-74.897Q19.2242-74.897 17.6112-73.285Q15.9982-71.672 15.9982-69.737L15.9982-53.774ZM15.9982-43.131L15.9982-0.722Q15.9982 1.213 17.6112 2.825Q19.2242 4.438 21.1582 4.438L115.974 4.438Q117.909 4.438 119.521 2.825Q121.134 1.213 121.134-0.722L121.134-43.131L15.9982-43.131Z"/>
  </g>
  <g id="Bold-M" transform="matrix(1 0 0 1 2273.28 1126)">
   <path class="monochrome-0 multicolor-0:tintColor hierarchical-0:primary SFSymbolsPreviewWireframe" d="M120.951-63.73L120.951-6.73Q120.951-0.105 116.389 4.458Q111.826 9.02 105.201 9.02L28.2012 9.02Q21.5762 9.02 17.0132 4.458Q12.4512-0.105 12.4512-6.73L12.4512-63.73Q12.4512-70.355 17.0132-74.917Q21.5762-79.48 28.2012-79.48L105.201-79.48Q111.826-79.48 116.389-74.917Q120.951-70.355 120.951-63.73ZM28.2012-55.605L105.201-55.605L105.201-63.73Q105.201-63.73 105.201-63.73Q105.201-63.73 105.201-63.73L28.2012-63.73Q28.2012-63.73 28.2012-63.73Q28.2012-63.73 28.2012-63.73L28.2012-55.605ZM28.2012-35.605L28.2012-6.73Q28.2012-6.73 28.2012-6.73Q28.2012-6.73 28.2012-6.73L105.201-6.73Q105.201-6.73 105.201-6.73Q105.201-6.73 105.201-6.73L105.201-35.605L28.2012-35.605Z"/>
  </g>
  <g id="Semibold-M" transform="matrix(1 0 0 1 1978.41 1126)">
   <path class="monochrome-0 multicolor-0:tintColor hierarchical-0:primary SFSymbolsPreviewWireframe" d="M117.255-64.382L117.255-6.078Q117.255-0.54 113.399 3.316Q109.543 7.172 104.005 7.172L25.7012 7.172Q20.1632 7.172 16.3072 3.316Q12.4512-0.54 12.4512-6.078L12.4512-64.382Q12.4512-69.92 16.3072-73.776Q20.1632-77.632 25.7012-77.632L104.005-77.632Q109.543-77.632 113.399-73.776Q117.255-69.92 117.255-64.382ZM25.7012-55.442L104.005-55.442L104.005-64.382Q104.005-64.382 104.005-64.382Q104.005-64.382 104.005-64.382L25.7012-64.382Q25.7012-64.382 25.7012-64.382Q25.7012-64.382 25.7012-64.382L25.7012-55.442ZM25.7012-35.442L25.7012-6.078Q25.7012-6.078 25.7012-6.078Q25.7012-6.078 25.7012-6.078L104.005-6.078Q104.005-6.078 104.005-6.078Q104.005-6.078 104.005-6.078L104.005-35.442L25.7012-35.442Z"/>
  </g>
  <g id="Medium-M" transform="matrix(1 0 0 1 1683.09 1126)">
   <path class="monochrome-0 multicolor-0:tintColor hierarchical-0:primary SFSymbolsPreviewWireframe" d="M114.483-64.871L114.483-5.589Q114.483-0.866 111.157 2.46Q107.831 5.786 103.108 5.786L23.8262 5.786Q19.1032 5.786 15.7772 2.46Q12.4512-0.866 12.4512-5.589L12.4512-64.871Q12.4512-69.594 15.7772-72.92Q19.1032-76.246 23.8262-76.246L103.108-76.246Q107.831-76.246 111.157-72.92Q114.483-69.594 114.483-64.871ZM23.8262-55.32L103.108-55.32L103.108-64.871Q103.108-64.871 103.108-64.871Q103.108-64.871 103.108-64.871L23.8262-64.871Q23.8262-64.871 23.8262-64.871Q23.8262-64.871 23.8262-64.871L23.8262-55.32ZM23.8262-35.32L23.8262-5.589Q23.8262-5.589 23.8262-5.589Q23.8262-5.589 23.8262-5.589L103.108-5.589Q103.108-5.589 103.108-5.589Q103.108-5.589 103.108-5.589L103.108-35.32L23.8262-35.32Z"/>
  </g>
  <g id="Regular-M" transform="matrix(1 0 0 1 1387.39 1126)">
   <path class="monochrome-0 multicolor-0:tintColor hierarchical-0:primary SFSymbolsPreviewWireframe" d="M112.451-65.23L112.451-5.23Q112.451-1.105 109.513 1.833Q106.576 4.77 102.451 4.77L22.4512 4.77Q18.3262 4.77 15.3892 1.833Q12.4512-1.105 12.4512-5.23L12.4512-65.23Q12.4512-69.355 15.3892-72.292Q18.3262-75.23 22.4512-75.23L102.451-75.23Q106.576-75.23 109.513-72.292Q112.451-69.355 112.451-65.23ZM22.4512-55.23L102.451-55.23L102.451-65.23Q102.451-65.23 102.451-65.23Q102.451-65.23 102.451-65.23L22.4512-65.23Q22.4512-65.23 22.4512-65.23Q22.4512-65.23 22.4512-65.23L22.4512-55.23ZM22.4512-35.23L22.4512-5.23Q22.4512-5.23 22.4512-5.23Q22.4512-5.23 22.4512-5.23L102.451-5.23Q102.451-5.23 102.451-5.23Q102.451-5.23 102.451-5.23L102.451-35.23L22.4512-35.23Z"/>
  </g>
  <g id="Light-M" transform="matrix(1 0 0 1 1093.18 1126)">
   <path class="monochrome-0 multicolor-0:tintColor hierarchical-0:primary SFSymbolsPreviewWireframe" d="M107.451-63.691L107.451-6.769Q107.451-2.98 104.826-0.355Q102.201 2.27 98.4122 2.27L21.4902 2.27Q17.7012 2.27 15.0762-0.355Q12.4512-2.98 12.4512-6.769L12.4512-63.691Q12.4512-67.48 15.0762-70.105Q17.7012-72.73 21.4902-72.73L98.4122-72.73Q102.201-72.73 104.826-70.105Q107.451-67.48 107.451-63.691ZM19.9512-53.211L99.9512-53.211L99.9512-63.691Q99.9512-64.268 99.4702-64.749Q98.9892-65.23 98.4122-65.23L21.4902-65.23Q20.9132-65.23 20.4322-64.749Q19.9512-64.268 19.9512-63.691L19.9512-53.211ZM19.9512-37.249L19.9512-6.769Q19.9512-6.192 20.4322-5.711Q20.9132-5.23 21.4902-5.23L98.4122-5.23Q98.9892-5.23 99.4702-5.711Q99.9512-6.192 99.9512-6.769L99.9512-37.249L19.9512-37.249Z"/>
  </g>
  <g id="Thin-M" transform="matrix(1 0 0 1 798.971 1126)">
   <path class="monochrome-0 multicolor-0:tintColor hierarchical-0:primary SFSymbolsPreviewWireframe" d="M102.451-62.153L102.451-8.307Q102.451-4.855 100.139-2.542Q97.8262-0.23 94.3742-0.23L20.5282-0.23Q17.0762-0.23 14.7632-2.542Q12.4512-4.855 12.4512-8.307L12.4512-62.153Q12.4512-65.605 14.7632-67.917Q17.0762-70.23 20.5282-70.23L94.3742-70.23Q97.8262-70.23 100.139-67.917Q102.451-65.605 102.451-62.153ZM17.4512-51.192L97.4512-51.192L97.4512-62.153Q97.4512-63.307 96.4892-64.268Q95.5282-65.23 94.3742-65.23L20.5282-65.23Q19.3742-65.23 18.4132-64.268Q17.4512-63.307 17.4512-62.153L17.4512-51.192ZM17.4512-39.268L17.4512-8.307Q17.4512-7.153 18.4132-6.191Q19.3742-5.23 20.5282-5.23L94.3742-5.23Q95.5282-5.23 96.4892-6.191Q97.4512-7.153 97.4512-8.307L97.4512-39.268L17.4512-39.268Z"/>
  </g>
  <g id="Ultralight-M" transform="matrix(1 0 0 1 503.76 1126)">
   <path class="monochrome-0 multicolor-0:tintColor hierarchical-0:primary SFSymbolsPreviewWireframe" d="M99.4512-61.23L99.4512-9.23Q99.4512-5.98 97.3262-3.855Q95.2012-1.73 91.9512-1.73L19.9512-1.73Q16.7012-1.73 14.5762-3.855Q12.4512-5.98 12.4512-9.23L12.4512-61.23Q12.4512-64.48 14.5762-66.605Q16.7012-68.73 19.9512-68.73L91.9512-68.73Q95.2012-68.73 97.3262-66.605Q99.4512-64.48 99.4512-61.23ZM15.9512-49.98L95.9512-49.98L95.9512-61.23Q95.9512-62.73 94.7012-63.98Q93.4512-65.23 91.9512-65.23L19.9512-65.23Q18.4512-65.23 17.2012-63.98Q15.9512-62.73 15.9512-61.23L15.9512-49.98ZM15.9512-40.48L15.9512-9.23Q15.9512-7.73 17.2012-6.48Q18.4512-5.23 19.9512-5.23L91.9512-5.23Q93.4512-5.23 94.7012-6.48Q95.9512-7.73 95.9512-9.23L95.9512-40.48L15.9512-40.48Z"/>
  </g>
  <g id="Bold-S" transform="matrix(1 0 0 1 2286.3 696)">
   <path class="monochrome-0 multicolor-0:tintColor hierarchical-0:primary SFSymbolsPreviewWireframe" d="M94.9012-55.349L94.9012-15.11Q94.9012-10.278 91.5332-6.875Q88.1652-3.473 83.2642-3.473L24.0892-3.473Q19.2562-3.473 15.8532-6.875Q12.4512-10.278 12.4512-15.11L12.4512-55.349Q12.4512-60.182 15.8532-63.585Q19.2562-66.987 24.0892-66.987L83.2642-66.987Q88.1652-66.987 91.5332-63.585Q94.9012-60.182 94.9012-55.349ZM24.0892-49.728L83.2642-49.728L83.2642-55.349Q83.2642-55.349 83.2642-55.349Q83.2642-55.349 83.2642-55.349L24.0892-55.349Q24.0892-55.349 24.0892-55.349Q24.0892-55.349 24.0892-55.349L24.0892-49.728ZM24.0892-35.526L24.0892-15.11Q24.0892-15.11 24.0892-15.11Q24.0892-15.11 24.0892-15.11L83.2642-15.11Q83.2642-15.11 83.2642-15.11Q83.2642-15.11 83.2642-15.11L83.2642-35.526L24.0892-35.526Z"/>
  </g>
  <g id="Semibold-S" transform="matrix(1 0 0 1 1991.05 696)">
   <path class="monochrome-0 multicolor-0:tintColor hierarchical-0:primary SFSymbolsPreviewWireframe" d="M91.9852-55.864L91.9852-14.596Q91.9852-10.621 89.1752-7.776Q86.3642-4.931 82.3202-4.931L22.1162-4.931Q18.1412-4.931 15.2962-7.776Q12.4512-10.621 12.4512-14.596L12.4512-55.864Q12.4512-59.839 15.2962-62.684Q18.1412-65.529 22.1162-65.529L82.3202-65.529Q86.3642-65.529 89.1752-62.684Q91.9852-59.839 91.9852-55.864ZM22.1162-49.599L82.3202-49.599L82.3202-55.864Q82.3202-55.864 82.3202-55.864Q82.3202-55.864 82.3202-55.864L22.1162-55.864Q22.1162-55.864 22.1162-55.864Q22.1162-55.864 22.1162-55.864L22.1162-49.599ZM22.1162-35.397L22.1162-14.596Q22.1162-14.596 22.1162-14.596Q22.1162-14.596 22.1162-14.596L82.3202-14.596Q82.3202-14.596 82.3202-14.596Q82.3202-14.596 82.3202-14.596L82.3202-35.397L22.1162-35.397Z"/>
  </g>
  <g id="Medium-S" transform="matrix(1 0 0 1 1695.43 696)">
   <path class="monochrome-0 multicolor-0:tintColor hierarchical-0:primary SFSymbolsPreviewWireframe" d="M89.7992-56.25L89.7992-14.21Q89.7992-10.878 87.4062-8.451Q85.0142-6.024 81.6132-6.024L20.6372-6.024Q17.3052-6.024 14.8782-8.451Q12.4512-10.878 12.4512-14.21L12.4512-56.25Q12.4512-59.582 14.8782-62.009Q17.3052-64.436 20.6372-64.436L81.6132-64.436Q85.0142-64.436 87.4062-62.009Q89.7992-59.582 89.7992-56.25ZM20.6372-49.503L81.6132-49.503L81.6132-56.25Q81.6132-56.25 81.6132-56.25Q81.6132-56.25 81.6132-56.25L20.6372-56.25Q20.6372-56.25 20.6372-56.25Q20.6372-56.25 20.6372-56.25L20.6372-49.503ZM20.6372-35.301L20.6372-14.21Q20.6372-14.21 20.6372-14.21Q20.6372-14.21 20.6372-14.21L81.6132-14.21Q81.6132-14.21 81.6132-14.21Q81.6132-14.21 81.6132-14.21L81.6132-35.301L20.6372-35.301Z"/>
  </g>
  <g id="Regular-S" transform="matrix(1 0 0 1 1399.52 696)">
   <path class="monochrome-0 multicolor-0:tintColor hierarchical-0:primary SFSymbolsPreviewWireframe" d="M88.1952-56.533L88.1952-13.927Q88.1952-11.067 86.1092-8.946Q84.0232-6.826 81.0942-6.826L19.5522-6.826Q16.6922-6.826 14.5712-8.946Q12.4512-11.067 12.4512-13.927L12.4512-56.533Q12.4512-59.393 14.5712-61.514Q16.6922-63.634 19.5522-63.634L81.0942-63.634Q84.0232-63.634 86.1092-61.514Q88.1952-59.393 88.1952-56.533ZM19.5522-49.432L81.0942-49.432L81.0942-56.533Q81.0942-56.533 81.0942-56.533Q81.0942-56.533 81.0942-56.533L19.5522-56.533Q19.5522-56.533 19.5522-56.533Q19.5522-56.533 19.5522-56.533L19.5522-49.432ZM19.5522-35.23L19.5522-13.927Q19.5522-13.927 19.5522-13.927Q19.5522-13.927 19.5522-13.927L81.0942-13.927Q81.0942-13.927 81.0942-13.927Q81.0942-13.927 81.0942-13.927L81.0942-35.23L19.5522-35.23Z"/>
  </g>
  <g id="Light-S" transform="matrix(1 0 0 1 1104.78 696)">
   <path class="monochrome-0 multicolor-0:tintColor hierarchical-0:primary SFSymbolsPreviewWireframe" d="M84.2492-55.319L84.2492-15.141Q84.2492-12.546 82.4102-10.672Q80.5712-8.799 77.9072-8.799L18.7932-8.799Q16.1982-8.799 14.3242-10.672Q12.4512-12.546 12.4512-15.141L12.4512-55.319Q12.4512-57.914 14.3242-59.788Q16.1982-61.661 18.7932-61.661L77.9072-61.661Q80.5712-61.661 82.4102-59.788Q84.2492-57.914 84.2492-55.319ZM17.5792-47.839L79.1212-47.839L79.1212-55.319Q79.1212-55.774 78.7422-56.154Q78.3622-56.533 77.9072-56.533L18.7932-56.533Q18.3382-56.533 17.9582-56.154Q17.5792-55.774 17.5792-55.319L17.5792-47.839ZM17.5792-36.823L17.5792-15.141Q17.5792-14.686 17.9582-14.306Q18.3382-13.927 18.7932-13.927L77.9072-13.927Q78.3622-13.927 78.7422-14.306Q79.1212-14.686 79.1212-15.141L79.1212-36.823L17.5792-36.823Z"/>
  </g>
  <g id="Thin-S" transform="matrix(1 0 0 1 810.044 696)">
   <path class="monochrome-0 multicolor-0:tintColor hierarchical-0:primary SFSymbolsPreviewWireframe" d="M80.3052-54.105L80.3052-16.355Q80.3052-14.026 78.7122-12.398Q77.1192-10.771 74.7212-10.771L18.0352-10.771Q15.7062-10.771 14.0782-12.398Q12.4512-14.026 12.4512-16.355L12.4512-54.105Q12.4512-56.434 14.0782-58.062Q15.7062-59.689 18.0352-59.689L74.7212-59.689Q77.1192-59.689 78.7122-58.062Q80.3052-56.434 80.3052-54.105ZM15.6072-46.246L77.1492-46.246L77.1492-54.105Q77.1492-55.016 76.3902-55.774Q75.6322-56.533 74.7212-56.533L18.0352-56.533Q17.1242-56.533 16.3662-55.774Q15.6072-55.016 15.6072-54.105L15.6072-46.246ZM15.6072-38.416L15.6072-16.355Q15.6072-15.444 16.3662-14.686Q17.1242-13.927 18.0352-13.927L74.7212-13.927Q75.6322-13.927 76.3902-14.686Q77.1492-15.444 77.1492-16.355L77.1492-38.416L15.6072-38.416Z"/>
  </g>
  <g id="Ultralight-S" transform="matrix(1 0 0 1 514.516 696)">
   <path class="monochrome-0 multicolor-0:tintColor hierarchical-0:primary SFSymbolsPreviewWireframe" d="M77.9382-53.377L77.9382-17.083Q77.9382-14.913 76.4932-13.434Q75.0482-11.954 72.8092-11.954L17.5792-11.954Q15.4092-11.954 13.9302-13.434Q12.4512-14.913 12.4512-17.083L12.4512-53.377Q12.4512-55.547 13.9302-57.026Q15.4092-58.505 17.5792-58.505L72.8092-58.505Q75.0482-58.505 76.4932-57.026Q77.9382-55.547 77.9382-53.377ZM14.4232-45.29L75.9652-45.29L75.9652-53.377Q75.9652-54.56 74.9792-55.547Q73.9932-56.533 72.8092-56.533L17.5792-56.533Q16.3952-56.533 15.4092-55.547Q14.4232-54.56 14.4232-53.377L14.4232-45.29ZM14.4232-39.372L14.4232-17.083Q14.4232-15.899 15.4092-14.913Q16.3952-13.927 17.5792-13.927L72.8092-13.927Q73.9932-13.927 74.9792-14.913Q75.9652-15.899 75.9652-17.083L75.9652-39.372L14.4232-39.372Z"/>
  </g>
 </g>
</svg>
