<?xml version="1.0" encoding="UTF-8"?>
<!--Generator: Apple Native CoreSVG 232.5-->
<!DOCTYPE svg
PUBLIC "-//W3C//DTD SVG 1.1//EN"
       "http://www.w3.org/Graphics/SVG/1.1/DTD/svg11.dtd">
<svg version="1.1" xmlns="http://www.w3.org/2000/svg" xmlns:xlink="http://www.w3.org/1999/xlink" width="3300" height="2200">
 <!--glyph: "", point size: 100.0, font version: "19.0d7e1", template writer version: "128"-->
 <style>.monochrome-0 {-sfsymbols-motion-group:0}

.multicolor-0:tintColor {-sfsymbols-motion-group:0}

.hierarchical-0:primary {-sfsymbols-motion-group:0}

.SFSymbolsPreviewWireframe {fill:none;opacity:1.0;stroke:black;stroke-width:0.5}
</style>
 <g id="Notes">
  <rect height="2200" id="artboard" style="fill:white;opacity:1" width="3300" x="0" y="0"/>
  <line style="fill:none;stroke:black;opacity:1;stroke-width:0.5;" x1="263" x2="3036" y1="292" y2="292"/>
  <text style="stroke:none;fill:black;font-family:sans-serif;font-size:13;font-weight:bold;" transform="matrix(1 0 0 1 263 322)">Weight/Scale Variations</text>
  <text style="stroke:none;fill:black;font-family:sans-serif;font-size:13;text-anchor:middle;" transform="matrix(1 0 0 1 559.711 322)">Ultralight</text>
  <text style="stroke:none;fill:black;font-family:sans-serif;font-size:13;text-anchor:middle;" transform="matrix(1 0 0 1 856.422 322)">Thin</text>
  <text style="stroke:none;fill:black;font-family:sans-serif;font-size:13;text-anchor:middle;" transform="matrix(1 0 0 1 1153.13 322)">Light</text>
  <text style="stroke:none;fill:black;font-family:sans-serif;font-size:13;text-anchor:middle;" transform="matrix(1 0 0 1 1449.84 322)">Regular</text>
  <text style="stroke:none;fill:black;font-family:sans-serif;font-size:13;text-anchor:middle;" transform="matrix(1 0 0 1 1746.56 322)">Medium</text>
  <text style="stroke:none;fill:black;font-family:sans-serif;font-size:13;text-anchor:middle;" transform="matrix(1 0 0 1 2043.27 322)">Semibold</text>
  <text style="stroke:none;fill:black;font-family:sans-serif;font-size:13;text-anchor:middle;" transform="matrix(1 0 0 1 2339.98 322)">Bold</text>
  <text style="stroke:none;fill:black;font-family:sans-serif;font-size:13;text-anchor:middle;" transform="matrix(1 0 0 1 2636.69 322)">Heavy</text>
  <text style="stroke:none;fill:black;font-family:sans-serif;font-size:13;text-anchor:middle;" transform="matrix(1 0 0 1 2933.4 322)">Black</text>
  <line style="fill:none;stroke:black;opacity:1;stroke-width:0.5;" x1="263" x2="3036" y1="1903" y2="1903"/>
  <g transform="matrix(0.2 0 0 0.2 263 1933)">
   <path d="m46.2402 4.15039c21.5332 0 39.4531-17.8711 39.4531-39.4043s-17.9688-39.4043-39.502-39.4043c-21.4844 0-39.3555 17.8711-39.3555 39.4043s17.9199 39.4043 39.4043 39.4043Zm0-7.42188c-17.7246 0-31.8848-14.209-31.8848-31.9824s14.1113-31.9824 31.8359-31.9824c17.7734 0 32.0312 14.209 32.0312 31.9824s-14.209 31.9824-31.9824 31.9824Zm-17.9688-31.9824c0 2.14844 1.51367 3.61328 3.75977 3.61328h10.498v10.5957c0 2.19727 1.46484 3.71094 3.61328 3.71094 2.24609 0 3.71094-1.51367 3.71094-3.71094v-10.5957h10.5957c2.19727 0 3.71094-1.46484 3.71094-3.61328 0-2.19727-1.51367-3.71094-3.71094-3.71094h-10.5957v-10.5469c0-2.24609-1.46484-3.75977-3.71094-3.75977-2.14844 0-3.61328 1.51367-3.61328 3.75977v10.5469h-10.498c-2.24609 0-3.75977 1.51367-3.75977 3.71094Z"/>
  </g>
  <g transform="matrix(0.2 0 0 0.2 281.506 1933)">
   <path d="m58.5449 14.5508c27.2461 0 49.8047-22.6074 49.8047-49.8047 0-27.2461-22.6074-49.8047-49.8535-49.8047-27.1973 0-49.7559 22.5586-49.7559 49.8047 0 27.1973 22.6074 49.8047 49.8047 49.8047Zm0-8.30078c-23.0469 0-41.4551-18.457-41.4551-41.5039s18.3594-41.5039 41.4062-41.5039 41.5527 18.457 41.5527 41.5039-18.457 41.5039-41.5039 41.5039Zm-22.6562-41.5039c0 2.39258 1.66016 4.00391 4.15039 4.00391h14.3555v14.4043c0 2.44141 1.66016 4.15039 4.05273 4.15039 2.44141 0 4.15039-1.66016 4.15039-4.15039v-14.4043h14.4043c2.44141 0 4.15039-1.61133 4.15039-4.00391 0-2.44141-1.70898-4.15039-4.15039-4.15039h-14.4043v-14.3555c0-2.49023-1.70898-4.19922-4.15039-4.19922-2.39258 0-4.05273 1.70898-4.05273 4.19922v14.3555h-14.3555c-2.49023 0-4.15039 1.70898-4.15039 4.15039Z"/>
  </g>
  <g transform="matrix(0.2 0 0 0.2 304.924 1933)">
   <path d="m74.8535 28.3203c34.8145 0 63.623-28.8086 63.623-63.5742 0-34.8145-28.8574-63.623-63.6719-63.623-34.7656 0-63.5254 28.8086-63.5254 63.623 0 34.7656 28.8086 63.5742 63.5742 63.5742Zm0-9.08203c-30.1758 0-54.4434-24.3164-54.4434-54.4922 0-30.2246 24.2188-54.4922 54.3945-54.4922 30.2246 0 54.541 24.2676 54.541 54.4922 0 30.1758-24.2676 54.4922-54.4922 54.4922Zm-28.8574-54.4922c0 2.58789 1.85547 4.39453 4.58984 4.39453h19.7266v19.7754c0 2.68555 1.85547 4.58984 4.44336 4.58984 2.68555 0 4.54102-1.85547 4.54102-4.58984v-19.7754h19.7754c2.68555 0 4.58984-1.80664 4.58984-4.39453 0-2.73438-1.85547-4.58984-4.58984-4.58984h-19.7754v-19.7266c0-2.73438-1.85547-4.63867-4.54102-4.63867-2.58789 0-4.44336 1.9043-4.44336 4.63867v19.7266h-19.7266c-2.73438 0-4.58984 1.85547-4.58984 4.58984Z"/>
  </g>
  <text style="stroke:none;fill:black;font-family:sans-serif;font-size:13;font-weight:bold;" transform="matrix(1 0 0 1 263 1953)">Design Variations</text>
  <text style="stroke:none;fill:black;font-family:sans-serif;font-size:13;" transform="matrix(1 0 0 1 263 1971)">Symbols are supported in up to nine weights and three scales.</text>
  <text style="stroke:none;fill:black;font-family:sans-serif;font-size:13;" transform="matrix(1 0 0 1 263 1989)">For optimal layout with text and other symbols, vertically align</text>
  <text style="stroke:none;fill:black;font-family:sans-serif;font-size:13;" transform="matrix(1 0 0 1 263 2007)">symbols with the adjacent text.</text>
  <line style="fill:none;stroke:#00AEEF;stroke-width:0.5;opacity:1.0;" x1="776" x2="776" y1="1919" y2="1933"/>
  <g transform="matrix(0.2 0 0 0.2 776 1933)">
   <path d="m16.5527 0.78125c2.58789 0 3.85742-0.976562 4.78516-3.71094l6.29883-17.2363h28.8086l6.29883 17.2363c0.927734 2.73438 2.19727 3.71094 4.73633 3.71094 2.58789 0 4.24805-1.5625 4.24805-4.00391 0-0.830078-0.146484-1.61133-0.537109-2.63672l-22.9004-60.9863c-1.12305-2.97852-3.125-4.49219-6.25-4.49219-3.02734 0-5.07812 1.46484-6.15234 4.44336l-22.9004 61.084c-0.390625 1.02539-0.537109 1.80664-0.537109 2.63672 0 2.44141 1.5625 3.95508 4.10156 3.95508Zm13.4766-28.3691 11.8652-32.8613h0.244141l11.8652 32.8613Z"/>
  </g>
  <line style="fill:none;stroke:#00AEEF;stroke-width:0.5;opacity:1.0;" x1="792.836" x2="792.836" y1="1919" y2="1933"/>
  <text style="stroke:none;fill:black;font-family:sans-serif;font-size:13;font-weight:bold;" transform="matrix(1 0 0 1 776 1953)">Margins</text>
  <text style="stroke:none;fill:black;font-family:sans-serif;font-size:13;" transform="matrix(1 0 0 1 776 1971)">Leading and trailing margins on the left and right side of each symbol</text>
  <text style="stroke:none;fill:black;font-family:sans-serif;font-size:13;" transform="matrix(1 0 0 1 776 1989)">can be adjusted by modifying the x-location of the margin guidelines.</text>
  <text style="stroke:none;fill:black;font-family:sans-serif;font-size:13;" transform="matrix(1 0 0 1 776 2007)">Modifications are automatically applied proportionally to all</text>
  <text style="stroke:none;fill:black;font-family:sans-serif;font-size:13;" transform="matrix(1 0 0 1 776 2025)">scales and weights.</text>
  <g transform="matrix(0.2 0 0 0.2 1289 1933)">
   <path d="m14.209 9.32617 8.49609 8.54492c4.29688 4.3457 9.22852 4.05273 13.8672-1.07422l53.4668-58.9355-4.83398-4.88281-53.0762 58.3984c-1.75781 2.00195-3.41797 2.49023-5.76172 0.146484l-5.85938-5.81055c-2.34375-2.29492-1.80664-4.00391 0.195312-5.81055l57.373-54.0039-4.88281-4.83398-57.959 54.4434c-4.93164 4.58984-5.32227 9.47266-1.02539 13.8184Zm32.0801-90.9668c-2.09961 2.05078-2.24609 4.93164-1.07422 6.88477 1.17188 1.80664 3.4668 2.97852 6.68945 2.14844 7.32422-1.70898 14.9414-2.00195 22.0703 2.68555l-2.92969 7.27539c-1.70898 4.15039-0.830078 7.08008 1.85547 9.81445l11.4746 11.5723c2.44141 2.44141 4.49219 2.53906 7.32422 2.05078l5.32227-0.976562 3.32031 3.36914-0.195312 2.7832c-0.195312 2.49023 0.439453 4.39453 2.88086 6.78711l3.80859 3.71094c2.39258 2.39258 5.46875 2.53906 7.8125 0.195312l14.5508-14.5996c2.34375-2.34375 2.24609-5.32227-0.146484-7.71484l-3.85742-3.80859c-2.39258-2.39258-4.24805-3.17383-6.64062-2.97852l-2.88086 0.244141-3.22266-3.17383 1.2207-5.61523c0.634766-2.83203-0.146484-5.0293-3.07617-7.95898l-10.9863-10.9375c-16.6992-16.6016-38.8672-16.2109-53.3203-1.75781Zm7.4707 1.85547c12.1582-8.88672 28.6133-7.37305 39.7461 3.75977l12.1582 12.0605c1.17188 1.17188 1.36719 2.09961 1.02539 3.80859l-1.61133 7.42188 7.51953 7.42188 4.93164-0.292969c1.26953-0.0488281 1.66016 0.0488281 2.63672 1.02539l2.88086 2.88086-12.207 12.207-2.88086-2.88086c-0.976562-0.976562-1.12305-1.36719-1.07422-2.68555l0.341797-4.88281-7.4707-7.42188-7.61719 1.26953c-1.61133 0.341797-2.34375 0.195312-3.56445-0.976562l-10.0098-10.0098c-1.26953-1.17188-1.41602-2.00195-0.634766-3.85742l4.39453-10.4492c-7.8125-7.27539-17.9688-10.4004-28.125-7.42188-0.78125 0.195312-1.07422-0.439453-0.439453-0.976562Z"/>
  </g>
  <text style="stroke:none;fill:black;font-family:sans-serif;font-size:13;font-weight:bold;" transform="matrix(1 0 0 1 1289 1953)">Exporting</text>
  <text style="stroke:none;fill:black;font-family:sans-serif;font-size:13;" transform="matrix(1 0 0 1 1289 1971)">Symbols should be outlined when exporting to ensure the</text>
  <text style="stroke:none;fill:black;font-family:sans-serif;font-size:13;" transform="matrix(1 0 0 1 1289 1989)">design is preserved when submitting to Xcode.</text>
  <text id="template-version" style="stroke:none;fill:black;font-family:sans-serif;font-size:13;text-anchor:end;" transform="matrix(1 0 0 1 3036 1933)">Template v.5.0</text>
  <text style="stroke:none;fill:black;font-family:sans-serif;font-size:13;text-anchor:end;" transform="matrix(1 0 0 1 3036 1951)">Requires Xcode 15 or greater</text>
  <text id="descriptive-name" style="stroke:none;fill:black;font-family:sans-serif;font-size:13;text-anchor:end;" transform="matrix(1 0 0 1 3036 1969)">Generated from dashboard</text>
  <text style="stroke:none;fill:black;font-family:sans-serif;font-size:13;text-anchor:end;" transform="matrix(1 0 0 1 3036 1987)">Typeset at 100.0 points</text>
  <text style="stroke:none;fill:black;font-family:sans-serif;font-size:13;" transform="matrix(1 0 0 1 263 726)">Small</text>
  <text style="stroke:none;fill:black;font-family:sans-serif;font-size:13;" transform="matrix(1 0 0 1 263 1156)">Medium</text>
  <text style="stroke:none;fill:black;font-family:sans-serif;font-size:13;" transform="matrix(1 0 0 1 263 1586)">Large</text>
 </g>
 <g id="Guides">
  <g id="H-reference" style="fill:#27AAE1;stroke:none;" transform="matrix(1 0 0 1 339 696)">
   <path d="M0.993654 0L3.63775 0L29.3281-67.1323L30.0303-67.1323L30.0303-70.459L28.1226-70.459ZM11.6885-24.4799L46.9815-24.4799L46.2315-26.7285L12.4385-26.7285ZM55.1196 0L57.7637 0L30.6382-70.459L29.4326-70.459L29.4326-67.1323Z"/>
  </g>
  <line id="Baseline-S" style="fill:none;stroke:#27AAE1;opacity:1;stroke-width:0.5;" x1="263" x2="3036" y1="696" y2="696"/>
  <line id="Capline-S" style="fill:none;stroke:#27AAE1;opacity:1;stroke-width:0.5;" x1="263" x2="3036" y1="625.541" y2="625.541"/>
  <g id="H-reference" style="fill:#27AAE1;stroke:none;" transform="matrix(1 0 0 1 339 1126)">
   <path d="M0.993654 0L3.63775 0L29.3281-67.1323L30.0303-67.1323L30.0303-70.459L28.1226-70.459ZM11.6885-24.4799L46.9815-24.4799L46.2315-26.7285L12.4385-26.7285ZM55.1196 0L57.7637 0L30.6382-70.459L29.4326-70.459L29.4326-67.1323Z"/>
  </g>
  <line id="Baseline-M" style="fill:none;stroke:#27AAE1;opacity:1;stroke-width:0.5;" x1="263" x2="3036" y1="1126" y2="1126"/>
  <line id="Capline-M" style="fill:none;stroke:#27AAE1;opacity:1;stroke-width:0.5;" x1="263" x2="3036" y1="1055.54" y2="1055.54"/>
  <g id="H-reference" style="fill:#27AAE1;stroke:none;" transform="matrix(1 0 0 1 339 1556)">
   <path d="M0.993654 0L3.63775 0L29.3281-67.1323L30.0303-67.1323L30.0303-70.459L28.1226-70.459ZM11.6885-24.4799L46.9815-24.4799L46.2315-26.7285L12.4385-26.7285ZM55.1196 0L57.7637 0L30.6382-70.459L29.4326-70.459L29.4326-67.1323Z"/>
  </g>
  <line id="Baseline-L" style="fill:none;stroke:#27AAE1;opacity:1;stroke-width:0.5;" x1="263" x2="3036" y1="1556" y2="1556"/>
  <line id="Capline-L" style="fill:none;stroke:#27AAE1;opacity:1;stroke-width:0.5;" x1="263" x2="3036" y1="1485.54" y2="1485.54"/>
  <line id="left-margin-Regular-M" style="fill:none;stroke:#00AEEF;stroke-width:0.5;opacity:1.0;" x1="1392.39" x2="1392.39" y1="1030.79" y2="1150.12"/>
  <line id="right-margin-Regular-M" style="fill:none;stroke:#00AEEF;stroke-width:0.5;opacity:1.0;" x1="1507.3" x2="1507.3" y1="1030.79" y2="1150.12"/>
 </g>
 <g id="Symbols">
  <g id="Bold-L" transform="matrix(1 0 0 1 2262.22 1556)">
   <path class="monochrome-0 multicolor-0:tintColor hierarchical-0:primary SFSymbolsPreviewWireframe" d="M81.6272-59.095L81.6272-92.957Q81.6272-96.142 83.8242-98.339Q86.0212-100.536 89.2062-100.536L135.484-100.536Q138.669-100.536 140.866-98.339Q143.063-96.142 143.063-92.957L143.063-59.095Q143.063-55.91 140.866-53.713Q138.669-51.516 135.484-51.516L89.2062-51.516Q86.0212-51.516 83.8242-53.713Q81.6272-55.91 81.6272-59.095ZM12.4512-34.907L12.4512-92.957Q12.4512-96.142 14.6482-98.339Q16.8452-100.536 20.0292-100.536L66.3082-100.536Q69.4932-100.536 71.6902-98.339Q73.8872-96.142 73.8872-92.957L73.8872-34.907Q73.8872-31.723 71.6902-29.526Q69.4932-27.329 66.3082-27.329L20.0292-27.329Q16.8452-27.329 14.6482-29.526Q12.4512-31.723 12.4512-34.907ZM81.6272 22.014L81.6272-36.036Q81.6272-39.221 83.8242-41.418Q86.0212-43.615 89.2062-43.615L135.484-43.615Q138.669-43.615 140.866-41.418Q143.063-39.221 143.063-36.036L143.063 22.014Q143.063 25.36 140.866 27.557Q138.669 29.754 135.484 29.754L89.2062 29.754Q86.0212 29.754 83.8242 27.557Q81.6272 25.36 81.6272 22.014ZM12.4512 22.014L12.4512-11.849Q12.4512-15.033 14.6482-17.23Q16.8452-19.427 20.0292-19.427L66.3082-19.427Q69.4932-19.427 71.6902-17.23Q73.8872-15.033 73.8872-11.849L73.8872 22.014Q73.8872 25.36 71.6902 27.557Q69.4932 29.754 66.3082 29.754L20.0292 29.754Q16.8452 29.754 14.6482 27.557Q12.4512 25.36 12.4512 22.014ZM27.7702-42.486L58.7302-42.486L58.7302-85.379L27.7702-85.379L27.7702-42.486ZM96.9462 14.435L127.906 14.435L127.906-28.296L96.9462-28.296L96.9462 14.435ZM96.9462-66.674L127.906-66.674L127.906-85.379L96.9462-85.379L96.9462-66.674ZM27.7702 14.435L58.7302 14.435L58.7302-4.109L27.7702-4.109L27.7702 14.435Z"/>
  </g>
  <g id="Semibold-L" transform="matrix(1 0 0 1 1968.66 1556)">
   <path class="monochrome-0 multicolor-0:tintColor hierarchical-0:primary SFSymbolsPreviewWireframe" d="M78.8942-57.132L78.8942-90.995Q78.8942-93.689 80.7402-95.535Q82.5872-97.382 85.2812-97.382L130.368-97.382Q133.062-97.382 134.908-95.535Q136.755-93.689 136.755-90.995L136.755-57.132Q136.755-54.438 134.908-52.592Q133.062-50.745 130.368-50.745L85.2812-50.745Q82.5872-50.745 80.7402-52.592Q78.8942-54.438 78.8942-57.132ZM12.4512-35.048L12.4512-90.995Q12.4512-93.689 14.2982-95.535Q16.1442-97.382 18.8382-97.382L63.9252-97.382Q66.6192-97.382 68.4662-95.535Q70.3122-93.689 70.3122-90.995L70.3122-35.048Q70.3122-32.354 68.4662-30.507Q66.6192-28.661 63.9252-28.661L18.8382-28.661Q16.1442-28.661 14.2982-30.507Q12.4512-32.354 12.4512-35.048ZM78.8942 20.261L78.8942-35.686Q78.8942-38.38 80.7402-40.226Q82.5872-42.073 85.2812-42.073L130.368-42.073Q133.062-42.073 134.908-40.226Q136.755-38.38 136.755-35.686L136.755 20.261Q136.755 23.046 134.908 24.893Q133.062 26.739 130.368 26.739L85.2812 26.739Q82.5872 26.739 80.7402 24.893Q78.8942 23.046 78.8942 20.261ZM12.4512 20.261L12.4512-13.601Q12.4512-16.295 14.2982-18.142Q16.1442-19.988 18.8382-19.988L63.9252-19.988Q66.6192-19.988 68.4662-18.142Q70.3122-16.295 70.3122-13.601L70.3122 20.261Q70.3122 23.046 68.4662 24.893Q66.6192 26.739 63.9252 26.739L18.8382 26.739Q16.1442 26.739 14.2982 24.893Q12.4512 23.046 12.4512 20.261ZM25.3172-41.435L57.5382-41.435L57.5382-84.608L25.3172-84.608L25.3172-41.435ZM91.7592 13.874L123.981 13.874L123.981-29.208L91.7592-29.208L91.7592 13.874ZM91.7592-63.519L123.981-63.519L123.981-84.608L91.7592-84.608L91.7592-63.519ZM25.3172 13.874L57.5382 13.874L57.5382-7.123L25.3172-7.123L25.3172 13.874Z"/>
  </g>
  <g id="Medium-L" transform="matrix(1 0 0 1 1674.32 1556)">
   <path class="monochrome-0 multicolor-0:tintColor hierarchical-0:primary SFSymbolsPreviewWireframe" d="M76.8422-55.66L76.8422-89.522Q76.8422-91.848 78.4262-93.432Q80.0092-95.015 82.3352-95.015L126.528-95.015Q128.854-95.015 130.438-93.432Q132.021-91.848 132.021-89.522L132.021-55.66Q132.021-53.334 130.438-51.75Q128.854-50.167 126.528-50.167L82.3352-50.167Q80.0092-50.167 78.4262-51.75Q76.8422-53.334 76.8422-55.66ZM12.4512-35.153L12.4512-89.522Q12.4512-91.848 14.0342-93.432Q15.6182-95.015 17.9442-95.015L62.1372-95.015Q64.4632-95.015 66.0462-93.432Q67.6302-91.848 67.6302-89.522L67.6302-35.153Q67.6302-32.827 66.0462-31.243Q64.4632-29.66 62.1372-29.66L17.9442-29.66Q15.6182-29.66 14.0342-31.243Q12.4512-32.827 12.4512-35.153ZM76.8422 18.946L76.8422-35.423Q76.8422-37.749 78.4262-39.332Q80.0092-40.916 82.3352-40.916L126.528-40.916Q128.854-40.916 130.438-39.332Q132.021-37.749 132.021-35.423L132.021 18.946Q132.021 21.311 130.438 22.894Q128.854 24.478 126.528 24.478L82.3352 24.478Q80.0092 24.478 78.4262 22.894Q76.8422 21.311 76.8422 18.946ZM12.4512 18.946L12.4512-14.916Q12.4512-17.242 14.0342-18.825Q15.6182-20.409 17.9442-20.409L62.1372-20.409Q64.4632-20.409 66.0462-18.825Q67.6302-17.242 67.6302-14.916L67.6302 18.946Q67.6302 21.311 66.0462 22.894Q64.4632 24.478 62.1372 24.478L17.9442 24.478Q15.6182 24.478 14.0342 22.894Q12.4512 21.311 12.4512 18.946ZM23.4752-40.646L56.6442-40.646L56.6442-84.029L23.4752-84.029L23.4752-40.646ZM87.8672 13.453L121.035 13.453L121.035-29.891L87.8672-29.891L87.8672 13.453ZM87.8672-61.153L121.035-61.153L121.035-84.029L87.8672-84.029L87.8672-61.153ZM23.4752 13.453L56.6442 13.453L56.6442-9.384L23.4752-9.384L23.4752 13.453Z"/>
  </g>
  <g id="Regular-L" transform="matrix(1 0 0 1 1379.34 1556)">
   <path class="monochrome-0 multicolor-0:tintColor hierarchical-0:primary SFSymbolsPreviewWireframe" d="M75.3382-54.58L75.3382-88.442Q75.3382-90.498 76.7292-91.889Q78.1202-93.28 80.1762-93.28L123.714-93.28Q125.769-93.28 127.16-91.889Q128.551-90.498 128.551-88.442L128.551-54.58Q128.551-52.524 127.16-51.133Q125.769-49.742 123.714-49.742L80.1762-49.742Q78.1202-49.742 76.7292-51.133Q75.3382-52.524 75.3382-54.58ZM12.4512-35.23L12.4512-88.442Q12.4512-90.498 13.8422-91.889Q15.2332-93.28 17.2892-93.28L60.8262-93.28Q62.8822-93.28 64.2732-91.889Q65.6632-90.498 65.6632-88.442L65.6632-35.23Q65.6632-33.174 64.2732-31.783Q62.8822-30.392 60.8262-30.392L17.2892-30.392Q15.2332-30.392 13.8422-31.783Q12.4512-33.174 12.4512-35.23ZM75.3382 17.983L75.3382-35.23Q75.3382-37.286 76.7292-38.677Q78.1202-40.067 80.1762-40.067L123.714-40.067Q125.769-40.067 127.16-38.677Q128.551-37.286 128.551-35.23L128.551 17.983Q128.551 20.038 127.16 21.429Q125.769 22.82 123.714 22.82L80.1762 22.82Q78.1202 22.82 76.7292 21.429Q75.3382 20.038 75.3382 17.983ZM12.4512 17.983L12.4512-15.88Q12.4512-17.936 13.8422-19.327Q15.2332-20.717 17.2892-20.717L60.8262-20.717Q62.8822-20.717 64.2732-19.327Q65.6632-17.936 65.6632-15.88L65.6632 17.983Q65.6632 20.038 64.2732 21.429Q62.8822 22.82 60.8262 22.82L17.2892 22.82Q15.2332 22.82 13.8422 21.429Q12.4512 20.038 12.4512 17.983ZM22.1262-40.067L55.9892-40.067L55.9892-83.605L22.1262-83.605L22.1262-40.067ZM85.0142 13.145L118.876 13.145L118.876-30.392L85.0142-30.392L85.0142 13.145ZM85.0142-59.417L118.876-59.417L118.876-83.605L85.0142-83.605L85.0142-59.417ZM22.1262 13.145L55.9892 13.145L55.9892-11.042L22.1262-11.042L22.1262 13.145Z"/>
  </g>
  <g id="Light-L" transform="matrix(1 0 0 1 1085.86 1556)">
   <path class="monochrome-0 multicolor-0:tintColor hierarchical-0:primary SFSymbolsPreviewWireframe" d="M74.1602-55.727L74.1602-85.373Q74.1602-87.396 75.5032-88.725Q76.8462-90.055 78.8312-90.055L117.457-90.055Q119.442-90.055 120.771-88.725Q122.101-87.396 122.101-85.373L122.101-55.727Q122.101-53.704 120.758-52.375Q119.415-51.045 117.431-51.045L78.8042-51.045Q76.8192-51.045 75.4902-52.375Q74.1602-53.704 74.1602-55.727ZM12.4512-37.81L12.4512-85.429Q12.4512-87.396 13.7942-88.725Q15.1372-90.055 17.1212-90.055L55.7482-90.055Q57.7332-90.055 59.0622-88.725Q60.3922-87.394 60.3922-85.428L60.3922-37.809Q60.3922-35.843 59.0492-34.513Q57.7062-33.184 55.7212-33.184L17.0952-33.184Q15.1102-33.184 13.7812-34.514Q12.4512-35.844 12.4512-37.81ZM74.1602 14.968L74.1602-32.651Q74.1602-34.617 75.5032-35.947Q76.8462-37.276 78.8312-37.276L117.457-37.276Q119.442-37.276 120.771-35.946Q122.101-34.616 122.101-32.65L122.101 14.969Q122.101 16.936 120.758 18.265Q119.415 19.595 117.431 19.595L78.8042 19.595Q76.8192 19.595 75.4902 18.265Q74.1602 16.934 74.1602 14.968ZM12.4512 14.913L12.4512-14.733Q12.4512-16.756 13.7942-18.085Q15.1372-19.415 17.1212-19.415L55.7482-19.415Q57.7332-19.415 59.0622-18.085Q60.3922-16.756 60.3922-14.733L60.3922 14.913Q60.3922 16.936 59.0492 18.265Q57.7062 19.595 55.7212 19.595L17.0952 19.595Q15.1102 19.595 13.7812 18.265Q12.4512 16.936 12.4512 14.913ZM19.7692-40.502L53.0742-40.502L53.0742-82.737L19.7692-82.737L19.7692-40.502ZM81.4782 12.277L114.783 12.277L114.783-29.958L81.4782-29.958L81.4782 12.277ZM81.4782-58.363L114.783-58.363L114.783-82.737L81.4782-82.737L81.4782-58.363ZM19.7692 12.277L53.0742 12.277L53.0742-12.097L19.7692-12.097L19.7692 12.277Z"/>
  </g>
  <g id="Thin-L" transform="matrix(1 0 0 1 792.371 1556)">
   <path class="monochrome-0 multicolor-0:tintColor hierarchical-0:primary SFSymbolsPreviewWireframe" d="M72.9822-56.874L72.9822-82.303Q72.9822-84.293 74.2762-85.562Q75.5712-86.83 77.4852-86.83L111.201-86.83Q113.114-86.83 114.383-85.562Q115.651-84.293 115.651-82.303L115.651-56.874Q115.651-54.884 114.356-53.616Q113.062-52.347 111.148-52.347L77.4322-52.347Q75.5182-52.347 74.2502-53.616Q72.9822-54.884 72.9822-56.874ZM12.4512-40.39L12.4512-82.417Q12.4512-84.293 13.7462-85.562Q15.0402-86.83 16.9542-86.83L50.6702-86.83Q52.5842-86.83 53.8522-85.56Q55.1202-84.291 55.1202-82.414L55.1202-40.388Q55.1202-38.511 53.8262-37.243Q52.5312-35.974 50.6172-35.974L16.9012-35.974Q14.9882-35.974 13.7192-37.244Q12.4512-38.513 12.4512-40.39ZM72.9822 11.954L72.9822-30.072Q72.9822-31.949 74.2762-33.217Q75.5712-34.486 77.4852-34.486L111.201-34.486Q113.114-34.486 114.383-33.216Q115.651-31.947 115.651-30.07L115.651 11.957Q115.651 13.833 114.356 15.102Q113.062 16.37 111.148 16.37L77.4322 16.37Q75.5182 16.37 74.2502 15.1Q72.9822 13.831 72.9822 11.954ZM12.4512 11.843L12.4512-13.586Q12.4512-15.576 13.7462-16.844Q15.0402-18.113 16.9542-18.113L50.6702-18.113Q52.5842-18.113 53.8522-16.844Q55.1202-15.576 55.1202-13.586L55.1202 11.843Q55.1202 13.833 53.8262 15.102Q52.5312 16.37 50.6172 16.37L16.9012 16.37Q14.9882 16.37 13.7192 15.102Q12.4512 13.833 12.4512 11.843ZM17.4132-40.936L50.1592-40.936L50.1592-81.868L17.4132-81.868L17.4132-40.936ZM77.9432 11.408L110.689 11.408L110.689-29.524L77.9432-29.524L77.9432 11.408ZM77.9432-57.309L110.689-57.309L110.689-81.868L77.9432-81.868L77.9432-57.309ZM17.4132 11.408L50.1592 11.408L50.1592-13.151L17.4132-13.151L17.4132 11.408Z"/>
  </g>
  <g id="Ultralight-L" transform="matrix(1 0 0 1 497.595 1556)">
   <path class="monochrome-0 multicolor-0:tintColor hierarchical-0:primary SFSymbolsPreviewWireframe" d="M72.2752-57.562L72.2752-80.461Q72.2752-82.432 73.5412-83.663Q74.8062-84.895 76.6772-84.895L107.447-84.895Q109.318-84.895 110.549-83.663Q111.781-82.432 111.781-80.461L111.781-57.562Q111.781-55.592 110.515-54.36Q109.25-53.129 107.378-53.129L76.6092-53.129Q74.7382-53.129 73.5062-54.36Q72.2752-55.592 72.2752-57.562ZM12.4512-41.938L12.4512-80.609Q12.4512-82.432 13.7172-83.663Q14.9822-84.895 16.8542-84.895L47.6232-84.895Q49.4942-84.895 50.7262-83.662Q51.9572-82.429 51.9572-80.605L51.9572-41.935Q51.9572-40.112 50.6912-38.88Q49.4262-37.649 47.5552-37.649L16.7852-37.649Q14.9142-37.649 13.6822-38.882Q12.4512-40.115 12.4512-41.938ZM72.2752 10.145L72.2752-28.525Q72.2752-30.348 73.5412-31.58Q74.8062-32.811 76.6772-32.811L107.447-32.811Q109.318-32.811 110.549-31.578Q111.781-30.345 111.781-28.522L111.781 10.149Q111.781 11.972 110.515 13.204Q109.25 14.435 107.378 14.435L76.6092 14.435Q74.7382 14.435 73.5062 13.202Q72.2752 11.969 72.2752 10.145ZM12.4512 10.001L12.4512-12.898Q12.4512-14.868 13.7172-16.1Q14.9822-17.331 16.8542-17.331L47.6232-17.331Q49.4942-17.331 50.7262-16.1Q51.9572-14.868 51.9572-12.898L51.9572 10.001Q51.9572 11.972 50.6912 13.204Q49.4262 14.435 47.5552 14.435L16.7852 14.435Q14.9142 14.435 13.6822 13.204Q12.4512 11.972 12.4512 10.001ZM15.9992-41.196L48.4102-41.196L48.4102-81.347L15.9992-81.347L15.9992-41.196ZM75.8222 10.888L108.233 10.888L108.233-29.264L75.8222-29.264L75.8222 10.888ZM75.8222-56.676L108.233-56.676L108.233-81.347L75.8222-81.347L75.8222-56.676ZM15.9992 10.888L48.4102 10.888L48.4102-13.784L15.9992-13.784L15.9992 10.888Z"/>
  </g>
  <g id="Bold-M" transform="matrix(1 0 0 1 2275.03 1126)">
   <path class="monochrome-0 multicolor-0:tintColor hierarchical-0:primary SFSymbolsPreviewWireframe" d="M68.9512-59.855L68.9512-79.855Q68.9512-83.105 71.2632-85.417Q73.5762-87.73 76.8262-87.73L109.576-87.73Q112.826-87.73 115.139-85.417Q117.451-83.105 117.451-79.855L117.451-59.855Q117.451-56.605 115.139-54.292Q112.826-51.98 109.576-51.98L76.8262-51.98Q73.5762-51.98 71.2632-54.292Q68.9512-56.605 68.9512-59.855ZM12.4512-34.855L12.4512-79.855Q12.4512-83.105 14.7632-85.417Q17.0762-87.73 20.3262-87.73L53.0762-87.73Q56.3262-87.73 58.6392-85.417Q60.9512-83.105 60.9512-79.855L60.9512-34.855Q60.9512-31.605 58.6392-29.292Q56.3262-26.98 53.0762-26.98L20.3262-26.98Q17.0762-26.98 14.7632-29.292Q12.4512-31.605 12.4512-34.855ZM68.9512 9.02L68.9512-35.98Q68.9512-39.23 71.2632-41.542Q73.5762-43.855 76.8262-43.855L109.576-43.855Q112.826-43.855 115.139-41.542Q117.451-39.23 117.451-35.98L117.451 9.02Q117.451 12.27 115.139 14.583Q112.826 16.895 109.576 16.895L76.8262 16.895Q73.5762 16.895 71.2632 14.583Q68.9512 12.27 68.9512 9.02ZM12.4512 9.02L12.4512-10.98Q12.4512-14.23 14.7632-16.542Q17.0762-18.855 20.3262-18.855L53.0762-18.855Q56.3262-18.855 58.6392-16.542Q60.9512-14.23 60.9512-10.98L60.9512 9.02Q60.9512 12.27 58.6392 14.583Q56.3262 16.895 53.0762 16.895L20.3262 16.895Q17.0762 16.895 14.7632 14.583Q12.4512 12.27 12.4512 9.02ZM28.2012-42.73L45.2012-42.73L45.2012-71.98L28.2012-71.98L28.2012-42.73ZM84.7012 1.145L101.701 1.145L101.701-28.105L84.7012-28.105L84.7012 1.145ZM84.7012-67.73L101.701-67.73L101.701-71.98L84.7012-71.98L84.7012-67.73ZM28.2012 1.145L45.2012 1.145L45.2012-3.105L28.2012-3.105L28.2012 1.145Z"/>
  </g>
  <g id="Semibold-M" transform="matrix(1 0 0 1 1981.58 1126)">
   <path class="monochrome-0 multicolor-0:tintColor hierarchical-0:primary SFSymbolsPreviewWireframe" d="M66.1252-57.844L66.1252-77.844Q66.1252-80.605 68.0572-82.537Q69.9892-84.469 72.7502-84.469L104.304-84.469Q107.065-84.469 108.997-82.537Q110.929-80.605 110.929-77.844L110.929-57.844Q110.929-55.083 108.997-53.151Q107.065-51.219 104.304-51.219L72.7502-51.219Q69.9892-51.219 68.0572-53.151Q66.1252-55.083 66.1252-57.844ZM12.4512-35.018L12.4512-77.844Q12.4512-80.605 14.3832-82.537Q16.3152-84.469 19.0762-84.469L50.6302-84.469Q53.3912-84.469 55.3232-82.537Q57.2552-80.605 57.2552-77.844L57.2552-35.018Q57.2552-32.257 55.3232-30.325Q53.3912-28.393 50.6302-28.393L19.0762-28.393Q16.3152-28.393 14.3832-30.325Q12.4512-32.257 12.4512-35.018ZM66.1252 7.172L66.1252-35.654Q66.1252-38.415 68.0572-40.347Q69.9892-42.279 72.7502-42.279L104.304-42.279Q107.065-42.279 108.997-40.347Q110.929-38.415 110.929-35.654L110.929 7.172Q110.929 9.933 108.997 11.865Q107.065 13.797 104.304 13.797L72.7502 13.797Q69.9892 13.797 68.0572 11.865Q66.1252 9.933 66.1252 7.172ZM12.4512 7.172L12.4512-12.828Q12.4512-15.589 14.3832-17.521Q16.3152-19.453 19.0762-19.453L50.6302-19.453Q53.3912-19.453 55.3232-17.521Q57.2552-15.589 57.2552-12.828L57.2552 7.172Q57.2552 9.933 55.3232 11.865Q53.3912 13.797 50.6302 13.797L19.0762 13.797Q16.3152 13.797 14.3832 11.865Q12.4512 9.933 12.4512 7.172ZM25.7012-41.643L44.0052-41.643L44.0052-71.219L25.7012-71.219L25.7012-41.643ZM79.3752 0.547L97.6792 0.547L97.6792-29.029L79.3752-29.029L79.3752 0.547ZM79.3752-64.469L97.6792-64.469L97.6792-71.219L79.3752-71.219L79.3752-64.469ZM25.7012 0.547L44.0052 0.547L44.0052-6.203L25.7012-6.203L25.7012 0.547Z"/>
  </g>
  <g id="Medium-M" transform="matrix(1 0 0 1 1687.31 1126)">
   <path class="monochrome-0 multicolor-0:tintColor hierarchical-0:primary SFSymbolsPreviewWireframe" d="M64.0052-56.336L64.0052-76.336Q64.0052-78.73 65.6522-80.377Q67.2982-82.023 69.6922-82.023L100.35-82.023Q102.744-82.023 104.391-80.377Q106.037-78.73 106.037-76.336L106.037-56.336Q106.037-53.942 104.391-52.295Q102.744-50.648 100.35-50.648L69.6922-50.648Q67.2982-50.648 65.6522-52.295Q64.0052-53.942 64.0052-56.336ZM12.4512-35.14L12.4512-76.336Q12.4512-78.73 14.0972-80.377Q15.7442-82.023 18.1382-82.023L48.7962-82.023Q51.1902-82.023 52.8362-80.377Q54.4832-78.73 54.4832-76.336L54.4832-35.14Q54.4832-32.746 52.8362-31.099Q51.1902-29.453 48.7962-29.453L18.1382-29.453Q15.7442-29.453 14.0972-31.099Q12.4512-32.746 12.4512-35.14ZM64.0052 5.786L64.0052-35.409Q64.0052-37.803 65.6522-39.45Q67.2982-41.097 69.6922-41.097L100.35-41.097Q102.744-41.097 104.391-39.45Q106.037-37.803 106.037-35.409L106.037 5.786Q106.037 8.18 104.391 9.827Q102.744 11.474 100.35 11.474L69.6922 11.474Q67.2982 11.474 65.6522 9.827Q64.0052 8.18 64.0052 5.786ZM12.4512 5.786L12.4512-14.214Q12.4512-16.608 14.0972-18.254Q15.7442-19.901 18.1382-19.901L48.7962-19.901Q51.1902-19.901 52.8362-18.254Q54.4832-16.608 54.4832-14.214L54.4832 5.786Q54.4832 8.18 52.8362 9.827Q51.1902 11.474 48.7962 11.474L18.1382 11.474Q15.7442 11.474 14.0972 9.827Q12.4512 8.18 12.4512 5.786ZM23.8252-40.828L43.1082-40.828L43.1082-70.648L23.8252-70.648L23.8252-40.828ZM75.3802 0.099L94.6622 0.099L94.6622-29.722L75.3802-29.722L75.3802 0.099ZM75.3802-62.023L94.6622-62.023L94.6622-70.648L75.3802-70.648L75.3802-62.023ZM23.8252 0.099L43.1082 0.099L43.1082-8.526L23.8252-8.526L23.8252 0.099Z"/>
  </g>
  <g id="Regular-M" transform="matrix(1 0 0 1 1392.39 1126)">
   <path class="monochrome-0 multicolor-0:tintColor hierarchical-0:primary SFSymbolsPreviewWireframe" d="M62.4512-55.23L62.4512-75.23Q62.4512-77.355 63.8892-78.792Q65.3262-80.23 67.4512-80.23L97.4512-80.23Q99.5762-80.23 101.013-78.792Q102.451-77.355 102.451-75.23L102.451-55.23Q102.451-53.105 101.013-51.667Q99.5762-50.23 97.4512-50.23L67.4512-50.23Q65.3262-50.23 63.8892-51.667Q62.4512-53.105 62.4512-55.23ZM12.4512-35.23L12.4512-75.23Q12.4512-77.355 13.8892-78.792Q15.3262-80.23 17.4512-80.23L47.4512-80.23Q49.5762-80.23 51.0132-78.792Q52.4512-77.355 52.4512-75.23L52.4512-35.23Q52.4512-33.105 51.0132-31.667Q49.5762-30.23 47.4512-30.23L17.4512-30.23Q15.3262-30.23 13.8892-31.667Q12.4512-33.105 12.4512-35.23ZM62.4512 4.77L62.4512-35.23Q62.4512-37.355 63.8892-38.792Q65.3262-40.23 67.4512-40.23L97.4512-40.23Q99.5762-40.23 101.013-38.792Q102.451-37.355 102.451-35.23L102.451 4.77Q102.451 6.895 101.013 8.333Q99.5762 9.77 97.4512 9.77L67.4512 9.77Q65.3262 9.77 63.8892 8.333Q62.4512 6.895 62.4512 4.77ZM12.4512 4.77L12.4512-15.23Q12.4512-17.355 13.8892-18.792Q15.3262-20.23 17.4512-20.23L47.4512-20.23Q49.5762-20.23 51.0132-18.792Q52.4512-17.355 52.4512-15.23L52.4512 4.77Q52.4512 6.895 51.0132 8.333Q49.5762 9.77 47.4512 9.77L17.4512 9.77Q15.3262 9.77 13.8892 8.333Q12.4512 6.895 12.4512 4.77ZM22.4512-40.23L42.4512-40.23L42.4512-70.23L22.4512-70.23L22.4512-40.23ZM72.4512-0.23L92.4512-0.23L92.4512-30.23L72.4512-30.23L72.4512-0.23ZM72.4512-60.23L92.4512-60.23L92.4512-70.23L72.4512-70.23L72.4512-60.23ZM22.4512-0.23L42.4512-0.23L42.4512-10.23L22.4512-10.23L22.4512-0.23Z"/>
  </g>
  <g id="Light-M" transform="matrix(1 0 0 1 1098.18 1126)">
   <path class="monochrome-0 multicolor-0:tintColor hierarchical-0:primary SFSymbolsPreviewWireframe" d="M61.2012-54.773L61.2012-73.187Q61.2012-75.143 62.5042-76.436Q63.8082-77.73 65.7352-77.73L92.9382-77.73Q94.8642-77.73 96.1582-76.436Q97.4512-75.143 97.4512-73.187L97.4512-54.773Q97.4512-52.816 96.1472-51.523Q94.8442-50.23 92.9172-50.23L65.7142-50.23Q63.7882-50.23 62.4942-51.523Q61.2012-52.816 61.2012-54.773ZM12.4512-37.23L12.4512-73.231Q12.4512-75.143 13.7552-76.436Q15.0582-77.73 16.9852-77.73L44.1872-77.73Q46.1142-77.73 47.4082-76.436Q48.7012-75.142 48.7012-73.23L48.7012-37.229Q48.7012-35.317 47.3982-34.023Q46.0942-32.73 44.1672-32.73L16.9652-32.73Q15.0382-32.73 13.7452-34.024Q12.4512-35.318 12.4512-37.23ZM61.2012 2.77L61.2012-33.231Q61.2012-35.143 62.5042-36.436Q63.8082-37.73 65.7352-37.73L92.9382-37.73Q94.8642-37.73 96.1582-36.436Q97.4512-35.142 97.4512-33.23L97.4512 2.771Q97.4512 4.683 96.1472 5.977Q94.8442 7.27 92.9172 7.27L65.7142 7.27Q63.7882 7.27 62.4942 5.976Q61.2012 4.682 61.2012 2.77ZM12.4512 2.727L12.4512-15.687Q12.4512-17.643 13.7552-18.937Q15.0582-20.23 16.9852-20.23L44.1872-20.23Q46.1142-20.23 47.4082-18.937Q48.7012-17.643 48.7012-15.687L48.7012 2.727Q48.7012 4.683 47.3982 5.977Q46.0942 7.27 44.1672 7.27L16.9652 7.27Q15.0382 7.27 13.7452 5.977Q12.4512 4.683 12.4512 2.727ZM19.9512-40.23L41.2012-40.23L41.2012-70.23L19.9512-70.23L19.9512-40.23ZM68.7012-0.23L89.9512-0.23L89.9512-30.23L68.7012-30.23L68.7012-0.23ZM68.7012-57.73L89.9512-57.73L89.9512-70.23L68.7012-70.23L68.7012-57.73ZM19.9512-0.23L41.2012-0.23L41.2012-12.73L19.9512-12.73L19.9512-0.23Z"/>
  </g>
  <g id="Thin-M" transform="matrix(1 0 0 1 803.971 1126)">
   <path class="monochrome-0 multicolor-0:tintColor hierarchical-0:primary SFSymbolsPreviewWireframe" d="M59.9512-54.316L59.9512-71.144Q59.9512-72.932 61.1202-74.081Q62.2902-75.23 64.0192-75.23L88.4242-75.23Q90.1532-75.23 91.3022-74.081Q92.4512-72.932 92.4512-71.144L92.4512-54.316Q92.4512-52.528 91.2822-51.379Q90.1122-50.23 88.3832-50.23L63.9782-50.23Q62.2492-50.23 61.1002-51.379Q59.9512-52.528 59.9512-54.316ZM12.4512-39.23L12.4512-71.232Q12.4512-72.932 13.6202-74.081Q14.7902-75.23 16.5192-75.23L40.9242-75.23Q42.6532-75.23 43.8022-74.08Q44.9512-72.93 44.9512-71.23L44.9512-39.228Q44.9512-37.528 43.7822-36.379Q42.6122-35.23 40.8832-35.23L16.4782-35.23Q14.7492-35.23 13.6002-36.38Q12.4512-37.53 12.4512-39.23ZM59.9512 0.77L59.9512-31.232Q59.9512-32.932 61.1202-34.081Q62.2902-35.23 64.0192-35.23L88.4242-35.23Q90.1532-35.23 91.3022-34.08Q92.4512-32.93 92.4512-31.23L92.4512 0.772Q92.4512 2.472 91.2822 3.621Q90.1122 4.77 88.3832 4.77L63.9782 4.77Q62.2492 4.77 61.1002 3.62Q59.9512 2.47 59.9512 0.77ZM12.4512 0.684L12.4512-16.144Q12.4512-17.932 13.6202-19.081Q14.7902-20.23 16.5192-20.23L40.9242-20.23Q42.6532-20.23 43.8022-19.081Q44.9512-17.932 44.9512-16.144L44.9512 0.684Q44.9512 2.472 43.7822 3.621Q42.6122 4.77 40.8832 4.77L16.4782 4.77Q14.7492 4.77 13.6002 3.621Q12.4512 2.472 12.4512 0.684ZM17.4512-40.23L39.9512-40.23L39.9512-70.23L17.4512-70.23L17.4512-40.23ZM64.9512-0.23L87.4512-0.23L87.4512-30.23L64.9512-30.23L64.9512-0.23ZM64.9512-55.23L87.4512-55.23L87.4512-70.23L64.9512-70.23L64.9512-55.23ZM17.4512-0.23L39.9512-0.23L39.9512-15.23L17.4512-15.23L17.4512-0.23Z"/>
  </g>
  <g id="Ultralight-M" transform="matrix(1 0 0 1 508.76 1126)">
   <path class="monochrome-0 multicolor-0:tintColor hierarchical-0:primary SFSymbolsPreviewWireframe" d="M59.2012-54.042L59.2012-69.918Q59.2012-71.605 60.2902-72.667Q61.3792-73.73 62.9892-73.73L85.7162-73.73Q87.3262-73.73 88.3892-72.667Q89.4512-71.605 89.4512-69.918L89.4512-54.042Q89.4512-52.355 88.3622-51.292Q87.2732-50.23 85.6632-50.23L62.9362-50.23Q61.3262-50.23 60.2632-51.292Q59.2012-52.355 59.2012-54.042ZM12.4512-40.43L12.4512-70.032Q12.4512-71.605 13.5402-72.667Q14.6292-73.73 16.2392-73.73L38.9662-73.73Q40.5762-73.73 41.6392-72.666Q42.7012-71.602 42.7012-70.03L42.7012-40.428Q42.7012-38.855 41.6122-37.792Q40.5232-36.73 38.9132-36.73L16.1862-36.73Q14.5762-36.73 13.5132-37.794Q12.4512-38.858 12.4512-40.43ZM59.2012-0.43L59.2012-30.032Q59.2012-31.605 60.2902-32.667Q61.3792-33.73 62.9892-33.73L85.7162-33.73Q87.3262-33.73 88.3892-32.666Q89.4512-31.602 89.4512-30.03L89.4512-0.428Q89.4512 1.145 88.3622 2.208Q87.2732 3.27 85.6632 3.27L62.9362 3.27Q61.3262 3.27 60.2632 2.206Q59.2012 1.142 59.2012-0.43ZM12.4512-0.542L12.4512-16.418Q12.4512-18.105 13.5402-19.167Q14.6292-20.23 16.2392-20.23L38.9662-20.23Q40.5762-20.23 41.6392-19.167Q42.7012-18.105 42.7012-16.418L42.7012-0.542Q42.7012 1.145 41.6122 2.208Q40.5232 3.27 38.9132 3.27L16.1862 3.27Q14.5762 3.27 13.5132 2.208Q12.4512 1.145 12.4512-0.542ZM15.9512-40.23L39.2012-40.23L39.2012-70.23L15.9512-70.23L15.9512-40.23ZM62.7012-0.23L85.9512-0.23L85.9512-30.23L62.7012-30.23L62.7012-0.23ZM62.7012-53.73L85.9512-53.73L85.9512-70.23L62.7012-70.23L62.7012-53.73ZM15.9512-0.23L39.2012-0.23L39.2012-16.73L15.9512-16.73L15.9512-0.23Z"/>
  </g>
  <g id="Bold-S" transform="matrix(1 0 0 1 2288.47 696)">
   <path class="monochrome-0 multicolor-0:tintColor hierarchical-0:primary SFSymbolsPreviewWireframe" d="M55.4522-56.632L55.4522-68.565Q55.4522-70.92 57.1352-72.603Q58.8182-74.285 61.1722-74.285L84.8022-74.285Q87.2092-74.285 88.8862-72.603Q90.5622-70.92 90.5622-68.565L90.5622-56.632Q90.5622-54.235 88.8802-52.524Q87.1972-50.813 84.8422-50.813L61.2132-50.813Q58.8052-50.813 57.1292-52.524Q55.4522-54.235 55.4522-56.632ZM12.4512-33.652L12.4512-68.565Q12.4512-70.92 14.1672-72.603Q15.8822-74.285 18.2842-74.285L41.8422-74.285Q44.1102-74.285 45.8362-72.603Q47.5622-70.92 47.5622-68.565L47.5622-33.652Q47.5622-31.384 45.8362-29.658Q44.1102-27.932 41.8422-27.932L18.2842-27.932Q15.8822-27.932 14.1672-29.658Q12.4512-31.384 12.4512-33.652ZM55.4522-2.289L55.4522-37.005Q55.4522-39.402 57.1352-41.113Q58.8182-42.824 61.1722-42.824L84.8022-42.824Q87.2092-42.824 88.8862-41.113Q90.5622-39.402 90.5622-37.005L90.5622-2.289Q90.5622 0.107 88.8802 1.818Q87.1972 3.53 84.8422 3.53L61.2132 3.53Q58.8052 3.53 57.1292 1.818Q55.4522 0.107 55.4522-2.289ZM12.4512-2.289L12.4512-14.321Q12.4512-16.676 14.1672-18.359Q15.8822-20.042 18.2842-20.042L41.8422-20.042Q44.1102-20.042 45.8362-18.359Q47.5622-16.676 47.5622-14.321L47.5622-2.289Q47.5622 0.107 45.8362 1.818Q44.1102 3.53 41.8422 3.53L18.2842 3.53Q15.8822 3.53 14.1672 1.818Q12.4512 0.107 12.4512-2.289ZM24.0892-39.569L35.9242-39.569L35.9242-62.648L24.0892-62.648L24.0892-39.569ZM67.0902-8.108L78.9252-8.108L78.9252-31.186L67.0902-31.186L67.0902-8.108ZM67.0902-62.352L78.9252-62.352L78.9252-62.648L67.0902-62.648L67.0902-62.352ZM24.0892-8.108L35.9242-8.108L35.9242-8.404L24.0892-8.404L24.0892-8.108Z"/>
  </g>
  <g id="Semibold-S" transform="matrix(1 0 0 1 1994.33 696)">
   <path class="monochrome-0 multicolor-0:tintColor hierarchical-0:primary SFSymbolsPreviewWireframe" d="M53.2222-55.045L53.2222-66.979Q53.2222-68.948 54.6052-70.33Q55.9872-71.713 57.9562-71.713L80.6422-71.713Q82.6642-71.713 84.0402-70.33Q85.4172-68.948 85.4172-66.979L85.4172-55.045Q85.4172-53.034 84.0342-51.623Q82.6522-50.212 80.6832-50.212L57.9972-50.212Q55.9752-50.212 54.5992-51.623Q53.2222-53.034 53.2222-55.045ZM12.4512-33.781L12.4512-66.979Q12.4512-68.948 13.8662-70.33Q15.2812-71.713 17.2982-71.713L39.9122-71.713Q41.7942-71.713 43.2202-70.33Q44.6462-68.948 44.6462-66.979L44.6462-33.781Q44.6462-31.898 43.2202-30.472Q41.7942-29.047 39.9122-29.047L17.2982-29.047Q15.2812-29.047 13.8662-30.472Q12.4512-31.898 12.4512-33.781ZM53.2222-3.747L53.2222-36.748Q53.2222-38.759 54.6052-40.17Q55.9872-41.581 57.9562-41.581L80.6422-41.581Q82.6642-41.581 84.0402-40.17Q85.4172-38.759 85.4172-36.748L85.4172-3.747Q85.4172-1.736 84.0342-0.325Q82.6522 1.086 80.6832 1.086L57.9972 1.086Q55.9752 1.086 54.5992-0.325Q53.2222-1.736 53.2222-3.747ZM12.4512-3.747L12.4512-15.779Q12.4512-17.748 13.8662-19.131Q15.2812-20.513 17.2982-20.513L39.9122-20.513Q41.7942-20.513 43.2202-19.131Q44.6462-17.748 44.6462-15.779L44.6462-3.747Q44.6462-1.736 43.2202-0.325Q41.7942 1.086 39.9122 1.086L17.2982 1.086Q15.2812 1.086 13.8662-0.325Q12.4512-1.736 12.4512-3.747ZM22.1172-38.712L34.9812-38.712L34.9812-62.047L22.1172-62.047L22.1172-38.712ZM62.8872-8.58L75.7512-8.58L75.7512-31.915L62.8872-31.915L62.8872-8.58ZM62.8872-59.779L75.7512-59.779L75.7512-62.047L62.8872-62.047L62.8872-59.779ZM22.1172-8.58L34.9812-8.58L34.9812-10.848L22.1172-10.848L22.1172-8.58Z"/>
  </g>
  <g id="Medium-S" transform="matrix(1 0 0 1 1699.55 696)">
   <path class="monochrome-0 multicolor-0:tintColor hierarchical-0:primary SFSymbolsPreviewWireframe" d="M51.5492-53.855L51.5492-65.789Q51.5492-67.468 52.7072-68.626Q53.8642-69.783 55.5442-69.783L77.5222-69.783Q79.2542-69.783 80.4062-68.626Q81.5572-67.468 81.5572-65.789L81.5572-53.855Q81.5572-52.134 80.4002-50.948Q79.2422-49.762 77.5632-49.762L55.5842-49.762Q53.8522-49.762 52.7012-50.948Q51.5492-52.134 51.5492-53.855ZM12.4512-33.877L12.4512-65.789Q12.4512-67.468 13.6412-68.626Q14.8312-69.783 16.5582-69.783L38.4642-69.783Q40.0572-69.783 41.2582-68.626Q42.4592-67.468 42.4592-65.789L42.4592-33.877Q42.4592-32.284 41.2582-31.083Q40.0572-29.883 38.4642-29.883L16.5582-29.883Q14.8312-29.883 13.6412-31.083Q12.4512-32.284 12.4512-33.877ZM51.5492-4.841L51.5492-36.555Q51.5492-38.276 52.7072-39.462Q53.8642-40.648 55.5442-40.648L77.5222-40.648Q79.2542-40.648 80.4062-39.462Q81.5572-38.276 81.5572-36.555L81.5572-4.841Q81.5572-3.119 80.4002-1.934Q79.2422-0.748 77.5632-0.748L55.5842-0.748Q53.8522-0.748 52.7012-1.934Q51.5492-3.119 51.5492-4.841ZM12.4512-4.841L12.4512-16.873Q12.4512-18.552 13.6412-19.71Q14.8312-20.867 16.5582-20.867L38.4642-20.867Q40.0572-20.867 41.2582-19.71Q42.4592-18.552 42.4592-16.873L42.4592-4.841Q42.4592-3.119 41.2582-1.934Q40.0572-0.748 38.4642-0.748L16.5582-0.748Q14.8312-0.748 13.6412-1.934Q12.4512-3.119 12.4512-4.841ZM20.6372-38.069L34.2732-38.069L34.2732-61.597L20.6372-61.597L20.6372-38.069ZM59.7352-8.934L73.3712-8.934L73.3712-32.462L59.7352-32.462L59.7352-8.934ZM59.7352-57.849L73.3712-57.849L73.3712-61.597L59.7352-61.597L59.7352-57.849ZM20.6372-8.934L34.2732-8.934L34.2732-12.681L20.6372-12.681L20.6372-8.934Z"/>
  </g>
  <g id="Regular-S" transform="matrix(1 0 0 1 1404.26 696)">
   <path class="monochrome-0 multicolor-0:tintColor hierarchical-0:primary SFSymbolsPreviewWireframe" d="M50.3232-52.982L50.3232-64.916Q50.3232-66.383 51.3152-67.376Q52.3082-68.368 53.7752-68.368L75.2342-68.368Q76.7542-68.368 77.7412-67.376Q78.7272-66.383 78.7272-64.916L78.7272-52.982Q78.7272-51.474 77.7352-50.453Q76.7422-49.432 75.2752-49.432L53.8162-49.432Q52.2962-49.432 51.3092-50.453Q50.3232-51.474 50.3232-52.982ZM12.4512-33.948L12.4512-64.916Q12.4512-66.383 13.4762-67.376Q14.5012-68.368 16.0162-68.368L37.4032-68.368Q38.7842-68.368 39.8192-67.376Q40.8552-66.383 40.8552-64.916L40.8552-33.948Q40.8552-32.567 39.8192-31.532Q38.7842-30.496 37.4032-30.496L16.0162-30.496Q14.5012-30.496 13.4762-31.532Q12.4512-32.567 12.4512-33.948ZM50.3232-5.642L50.3232-36.413Q50.3232-37.922 51.3152-38.943Q52.3082-39.964 53.7752-39.964L75.2342-39.964Q76.7542-39.964 77.7412-38.943Q78.7272-37.922 78.7272-36.413L78.7272-5.642Q78.7272-4.134 77.7352-3.113Q76.7422-2.092 75.2752-2.092L53.8162-2.092Q52.2962-2.092 51.3092-3.113Q50.3232-4.134 50.3232-5.642ZM12.4512-5.642L12.4512-17.675Q12.4512-19.142 13.4762-20.134Q14.5012-21.127 16.0162-21.127L37.4032-21.127Q38.7842-21.127 39.8192-20.134Q40.8552-19.142 40.8552-17.675L40.8552-5.642Q40.8552-4.134 39.8192-3.113Q38.7842-2.092 37.4032-2.092L16.0162-2.092Q14.5012-2.092 13.4762-3.113Q12.4512-4.134 12.4512-5.642ZM19.5522-37.597L33.7542-37.597L33.7542-61.267L19.5522-61.267L19.5522-37.597ZM57.4242-9.193L71.6262-9.193L71.6262-32.863L57.4242-32.863L57.4242-9.193ZM57.4242-56.434L71.6262-56.434L71.6262-61.267L57.4242-61.267L57.4242-56.434ZM19.5522-9.193L33.7542-9.193L33.7542-14.026L19.5522-14.026L19.5522-9.193Z"/>
  </g>
  <g id="Light-S" transform="matrix(1 0 0 1 1109.52 696)">
   <path class="monochrome-0 multicolor-0:tintColor hierarchical-0:primary SFSymbolsPreviewWireframe" d="M49.3362-52.622L49.3362-63.304Q49.3362-64.638 50.2232-65.517Q51.1102-66.395 52.4202-66.395L71.6732-66.395Q73.0362-66.395 73.9092-65.517Q74.7812-64.638 74.7812-63.304L74.7812-52.622Q74.7812-51.246 73.8952-50.339Q73.0082-49.432 71.6972-49.432L52.4452-49.432Q51.0812-49.432 50.2092-50.339Q49.3362-51.246 49.3362-52.622ZM12.4512-35.526L12.4512-63.339Q12.4512-64.638 13.3702-65.517Q14.2892-66.395 15.6472-66.395L34.8282-66.395Q36.0522-66.395 36.9742-65.516Q37.8962-64.637 37.8962-63.338L37.8962-35.525Q37.8962-34.312 36.9662-33.39Q36.0362-32.469 34.8122-32.469L15.6312-32.469Q14.2732-32.469 13.3622-33.391Q12.4512-34.313 12.4512-35.526ZM49.3362-7.221L49.3362-34.836Q49.3362-36.177 50.2232-37.084Q51.1102-37.991 52.4202-37.991L71.6732-37.991Q73.0362-37.991 73.9092-37.084Q74.7812-36.177 74.7812-34.835L74.7812-7.22Q74.7812-5.879 73.8952-4.972Q73.0082-4.065 71.6972-4.065L52.4452-4.065Q51.0812-4.065 50.2092-4.972Q49.3362-5.879 49.3362-7.221ZM12.4512-7.255L12.4512-18.035Q12.4512-19.369 13.3702-20.248Q14.2892-21.127 15.6472-21.127L34.8282-21.127Q36.0522-21.127 36.9742-20.248Q37.8962-19.369 37.8962-18.035L37.8962-7.255Q37.8962-5.879 36.9662-4.972Q36.0362-4.065 34.8122-4.065L15.6312-4.065Q14.2732-4.065 13.3622-4.972Q12.4512-5.879 12.4512-7.255ZM17.5792-37.597L32.7672-37.597L32.7672-61.267L17.5792-61.267L17.5792-37.597ZM54.4652-9.193L69.6532-9.193L69.6532-32.863L54.4652-32.863L54.4652-9.193ZM54.4652-54.462L69.6532-54.462L69.6532-61.267L54.4652-61.267L54.4652-54.462ZM17.5792-9.193L32.7672-9.193L32.7672-15.998L17.5792-15.998L17.5792-9.193Z"/>
  </g>
  <g id="Thin-S" transform="matrix(1 0 0 1 814.778 696)">
   <path class="monochrome-0 multicolor-0:tintColor hierarchical-0:primary SFSymbolsPreviewWireframe" d="M48.3512-52.261L48.3512-61.692Q48.3512-62.893 49.1312-63.658Q49.9122-64.423 51.0672-64.423L68.1122-64.423Q69.3202-64.423 70.0782-63.658Q70.8372-62.893 70.8372-61.692L70.8372-52.261Q70.8372-51.018 70.0562-50.225Q69.2752-49.432 68.1212-49.432L51.0752-49.432Q49.8682-49.432 49.1092-50.225Q48.3512-51.018 48.3512-52.261ZM12.4512-37.104L12.4512-61.762Q12.4512-62.893 13.2642-63.658Q14.0782-64.423 15.2802-64.423L32.2542-64.423Q33.3222-64.423 34.1302-63.657Q34.9382-62.892 34.9382-61.76L34.9382-37.102Q34.9382-36.057 34.1132-35.249Q33.2892-34.441 32.2212-34.441L15.2482-34.441Q14.0452-34.441 13.2482-35.25Q12.4512-36.059 12.4512-37.104ZM48.3512-8.799L48.3512-33.259Q48.3512-34.433 49.1312-35.226Q49.9122-36.019 51.0672-36.019L68.1122-36.019Q69.3202-36.019 70.0782-35.225Q70.8372-34.431 70.8372-33.257L70.8372-8.797Q70.8372-7.623 70.0562-6.83Q69.2752-6.037 68.1212-6.037L51.0752-6.037Q49.8682-6.037 49.1092-6.831Q48.3512-7.625 48.3512-8.799ZM12.4512-8.866L12.4512-18.396Q12.4512-19.597 13.2642-20.362Q14.0782-21.127 15.2802-21.127L32.2542-21.127Q33.3222-21.127 34.1302-20.362Q34.9382-19.597 34.9382-18.396L34.9382-8.866Q34.9382-7.623 34.1132-6.83Q33.2892-6.037 32.2212-6.037L15.2482-6.037Q14.0452-6.037 13.2482-6.83Q12.4512-7.623 12.4512-8.866ZM15.6072-37.597L31.7812-37.597L31.7812-61.267L15.6072-61.267L15.6072-37.597ZM51.5072-9.193L67.6812-9.193L67.6812-32.863L51.5072-32.863L51.5072-9.193ZM51.5072-52.489L67.6812-52.489L67.6812-61.267L51.5072-61.267L51.5072-52.489ZM15.6072-9.193L31.7812-9.193L31.7812-17.971L15.6072-17.971L15.6072-9.193Z"/>
  </g>
  <g id="Ultralight-S" transform="matrix(1 0 0 1 519.25 696)">
   <path class="monochrome-0 multicolor-0:tintColor hierarchical-0:primary SFSymbolsPreviewWireframe" d="M47.7582-52.045L47.7582-60.725Q47.7582-61.846 48.4762-62.543Q49.1932-63.239 50.2542-63.239L65.9752-63.239Q67.0892-63.239 67.7792-62.543Q68.4702-61.846 68.4702-60.725L68.4702-52.045Q68.4702-50.882 67.7522-50.157Q67.0352-49.432 65.9742-49.432L50.2532-49.432Q49.1392-49.432 48.4492-50.157Q47.7582-50.882 47.7582-52.045ZM12.4512-38.051L12.4512-60.815Q12.4512-61.846 13.2002-62.543Q13.9502-63.239 15.0592-63.239L30.7082-63.239Q31.6822-63.239 32.4222-62.542Q33.1622-61.844 33.1622-60.813L33.1622-38.049Q33.1622-37.104 32.4012-36.364Q31.6412-35.624 30.6662-35.624L15.0172-35.624Q13.9082-35.624 13.1792-36.365Q12.4512-37.106 12.4512-38.051ZM47.7582-9.745L47.7582-32.313Q47.7582-33.386 48.4762-34.111Q49.1932-34.835 50.2542-34.835L65.9752-34.835Q67.0892-34.835 67.7792-34.11Q68.4702-33.384 68.4702-32.311L68.4702-9.743Q68.4702-8.67 67.7522-7.945Q67.0352-7.22 65.9742-7.22L50.2532-7.22Q49.1392-7.22 48.4492-7.946Q47.7582-8.672 47.7582-9.745ZM12.4512-9.834L12.4512-18.612Q12.4512-19.734 13.2002-20.43Q13.9502-21.127 15.0592-21.127L30.7082-21.127Q31.6822-21.127 32.4222-20.43Q33.1622-19.734 33.1622-18.612L33.1622-9.834Q33.1622-8.67 32.4012-7.945Q31.6412-7.22 30.6662-7.22L15.0172-7.22Q13.9082-7.22 13.1792-7.945Q12.4512-8.67 12.4512-9.834ZM14.4232-37.597L31.1892-37.597L31.1892-61.267L14.4232-61.267L14.4232-37.597ZM49.7312-9.193L66.4972-9.193L66.4972-32.863L49.7312-32.863L49.7312-9.193ZM49.7312-51.306L66.4972-51.306L66.4972-61.267L49.7312-61.267L49.7312-51.306ZM14.4232-9.193L31.1892-9.193L31.1892-19.154L14.4232-19.154L14.4232-9.193Z"/>
  </g>
 </g>
</svg>
