<?xml version="1.0" encoding="UTF-8"?>
<!--Generator: Apple Native CoreSVG 232.5-->
<!DOCTYPE svg
PUBLIC "-//W3C//DTD SVG 1.1//EN"
       "http://www.w3.org/Graphics/SVG/1.1/DTD/svg11.dtd">
<svg version="1.1" xmlns="http://www.w3.org/2000/svg" xmlns:xlink="http://www.w3.org/1999/xlink" width="3300" height="2200">
 <!--glyph: "", point size: 100.0, font version: "19.0d7e1", template writer version: "128"-->
 <style>.monochrome-0 {-sfsymbols-motion-group:0}

.multicolor-0:tintColor {-sfsymbols-motion-group:0}

.hierarchical-0:primary {-sfsymbols-motion-group:0}

.SFSymbolsPreviewWireframe {fill:none;opacity:1.0;stroke:black;stroke-width:0.5}
</style>
 <g id="Notes">
  <rect height="2200" id="artboard" style="fill:white;opacity:1" width="3300" x="0" y="0"/>
  <line style="fill:none;stroke:black;opacity:1;stroke-width:0.5;" x1="263" x2="3036" y1="292" y2="292"/>
  <text style="stroke:none;fill:black;font-family:sans-serif;font-size:13;font-weight:bold;" transform="matrix(1 0 0 1 263 322)">Weight/Scale Variations</text>
  <text style="stroke:none;fill:black;font-family:sans-serif;font-size:13;text-anchor:middle;" transform="matrix(1 0 0 1 559.711 322)">Ultralight</text>
  <text style="stroke:none;fill:black;font-family:sans-serif;font-size:13;text-anchor:middle;" transform="matrix(1 0 0 1 856.422 322)">Thin</text>
  <text style="stroke:none;fill:black;font-family:sans-serif;font-size:13;text-anchor:middle;" transform="matrix(1 0 0 1 1153.13 322)">Light</text>
  <text style="stroke:none;fill:black;font-family:sans-serif;font-size:13;text-anchor:middle;" transform="matrix(1 0 0 1 1449.84 322)">Regular</text>
  <text style="stroke:none;fill:black;font-family:sans-serif;font-size:13;text-anchor:middle;" transform="matrix(1 0 0 1 1746.56 322)">Medium</text>
  <text style="stroke:none;fill:black;font-family:sans-serif;font-size:13;text-anchor:middle;" transform="matrix(1 0 0 1 2043.27 322)">Semibold</text>
  <text style="stroke:none;fill:black;font-family:sans-serif;font-size:13;text-anchor:middle;" transform="matrix(1 0 0 1 2339.98 322)">Bold</text>
  <text style="stroke:none;fill:black;font-family:sans-serif;font-size:13;text-anchor:middle;" transform="matrix(1 0 0 1 2636.69 322)">Heavy</text>
  <text style="stroke:none;fill:black;font-family:sans-serif;font-size:13;text-anchor:middle;" transform="matrix(1 0 0 1 2933.4 322)">Black</text>
  <line style="fill:none;stroke:black;opacity:1;stroke-width:0.5;" x1="263" x2="3036" y1="1903" y2="1903"/>
  <g transform="matrix(0.2 0 0 0.2 263 1933)">
   <path d="m46.2402 4.15039c21.5332 0 39.4531-17.8711 39.4531-39.4043s-17.9688-39.4043-39.502-39.4043c-21.4844 0-39.3555 17.8711-39.3555 39.4043s17.9199 39.4043 39.4043 39.4043Zm0-7.42188c-17.7246 0-31.8848-14.209-31.8848-31.9824s14.1113-31.9824 31.8359-31.9824c17.7734 0 32.0312 14.209 32.0312 31.9824s-14.209 31.9824-31.9824 31.9824Zm-17.9688-31.9824c0 2.14844 1.51367 3.61328 3.75977 3.61328h10.498v10.5957c0 2.19727 1.46484 3.71094 3.61328 3.71094 2.24609 0 3.71094-1.51367 3.71094-3.71094v-10.5957h10.5957c2.19727 0 3.71094-1.46484 3.71094-3.61328 0-2.19727-1.51367-3.71094-3.71094-3.71094h-10.5957v-10.5469c0-2.24609-1.46484-3.75977-3.71094-3.75977-2.14844 0-3.61328 1.51367-3.61328 3.75977v10.5469h-10.498c-2.24609 0-3.75977 1.51367-3.75977 3.71094Z"/>
  </g>
  <g transform="matrix(0.2 0 0 0.2 281.506 1933)">
   <path d="m58.5449 14.5508c27.2461 0 49.8047-22.6074 49.8047-49.8047 0-27.2461-22.6074-49.8047-49.8535-49.8047-27.1973 0-49.7559 22.5586-49.7559 49.8047 0 27.1973 22.6074 49.8047 49.8047 49.8047Zm0-8.30078c-23.0469 0-41.4551-18.457-41.4551-41.5039s18.3594-41.5039 41.4062-41.5039 41.5527 18.457 41.5527 41.5039-18.457 41.5039-41.5039 41.5039Zm-22.6562-41.5039c0 2.39258 1.66016 4.00391 4.15039 4.00391h14.3555v14.4043c0 2.44141 1.66016 4.15039 4.05273 4.15039 2.44141 0 4.15039-1.66016 4.15039-4.15039v-14.4043h14.4043c2.44141 0 4.15039-1.61133 4.15039-4.00391 0-2.44141-1.70898-4.15039-4.15039-4.15039h-14.4043v-14.3555c0-2.49023-1.70898-4.19922-4.15039-4.19922-2.39258 0-4.05273 1.70898-4.05273 4.19922v14.3555h-14.3555c-2.49023 0-4.15039 1.70898-4.15039 4.15039Z"/>
  </g>
  <g transform="matrix(0.2 0 0 0.2 304.924 1933)">
   <path d="m74.8535 28.3203c34.8145 0 63.623-28.8086 63.623-63.5742 0-34.8145-28.8574-63.623-63.6719-63.623-34.7656 0-63.5254 28.8086-63.5254 63.623 0 34.7656 28.8086 63.5742 63.5742 63.5742Zm0-9.08203c-30.1758 0-54.4434-24.3164-54.4434-54.4922 0-30.2246 24.2188-54.4922 54.3945-54.4922 30.2246 0 54.541 24.2676 54.541 54.4922 0 30.1758-24.2676 54.4922-54.4922 54.4922Zm-28.8574-54.4922c0 2.58789 1.85547 4.39453 4.58984 4.39453h19.7266v19.7754c0 2.68555 1.85547 4.58984 4.44336 4.58984 2.68555 0 4.54102-1.85547 4.54102-4.58984v-19.7754h19.7754c2.68555 0 4.58984-1.80664 4.58984-4.39453 0-2.73438-1.85547-4.58984-4.58984-4.58984h-19.7754v-19.7266c0-2.73438-1.85547-4.63867-4.54102-4.63867-2.58789 0-4.44336 1.9043-4.44336 4.63867v19.7266h-19.7266c-2.73438 0-4.58984 1.85547-4.58984 4.58984Z"/>
  </g>
  <text style="stroke:none;fill:black;font-family:sans-serif;font-size:13;font-weight:bold;" transform="matrix(1 0 0 1 263 1953)">Design Variations</text>
  <text style="stroke:none;fill:black;font-family:sans-serif;font-size:13;" transform="matrix(1 0 0 1 263 1971)">Symbols are supported in up to nine weights and three scales.</text>
  <text style="stroke:none;fill:black;font-family:sans-serif;font-size:13;" transform="matrix(1 0 0 1 263 1989)">For optimal layout with text and other symbols, vertically align</text>
  <text style="stroke:none;fill:black;font-family:sans-serif;font-size:13;" transform="matrix(1 0 0 1 263 2007)">symbols with the adjacent text.</text>
  <line style="fill:none;stroke:#00AEEF;stroke-width:0.5;opacity:1.0;" x1="776" x2="776" y1="1919" y2="1933"/>
  <g transform="matrix(0.2 0 0 0.2 776 1933)">
   <path d="m16.5527 0.78125c2.58789 0 3.85742-0.976562 4.78516-3.71094l6.29883-17.2363h28.8086l6.29883 17.2363c0.927734 2.73438 2.19727 3.71094 4.73633 3.71094 2.58789 0 4.24805-1.5625 4.24805-4.00391 0-0.830078-0.146484-1.61133-0.537109-2.63672l-22.9004-60.9863c-1.12305-2.97852-3.125-4.49219-6.25-4.49219-3.02734 0-5.07812 1.46484-6.15234 4.44336l-22.9004 61.084c-0.390625 1.02539-0.537109 1.80664-0.537109 2.63672 0 2.44141 1.5625 3.95508 4.10156 3.95508Zm13.4766-28.3691 11.8652-32.8613h0.244141l11.8652 32.8613Z"/>
  </g>
  <line style="fill:none;stroke:#00AEEF;stroke-width:0.5;opacity:1.0;" x1="792.836" x2="792.836" y1="1919" y2="1933"/>
  <text style="stroke:none;fill:black;font-family:sans-serif;font-size:13;font-weight:bold;" transform="matrix(1 0 0 1 776 1953)">Margins</text>
  <text style="stroke:none;fill:black;font-family:sans-serif;font-size:13;" transform="matrix(1 0 0 1 776 1971)">Leading and trailing margins on the left and right side of each symbol</text>
  <text style="stroke:none;fill:black;font-family:sans-serif;font-size:13;" transform="matrix(1 0 0 1 776 1989)">can be adjusted by modifying the x-location of the margin guidelines.</text>
  <text style="stroke:none;fill:black;font-family:sans-serif;font-size:13;" transform="matrix(1 0 0 1 776 2007)">Modifications are automatically applied proportionally to all</text>
  <text style="stroke:none;fill:black;font-family:sans-serif;font-size:13;" transform="matrix(1 0 0 1 776 2025)">scales and weights.</text>
  <g transform="matrix(0.2 0 0 0.2 1289 1933)">
   <path d="m14.209 9.32617 8.49609 8.54492c4.29688 4.3457 9.22852 4.05273 13.8672-1.07422l53.4668-58.9355-4.83398-4.88281-53.0762 58.3984c-1.75781 2.00195-3.41797 2.49023-5.76172 0.146484l-5.85938-5.81055c-2.34375-2.29492-1.80664-4.00391 0.195312-5.81055l57.373-54.0039-4.88281-4.83398-57.959 54.4434c-4.93164 4.58984-5.32227 9.47266-1.02539 13.8184Zm32.0801-90.9668c-2.09961 2.05078-2.24609 4.93164-1.07422 6.88477 1.17188 1.80664 3.4668 2.97852 6.68945 2.14844 7.32422-1.70898 14.9414-2.00195 22.0703 2.68555l-2.92969 7.27539c-1.70898 4.15039-0.830078 7.08008 1.85547 9.81445l11.4746 11.5723c2.44141 2.44141 4.49219 2.53906 7.32422 2.05078l5.32227-0.976562 3.32031 3.36914-0.195312 2.7832c-0.195312 2.49023 0.439453 4.39453 2.88086 6.78711l3.80859 3.71094c2.39258 2.39258 5.46875 2.53906 7.8125 0.195312l14.5508-14.5996c2.34375-2.34375 2.24609-5.32227-0.146484-7.71484l-3.85742-3.80859c-2.39258-2.39258-4.24805-3.17383-6.64062-2.97852l-2.88086 0.244141-3.22266-3.17383 1.2207-5.61523c0.634766-2.83203-0.146484-5.0293-3.07617-7.95898l-10.9863-10.9375c-16.6992-16.6016-38.8672-16.2109-53.3203-1.75781Zm7.4707 1.85547c12.1582-8.88672 28.6133-7.37305 39.7461 3.75977l12.1582 12.0605c1.17188 1.17188 1.36719 2.09961 1.02539 3.80859l-1.61133 7.42188 7.51953 7.42188 4.93164-0.292969c1.26953-0.0488281 1.66016 0.0488281 2.63672 1.02539l2.88086 2.88086-12.207 12.207-2.88086-2.88086c-0.976562-0.976562-1.12305-1.36719-1.07422-2.68555l0.341797-4.88281-7.4707-7.42188-7.61719 1.26953c-1.61133 0.341797-2.34375 0.195312-3.56445-0.976562l-10.0098-10.0098c-1.26953-1.17188-1.41602-2.00195-0.634766-3.85742l4.39453-10.4492c-7.8125-7.27539-17.9688-10.4004-28.125-7.42188-0.78125 0.195312-1.07422-0.439453-0.439453-0.976562Z"/>
  </g>
  <text style="stroke:none;fill:black;font-family:sans-serif;font-size:13;font-weight:bold;" transform="matrix(1 0 0 1 1289 1953)">Exporting</text>
  <text style="stroke:none;fill:black;font-family:sans-serif;font-size:13;" transform="matrix(1 0 0 1 1289 1971)">Symbols should be outlined when exporting to ensure the</text>
  <text style="stroke:none;fill:black;font-family:sans-serif;font-size:13;" transform="matrix(1 0 0 1 1289 1989)">design is preserved when submitting to Xcode.</text>
  <text id="template-version" style="stroke:none;fill:black;font-family:sans-serif;font-size:13;text-anchor:end;" transform="matrix(1 0 0 1 3036 1933)">Template v.5.0</text>
  <text style="stroke:none;fill:black;font-family:sans-serif;font-size:13;text-anchor:end;" transform="matrix(1 0 0 1 3036 1951)">Requires Xcode 15 or greater</text>
  <text id="descriptive-name" style="stroke:none;fill:black;font-family:sans-serif;font-size:13;text-anchor:end;" transform="matrix(1 0 0 1 3036 1969)">Generated from bank</text>
  <text style="stroke:none;fill:black;font-family:sans-serif;font-size:13;text-anchor:end;" transform="matrix(1 0 0 1 3036 1987)">Typeset at 100.0 points</text>
  <text style="stroke:none;fill:black;font-family:sans-serif;font-size:13;" transform="matrix(1 0 0 1 263 726)">Small</text>
  <text style="stroke:none;fill:black;font-family:sans-serif;font-size:13;" transform="matrix(1 0 0 1 263 1156)">Medium</text>
  <text style="stroke:none;fill:black;font-family:sans-serif;font-size:13;" transform="matrix(1 0 0 1 263 1586)">Large</text>
 </g>
 <g id="Guides">
  <g id="H-reference" style="fill:#27AAE1;stroke:none;" transform="matrix(1 0 0 1 339 696)">
   <path d="M0.993654 0L3.63775 0L29.3281-67.1323L30.0303-67.1323L30.0303-70.459L28.1226-70.459ZM11.6885-24.4799L46.9815-24.4799L46.2315-26.7285L12.4385-26.7285ZM55.1196 0L57.7637 0L30.6382-70.459L29.4326-70.459L29.4326-67.1323Z"/>
  </g>
  <line id="Baseline-S" style="fill:none;stroke:#27AAE1;opacity:1;stroke-width:0.5;" x1="263" x2="3036" y1="696" y2="696"/>
  <line id="Capline-S" style="fill:none;stroke:#27AAE1;opacity:1;stroke-width:0.5;" x1="263" x2="3036" y1="625.541" y2="625.541"/>
  <g id="H-reference" style="fill:#27AAE1;stroke:none;" transform="matrix(1 0 0 1 339 1126)">
   <path d="M0.993654 0L3.63775 0L29.3281-67.1323L30.0303-67.1323L30.0303-70.459L28.1226-70.459ZM11.6885-24.4799L46.9815-24.4799L46.2315-26.7285L12.4385-26.7285ZM55.1196 0L57.7637 0L30.6382-70.459L29.4326-70.459L29.4326-67.1323Z"/>
  </g>
  <line id="Baseline-M" style="fill:none;stroke:#27AAE1;opacity:1;stroke-width:0.5;" x1="263" x2="3036" y1="1126" y2="1126"/>
  <line id="Capline-M" style="fill:none;stroke:#27AAE1;opacity:1;stroke-width:0.5;" x1="263" x2="3036" y1="1055.54" y2="1055.54"/>
  <g id="H-reference" style="fill:#27AAE1;stroke:none;" transform="matrix(1 0 0 1 339 1556)">
   <path d="M0.993654 0L3.63775 0L29.3281-67.1323L30.0303-67.1323L30.0303-70.459L28.1226-70.459ZM11.6885-24.4799L46.9815-24.4799L46.2315-26.7285L12.4385-26.7285ZM55.1196 0L57.7637 0L30.6382-70.459L29.4326-70.459L29.4326-67.1323Z"/>
  </g>
  <line id="Baseline-L" style="fill:none;stroke:#27AAE1;opacity:1;stroke-width:0.5;" x1="263" x2="3036" y1="1556" y2="1556"/>
  <line id="Capline-L" style="fill:none;stroke:#27AAE1;opacity:1;stroke-width:0.5;" x1="263" x2="3036" y1="1485.54" y2="1485.54"/>
  <line id="left-margin-Regular-M" style="fill:none;stroke:#00AEEF;stroke-width:0.5;opacity:1.0;" x1="1389.89" x2="1389.89" y1="1030.79" y2="1150.12"/>
  <line id="right-margin-Regular-M" style="fill:none;stroke:#00AEEF;stroke-width:0.5;opacity:1.0;" x1="1509.8" x2="1509.8" y1="1030.79" y2="1150.12"/>
 </g>
 <g id="Symbols">
  <g id="Bold-L" transform="matrix(1 0 0 1 2261.98 1556)">
   <path class="monochrome-0 multicolor-0:tintColor hierarchical-0:primary SFSymbolsPreviewWireframe" d="M102.267-24.91Q106.298-24.91 109.443-28.054Q112.587-31.199 112.587-35.311Q112.587-39.422 109.443-42.486Q106.298-45.55 102.267-45.55Q98.2362-45.55 95.0912-42.486Q91.9472-39.422 91.9472-35.311Q91.9472-31.199 95.0912-28.054Q98.2362-24.91 102.267-24.91ZM27.6082 26.851Q21.4732 26.851 16.9622 22.421Q12.4512 17.991 12.4512 11.694L12.4512-82.154Q12.4512-88.356 16.9622-92.914Q21.4732-97.472 27.6082-97.472L121.456-97.472Q127.819-97.472 132.297-92.914Q136.775-88.356 136.775-82.154L136.775-61.997L121.456-61.997L121.456-82.154Q121.456-82.154 121.456-82.154Q121.456-82.154 121.456-82.154L27.6082-82.154Q27.6082-82.154 27.6082-82.154Q27.6082-82.154 27.6082-82.154L27.6082 11.694Q27.6082 11.694 27.6082 11.694Q27.6082 11.694 27.6082 11.694L121.456 11.694Q121.456 11.694 121.456 11.694Q121.456 11.694 121.456 11.694L121.456-8.301L136.775-8.301L136.775 11.694Q136.775 17.991 132.297 22.421Q127.819 26.851 121.456 26.851L27.6082 26.851ZM84.2072-5.076Q78.8862-5.076 75.4192-8.394Q71.9522-11.711 71.9522-16.888L71.9522-53.29Q71.9522-58.45 75.4192-61.836Q78.8862-65.222 84.2072-65.222L131.453-65.222Q136.775-65.222 140.161-61.836Q143.547-58.45 143.547-53.29L143.547-16.888Q143.547-11.711 140.161-8.394Q136.775-5.076 131.453-5.076L84.2072-5.076Z"/>
  </g>
  <g id="Semibold-L" transform="matrix(1 0 0 1 1967.05 1556)">
   <path class="monochrome-0 multicolor-0:tintColor hierarchical-0:primary SFSymbolsPreviewWireframe" d="M100.515-24.91Q104.546-24.91 107.691-28.054Q110.835-31.199 110.835-35.311Q110.835-39.422 107.691-42.486Q104.546-45.55 100.515-45.55Q96.4842-45.55 93.3392-42.486Q90.1952-39.422 90.1952-35.311Q90.1952-31.199 93.3392-28.054Q96.4842-24.91 100.515-24.91ZM25.2252 25.099Q20.1452 25.099 16.2982 21.332Q12.4512 17.566 12.4512 12.325L12.4512-82.785Q12.4512-87.903 16.2982-91.776Q20.1452-95.65 25.2252-95.65L120.335-95.65Q125.614-95.65 129.407-91.776Q133.2-87.903 133.2-82.785L133.2-61.997L120.335-61.997L120.335-82.785Q120.335-82.785 120.335-82.785Q120.335-82.785 120.335-82.785L25.2252-82.785Q25.2252-82.785 25.2252-82.785Q25.2252-82.785 25.2252-82.785L25.2252 12.325Q25.2252 12.325 25.2252 12.325Q25.2252 12.325 25.2252 12.325L120.335 12.325Q120.335 12.325 120.335 12.325Q120.335 12.325 120.335 12.325L120.335-8.301L133.2-8.301L133.2 12.325Q133.2 17.566 129.407 21.332Q125.614 25.099 120.335 25.099L25.2252 25.099ZM82.3152-5.076Q76.9232-5.076 73.5622-8.353Q70.2002-11.631 70.2002-16.87L70.2002-53.36Q70.2002-58.66 73.5622-61.941Q76.9232-65.222 82.3152-65.222L127.949-65.222Q133.34-65.222 136.656-61.941Q139.972-58.66 139.972-53.36L139.972-16.87Q139.972-11.631 136.656-8.353Q133.34-5.076 127.949-5.076L82.3152-5.076Z"/>
  </g>
  <g id="Medium-L" transform="matrix(1 0 0 1 1671.68 1556)">
   <path class="monochrome-0 multicolor-0:tintColor hierarchical-0:primary SFSymbolsPreviewWireframe" d="M99.2002-24.91Q103.231-24.91 106.376-28.054Q109.52-31.199 109.52-35.311Q109.52-39.422 106.376-42.486Q103.231-45.55 99.2002-45.55Q95.1692-45.55 92.0242-42.486Q88.8802-39.422 88.8802-35.311Q88.8802-31.199 92.0242-28.054Q95.1692-24.91 99.2002-24.91ZM23.4372 23.784Q19.1482 23.784 15.7992 20.516Q12.4512 17.248 12.4512 12.798L12.4512-83.258Q12.4512-87.563 15.7992-90.923Q19.1482-94.283 23.4372-94.283L119.493-94.283Q123.959-94.283 127.238-90.923Q130.518-87.563 130.518-83.258L130.518-61.997L119.493-61.997L119.493-83.258Q119.493-83.258 119.493-83.258Q119.493-83.258 119.493-83.258L23.4372-83.258Q23.4372-83.258 23.4372-83.258Q23.4372-83.258 23.4372-83.258L23.4372 12.798Q23.4372 12.798 23.4372 12.798Q23.4372 12.798 23.4372 12.798L119.493 12.798Q119.493 12.798 119.493 12.798Q119.493 12.798 119.493 12.798L119.493-8.301L130.518-8.301L130.518 12.798Q130.518 17.248 127.238 20.516Q123.959 23.784 119.493 23.784L23.4372 23.784ZM80.8952-5.076Q75.4512-5.076 72.1682-8.323Q68.8852-11.57 68.8852-16.857L68.8852-53.413Q68.8852-58.818 72.1682-62.02Q75.4512-65.222 80.8952-65.222L125.319-65.222Q130.763-65.222 134.026-62.02Q137.29-58.818 137.29-53.413L137.29-16.857Q137.29-11.57 134.026-8.323Q130.763-5.076 125.319-5.076L80.8952-5.076Z"/>
  </g>
  <g id="Regular-L" transform="matrix(1 0 0 1 1375.96 1556)">
   <path class="monochrome-0 multicolor-0:tintColor hierarchical-0:primary SFSymbolsPreviewWireframe" d="M98.2362-24.91Q102.267-24.91 105.412-28.054Q108.556-31.199 108.556-35.311Q108.556-39.422 105.412-42.486Q102.267-45.55 98.2362-45.55Q94.2052-45.55 91.0602-42.486Q87.9162-39.422 87.9162-35.311Q87.9162-31.199 91.0602-28.054Q94.2052-24.91 98.2362-24.91ZM22.1262 22.82Q18.4172 22.82 15.4342 19.918Q12.4512 17.015 12.4512 13.145L12.4512-83.605Q12.4512-87.314 15.4342-90.297Q18.4172-93.28 22.1262-93.28L118.876-93.28Q122.746-93.28 125.649-90.297Q128.551-87.314 128.551-83.605L128.551-61.997L118.876-61.997L118.876-83.605Q118.876-83.605 118.876-83.605Q118.876-83.605 118.876-83.605L22.1262-83.605Q22.1262-83.605 22.1262-83.605Q22.1262-83.605 22.1262-83.605L22.1262 13.145Q22.1262 13.145 22.1262 13.145Q22.1262 13.145 22.1262 13.145L118.876 13.145Q118.876 13.145 118.876 13.145Q118.876 13.145 118.876 13.145L118.876-8.301L128.551-8.301L128.551 13.145Q128.551 17.015 125.649 19.918Q122.746 22.82 118.876 22.82L22.1262 22.82ZM79.8532-5.076Q74.3712-5.076 71.1462-8.301Q67.9212-11.526 67.9212-16.847L67.9212-53.451Q67.9212-58.934 71.1462-62.078Q74.3712-65.222 79.8532-65.222L123.391-65.222Q128.874-65.222 132.099-62.078Q135.323-58.934 135.323-53.451L135.323-16.847Q135.323-11.526 132.099-8.301Q128.874-5.076 123.391-5.076L79.8532-5.076Z"/>
  </g>
  <g id="Light-L" transform="matrix(1 0 0 1 1082.5 1556)">
   <path class="monochrome-0 multicolor-0:tintColor hierarchical-0:primary SFSymbolsPreviewWireframe" d="M94.4842-25.096Q98.5462-25.096 101.597-28.147Q104.649-31.199 104.649-35.249Q104.649-39.422 101.597-42.393Q98.5462-45.364 94.4842-45.364Q90.4222-45.364 87.3702-42.393Q84.3192-39.422 84.3192-35.249Q84.3192-31.199 87.3702-28.147Q90.4222-25.096 94.4842-25.096ZM21.7542 19.595Q18.0452 19.595 15.2482 16.84Q12.4512 14.086 12.4512 10.292L12.4512-80.752Q12.4512-84.461 15.2482-87.258Q18.0452-90.055 21.7542-90.055L112.798-90.055Q116.592-90.055 119.346-87.258Q122.101-84.461 122.101-80.752L122.101-59.206L114.783-59.206L114.783-80.752Q114.783-81.62 114.224-82.178Q113.666-82.737 112.798-82.737L21.7542-82.737Q20.8862-82.737 20.3282-82.178Q19.7692-81.62 19.7692-80.752L19.7692 10.292Q19.7692 11.16 20.3282 11.718Q20.8862 12.277 21.7542 12.277L112.798 12.277Q113.666 12.277 114.224 11.718Q114.783 11.16 114.783 10.292L114.783-11.154L122.101-11.154L122.101 10.292Q122.101 14.086 119.346 16.84Q116.592 19.595 112.798 19.595L21.7542 19.595ZM77.8072-7.743Q72.8832-7.743 69.8752-10.72Q66.8672-13.697 66.8672-18.584L66.8672-51.777Q66.8672-56.763 69.8752-59.69Q72.8832-62.618 77.8072-62.618L117.809-62.618Q122.795-62.618 125.803-59.69Q128.811-56.763 128.811-51.777L128.811-18.584Q128.811-13.697 125.803-10.72Q122.795-7.743 117.809-7.743L77.8072-7.743Z"/>
  </g>
  <g id="Thin-L" transform="matrix(1 0 0 1 789.047 1556)">
   <path class="monochrome-0 multicolor-0:tintColor hierarchical-0:primary SFSymbolsPreviewWireframe" d="M90.7322-25.282Q94.8252-25.282 97.7832-28.24Q100.742-31.199 100.742-35.187Q100.742-39.422 97.7832-42.3Q94.8252-45.178 90.7322-45.178Q86.6382-45.178 83.6802-42.3Q80.7222-39.422 80.7222-35.187Q80.7222-31.199 83.6802-28.24Q86.6382-25.282 90.7322-25.282ZM21.3822 16.37Q17.6732 16.37 15.0622 13.764Q12.4512 11.157 12.4512 7.439L12.4512-77.899Q12.4512-81.608 15.0622-84.219Q17.6732-86.83 21.3822-86.83L106.72-86.83Q110.438-86.83 113.045-84.219Q115.651-81.608 115.651-77.899L115.651-56.416L110.689-56.416L110.689-77.899Q110.689-79.636 109.573-80.752Q108.457-81.868 106.72-81.868L21.3822-81.868Q19.6452-81.868 18.5292-80.752Q17.4132-79.636 17.4132-77.899L17.4132 7.439Q17.4132 9.176 18.5292 10.292Q19.6452 11.408 21.3822 11.408L106.72 11.408Q108.457 11.408 109.573 10.292Q110.689 9.176 110.689 7.439L110.689-14.007L115.651-14.007L115.651 7.439Q115.651 11.157 113.045 13.764Q110.438 16.37 106.72 16.37L21.3822 16.37ZM75.7602-10.41Q71.3942-10.41 68.6032-13.139Q65.8122-15.868 65.8122-20.321L65.8122-50.102Q65.8122-54.592 68.6032-57.303Q71.3942-60.013 75.7602-60.013L112.228-60.013Q116.718-60.013 119.509-57.303Q122.299-54.592 122.299-50.102L122.299-20.321Q122.299-15.868 119.509-13.139Q116.718-10.41 112.228-10.41L75.7602-10.41Z"/>
  </g>
  <g id="Ultralight-L" transform="matrix(1 0 0 1 494.289 1556)">
   <path class="monochrome-0 multicolor-0:tintColor hierarchical-0:primary SFSymbolsPreviewWireframe" d="M88.4802-25.394Q92.5922-25.394 95.4952-28.296Q98.3972-31.199 98.3972-35.149Q98.3972-39.422 95.4952-42.244Q92.5922-45.066 88.4802-45.066Q84.3692-45.066 81.4662-42.244Q78.5632-39.422 78.5632-35.149Q78.5632-31.199 81.4662-28.296Q84.3692-25.394 88.4802-25.394ZM21.1592 14.435Q17.4502 14.435 14.9502 11.917Q12.4512 9.4 12.4512 5.728L12.4512-76.187Q12.4512-79.896 14.9502-82.396Q17.4502-84.895 21.1592-84.895L103.074-84.895Q106.746-84.895 109.264-82.396Q111.781-79.896 111.781-76.187L111.781-54.741L108.233-54.741L108.233-76.187Q108.233-78.445 106.782-79.896Q105.331-81.347 103.074-81.347L21.1592-81.347Q18.9012-81.347 17.4502-79.896Q15.9992-78.445 15.9992-76.187L15.9992 5.728Q15.9992 7.985 17.4502 9.436Q18.9012 10.888 21.1592 10.888L103.074 10.888Q105.331 10.888 106.782 9.436Q108.233 7.985 108.233 5.728L108.233-15.719L111.781-15.719L111.781 5.728Q111.781 9.4 109.264 11.917Q106.746 14.435 103.074 14.435L21.1592 14.435ZM74.5322-12.01Q70.5012-12.01 67.8402-14.59Q65.1802-17.17 65.1802-21.362L65.1802-49.097Q65.1802-53.29 67.8402-55.87Q70.5012-58.45 74.5322-58.45L108.879-58.45Q113.071-58.45 115.732-55.87Q118.392-53.29 118.392-49.097L118.392-21.362Q118.392-17.17 115.732-14.59Q113.071-12.01 108.879-12.01L74.5322-12.01Z"/>
  </g>
  <g id="Bold-M" transform="matrix(1 0 0 1 2275.78 1126)">
   <path class="monochrome-0 multicolor-0:tintColor hierarchical-0:primary SFSymbolsPreviewWireframe" d="M81.7012-27.73Q84.9512-27.73 87.0762-29.855Q89.2012-31.98 89.2012-35.23Q89.2012-38.48 87.0762-40.605Q84.9512-42.73 81.7012-42.73Q78.4512-42.73 76.3262-40.605Q74.2012-38.48 74.2012-35.23Q74.2012-31.98 76.3262-29.855Q78.4512-27.73 81.7012-27.73ZM28.2012 14.02Q21.5762 14.02 17.0132 9.458Q12.4512 4.895 12.4512-1.73L12.4512-68.73Q12.4512-75.355 17.0132-79.917Q21.5762-84.48 28.2012-84.48L95.2012-84.48Q101.826-84.48 106.389-79.917Q110.951-75.355 110.951-68.73L110.951-57.73L95.2012-57.73L95.2012-68.73Q95.2012-68.73 95.2012-68.73Q95.2012-68.73 95.2012-68.73L28.2012-68.73Q28.2012-68.73 28.2012-68.73Q28.2012-68.73 28.2012-68.73L28.2012-1.73Q28.2012-1.73 28.2012-1.73Q28.2012-1.73 28.2012-1.73L95.2012-1.73Q95.2012-1.73 95.2012-1.73Q95.2012-1.73 95.2012-1.73L95.2012-12.73L110.951-12.73L110.951-1.73Q110.951 4.895 106.389 9.458Q101.826 14.02 95.2012 14.02L28.2012 14.02ZM66.9512-10.23Q62.9512-10.23 59.8262-13.23Q56.7012-16.23 56.7012-20.23L56.7012-49.98Q56.7012-53.98 59.8262-57.105Q62.9512-60.23 66.9512-60.23L105.826-60.23Q109.826-60.23 112.889-57.105Q115.951-53.98 115.951-49.98L115.951-20.23Q115.951-16.23 112.889-13.23Q109.826-10.23 105.826-10.23L66.9512-10.23Z"/>
  </g>
  <g id="Semibold-M" transform="matrix(1 0 0 1 1980.91 1126)">
   <path class="monochrome-0 multicolor-0:tintColor hierarchical-0:primary SFSymbolsPreviewWireframe" d="M79.8532-27.73Q83.1032-27.73 85.2282-29.855Q87.3532-31.98 87.3532-35.23Q87.3532-38.48 85.2282-40.605Q83.1032-42.73 79.8532-42.73Q76.6032-42.73 74.4782-40.605Q72.3532-38.48 72.3532-35.23Q72.3532-31.98 74.4782-29.855Q76.6032-27.73 79.8532-27.73ZM25.7012 12.172Q20.1632 12.172 16.3072 8.316Q12.4512 4.46 12.4512-1.078L12.4512-69.382Q12.4512-74.92 16.3072-78.776Q20.1632-82.632 25.7012-82.632L94.0052-82.632Q99.5432-82.632 103.399-78.776Q107.255-74.92 107.255-69.382L107.255-57.73L94.0052-57.73L94.0052-69.382Q94.0052-69.382 94.0052-69.382Q94.0052-69.382 94.0052-69.382L25.7012-69.382Q25.7012-69.382 25.7012-69.382Q25.7012-69.382 25.7012-69.382L25.7012-1.078Q25.7012-1.078 25.7012-1.078Q25.7012-1.078 25.7012-1.078L94.0052-1.078Q94.0052-1.078 94.0052-1.078Q94.0052-1.078 94.0052-1.078L94.0052-12.73L107.255-12.73L107.255-1.078Q107.255 4.46 103.399 8.316Q99.5432 12.172 94.0052 12.172L25.7012 12.172ZM64.9942-10.23Q60.9402-10.23 57.8972-13.203Q54.8532-16.176 54.8532-20.23L54.8532-50.089Q54.8532-54.143 57.8972-57.186Q60.9402-60.23 64.9942-60.23L102.185-60.23Q106.239-60.23 109.247-57.186Q112.255-54.143 112.255-50.089L112.255-20.23Q112.255-16.176 109.247-13.203Q106.239-10.23 102.185-10.23L64.9942-10.23Z"/>
  </g>
  <g id="Medium-M" transform="matrix(1 0 0 1 1685.59 1126)">
   <path class="monochrome-0 multicolor-0:tintColor hierarchical-0:primary SFSymbolsPreviewWireframe" d="M78.4672-27.73Q81.7172-27.73 83.8422-29.855Q85.9672-31.98 85.9672-35.23Q85.9672-38.48 83.8422-40.605Q81.7172-42.73 78.4672-42.73Q75.2172-42.73 73.0922-40.605Q70.9672-38.48 70.9672-35.23Q70.9672-31.98 73.0922-29.855Q75.2172-27.73 78.4672-27.73ZM23.8262 10.786Q19.1032 10.786 15.7772 7.46Q12.4512 4.134 12.4512-0.589L12.4512-69.871Q12.4512-74.594 15.7772-77.92Q19.1032-81.246 23.8262-81.246L93.1082-81.246Q97.8312-81.246 101.157-77.92Q104.483-74.594 104.483-69.871L104.483-57.73L93.1082-57.73L93.1082-69.871Q93.1082-69.871 93.1082-69.871Q93.1082-69.871 93.1082-69.871L23.8262-69.871Q23.8262-69.871 23.8262-69.871Q23.8262-69.871 23.8262-69.871L23.8262-0.589Q23.8262-0.589 23.8262-0.589Q23.8262-0.589 23.8262-0.589L93.1082-0.589Q93.1082-0.589 93.1082-0.589Q93.1082-0.589 93.1082-0.589L93.1082-12.73L104.483-12.73L104.483-0.589Q104.483 4.134 101.157 7.46Q97.8312 10.786 93.1082 10.786L23.8262 10.786ZM63.5272-10.23Q59.4322-10.23 56.4492-13.182Q53.4672-16.135 53.4672-20.23L53.4672-50.17Q53.4672-54.265 56.4492-57.248Q59.4322-60.23 63.5272-60.23L99.4532-60.23Q103.549-60.23 106.516-57.248Q109.483-54.265 109.483-50.17L109.483-20.23Q109.483-16.135 106.516-13.182Q103.549-10.23 99.4532-10.23L63.5272-10.23Z"/>
  </g>
  <g id="Regular-M" transform="matrix(1 0 0 1 1389.89 1126)">
   <path class="monochrome-0 multicolor-0:tintColor hierarchical-0:primary SFSymbolsPreviewWireframe" d="M77.4512-27.73Q80.7012-27.73 82.8262-29.855Q84.9512-31.98 84.9512-35.23Q84.9512-38.48 82.8262-40.605Q80.7012-42.73 77.4512-42.73Q74.2012-42.73 72.0762-40.605Q69.9512-38.48 69.9512-35.23Q69.9512-31.98 72.0762-29.855Q74.2012-27.73 77.4512-27.73ZM22.4512 9.77Q18.3262 9.77 15.3892 6.833Q12.4512 3.895 12.4512-0.23L12.4512-70.23Q12.4512-74.355 15.3892-77.292Q18.3262-80.23 22.4512-80.23L92.4512-80.23Q96.5762-80.23 99.5132-77.292Q102.451-74.355 102.451-70.23L102.451-57.73L92.4512-57.73L92.4512-70.23Q92.4512-70.23 92.4512-70.23Q92.4512-70.23 92.4512-70.23L22.4512-70.23Q22.4512-70.23 22.4512-70.23Q22.4512-70.23 22.4512-70.23L22.4512-0.23Q22.4512-0.23 22.4512-0.23Q22.4512-0.23 22.4512-0.23L92.4512-0.23Q92.4512-0.23 92.4512-0.23Q92.4512-0.23 92.4512-0.23L92.4512-12.73L102.451-12.73L102.451-0.23Q102.451 3.895 99.5132 6.833Q96.5762 9.77 92.4512 9.77L22.4512 9.77ZM62.4512-10.23Q58.3262-10.23 55.3892-13.167Q52.4512-16.105 52.4512-20.23L52.4512-50.23Q52.4512-54.355 55.3892-57.292Q58.3262-60.23 62.4512-60.23L97.4512-60.23Q101.576-60.23 104.513-57.292Q107.451-54.355 107.451-50.23L107.451-20.23Q107.451-16.105 104.513-13.167Q101.576-10.23 97.4512-10.23L62.4512-10.23Z"/>
  </g>
  <g id="Light-M" transform="matrix(1 0 0 1 1095.68 1126)">
   <path class="monochrome-0 multicolor-0:tintColor hierarchical-0:primary SFSymbolsPreviewWireframe" d="M74.9512-27.73Q78.2012-27.73 80.3262-29.855Q82.4512-31.98 82.4512-35.23Q82.4512-38.48 80.3262-40.605Q78.2012-42.73 74.9512-42.73Q71.7012-42.73 69.5762-40.605Q67.4512-38.48 67.4512-35.23Q67.4512-31.98 69.5762-29.855Q71.7012-27.73 74.9512-27.73ZM21.4902 7.27Q17.7012 7.27 15.0762 4.645Q12.4512 2.02 12.4512-1.769L12.4512-68.691Q12.4512-72.48 15.0762-75.105Q17.7012-77.73 21.4902-77.73L88.4122-77.73Q92.2012-77.73 94.8262-75.105Q97.4512-72.48 97.4512-68.691L97.4512-55.086L89.9512-55.086L89.9512-68.691Q89.9512-69.364 89.5182-69.797Q89.0862-70.23 88.4122-70.23L21.4902-70.23Q20.8172-70.23 20.3842-69.797Q19.9512-69.364 19.9512-68.691L19.9512-1.769Q19.9512-1.095 20.3842-0.663Q20.8172-0.23 21.4902-0.23L88.4122-0.23Q89.0862-0.23 89.5182-0.663Q89.9512-1.095 89.9512-1.769L89.9512-15.374L97.4512-15.374L97.4512-1.769Q97.4512 2.02 94.8262 4.645Q92.2012 7.27 88.4122 7.27L21.4902 7.27ZM61.4902-12.73Q57.7012-12.73 55.0762-15.355Q52.4512-17.98 52.4512-21.769L52.4512-48.691Q52.4512-52.48 55.0762-55.105Q57.7012-57.73 61.4902-57.73L93.4122-57.73Q97.2012-57.73 99.8262-55.105Q102.451-52.48 102.451-48.691L102.451-21.769Q102.451-17.98 99.8262-15.355Q97.2012-12.73 93.4122-12.73L61.4902-12.73Z"/>
  </g>
  <g id="Thin-M" transform="matrix(1 0 0 1 801.471 1126)">
   <path class="monochrome-0 multicolor-0:tintColor hierarchical-0:primary SFSymbolsPreviewWireframe" d="M72.4512-27.73Q75.7012-27.73 77.8262-29.855Q79.9512-31.98 79.9512-35.23Q79.9512-38.48 77.8262-40.605Q75.7012-42.73 72.4512-42.73Q69.2012-42.73 67.0762-40.605Q64.9512-38.48 64.9512-35.23Q64.9512-31.98 67.0762-29.855Q69.2012-27.73 72.4512-27.73ZM20.5282 4.77Q17.0762 4.77 14.7632 2.458Q12.4512 0.145 12.4512-3.307L12.4512-67.153Q12.4512-70.605 14.7632-72.917Q17.0762-75.23 20.5282-75.23L84.3742-75.23Q87.8262-75.23 90.1392-72.917Q92.4512-70.605 92.4512-67.153L92.4512-52.442L87.4512-52.442L87.4512-67.153Q87.4512-68.499 86.5862-69.365Q85.7202-70.23 84.3742-70.23L20.5282-70.23Q19.1822-70.23 18.3162-69.365Q17.4512-68.499 17.4512-67.153L17.4512-3.307Q17.4512-1.961 18.3162-1.095Q19.1822-0.23 20.5282-0.23L84.3742-0.23Q85.7202-0.23 86.5862-1.095Q87.4512-1.961 87.4512-3.307L87.4512-18.018L92.4512-18.018L92.4512-3.307Q92.4512 0.145 90.1392 2.458Q87.8262 4.77 84.3742 4.77L20.5282 4.77ZM60.5282-15.23Q57.0762-15.23 54.7632-17.542Q52.4512-19.855 52.4512-23.307L52.4512-47.153Q52.4512-50.605 54.7632-52.917Q57.0762-55.23 60.5282-55.23L89.3742-55.23Q92.8262-55.23 95.1392-52.917Q97.4512-50.605 97.4512-47.153L97.4512-23.307Q97.4512-19.855 95.1392-17.542Q92.8262-15.23 89.3742-15.23L60.5282-15.23Z"/>
  </g>
  <g id="Ultralight-M" transform="matrix(1 0 0 1 506.26 1126)">
   <path class="monochrome-0 multicolor-0:tintColor hierarchical-0:primary SFSymbolsPreviewWireframe" d="M70.9512-27.73Q74.2012-27.73 76.3262-29.855Q78.4512-31.98 78.4512-35.23Q78.4512-38.48 76.3262-40.605Q74.2012-42.73 70.9512-42.73Q67.7012-42.73 65.5762-40.605Q63.4512-38.48 63.4512-35.23Q63.4512-31.98 65.5762-29.855Q67.7012-27.73 70.9512-27.73ZM19.9512 3.27Q16.7012 3.27 14.5762 1.145Q12.4512-0.98 12.4512-4.23L12.4512-66.23Q12.4512-69.48 14.5762-71.605Q16.7012-73.73 19.9512-73.73L81.9512-73.73Q85.2012-73.73 87.3262-71.605Q89.4512-69.48 89.4512-66.23L89.4512-50.855L85.9512-50.855L85.9512-66.23Q85.9512-67.98 84.8262-69.105Q83.7012-70.23 81.9512-70.23L19.9512-70.23Q18.2012-70.23 17.0762-69.105Q15.9512-67.98 15.9512-66.23L15.9512-4.23Q15.9512-2.48 17.0762-1.355Q18.2012-0.23 19.9512-0.23L81.9512-0.23Q83.7012-0.23 84.8262-1.355Q85.9512-2.48 85.9512-4.23L85.9512-19.605L89.4512-19.605L89.4512-4.23Q89.4512-0.98 87.3262 1.145Q85.2012 3.27 81.9512 3.27L19.9512 3.27ZM59.9512-16.73Q56.7012-16.73 54.5762-18.855Q52.4512-20.98 52.4512-24.23L52.4512-46.23Q52.4512-49.48 54.5762-51.605Q56.7012-53.73 59.9512-53.73L86.9512-53.73Q90.2012-53.73 92.3262-51.605Q94.4512-49.48 94.4512-46.23L94.4512-24.23Q94.4512-20.98 92.3262-18.855Q90.2012-16.73 86.9512-16.73L59.9512-16.73Z"/>
  </g>
  <g id="Bold-S" transform="matrix(1 0 0 1 2286.7 696)">
   <path class="monochrome-0 multicolor-0:tintColor hierarchical-0:primary SFSymbolsPreviewWireframe" d="M66.8922-29.411Q69.4132-29.411 71.0622-31.06Q72.7112-32.708 72.7112-35.23Q72.7112-37.752 71.0622-39.4Q69.4132-41.049 66.8922-41.049Q64.3702-41.049 62.7222-39.4Q61.0732-37.752 61.0732-35.23Q61.0732-32.708 62.7222-31.06Q64.3702-29.411 66.8922-29.411ZM25.2722 3.628Q19.8822 3.628 16.1662-0.087Q12.4512-3.803 12.4512-9.193L12.4512-61.267Q12.4512-66.657 16.1662-70.373Q19.8822-74.088 25.2722-74.088L77.3462-74.088Q82.7362-74.088 86.4522-70.373Q90.1672-66.657 90.1672-61.267L90.1672-53.278L77.3462-53.278L77.3462-61.267Q77.3462-61.267 77.3462-61.267Q77.3462-61.267 77.3462-61.267L25.2722-61.267Q25.2722-61.267 25.2722-61.267Q25.2722-61.267 25.2722-61.267L25.2722-9.193Q25.2722-9.193 25.2722-9.193Q25.2722-9.193 25.2722-9.193L77.3462-9.193Q77.3462-9.193 77.3462-9.193Q77.3462-9.193 77.3462-9.193L77.3462-17.28L90.1672-17.28L90.1672-9.193Q90.1672-3.803 86.4522-0.087Q82.7362 3.628 77.3462 3.628L25.2722 3.628ZM55.1762-15.308Q51.9992-15.308 49.4842-17.704Q46.9702-20.1 46.9702-23.296L46.9702-46.943Q46.9702-50.122 49.4642-52.687Q51.9592-55.251 55.1552-55.251L86.0042-55.251Q89.1812-55.251 91.6472-52.687Q94.1122-50.122 94.1122-46.945L94.1122-23.318Q94.1122-20.14 91.6672-17.724Q89.2222-15.308 86.0252-15.308L55.1762-15.308Z"/>
  </g>
  <g id="Semibold-S" transform="matrix(1 0 0 1 1991.44 696)">
   <path class="monochrome-0 multicolor-0:tintColor hierarchical-0:primary SFSymbolsPreviewWireframe" d="M65.4342-29.411Q67.9552-29.411 69.6042-31.06Q71.2532-32.708 71.2532-35.23Q71.2532-37.752 69.6042-39.4Q67.9552-41.049 65.4342-41.049Q62.9122-41.049 61.2642-39.4Q59.6152-37.752 59.6152-35.23Q59.6152-32.708 61.2642-31.06Q62.9122-29.411 65.4342-29.411ZM23.2992 2.17Q18.7672 2.17 15.6092-0.988Q12.4512-4.146 12.4512-8.678L12.4512-61.782Q12.4512-66.314 15.6092-69.472Q18.7672-72.63 23.2992-72.63L76.4032-72.63Q80.9352-72.63 84.0932-69.472Q87.2512-66.314 87.2512-61.782L87.2512-53.278L76.4032-53.278L76.4032-61.782Q76.4032-61.782 76.4032-61.782Q76.4032-61.782 76.4032-61.782L23.2992-61.782Q23.2992-61.782 23.2992-61.782Q23.2992-61.782 23.2992-61.782L23.2992-8.678Q23.2992-8.678 23.2992-8.678Q23.2992-8.678 23.2992-8.678L76.4032-8.678Q76.4032-8.678 76.4032-8.678Q76.4032-8.678 76.4032-8.678L76.4032-17.28L87.2512-17.28L87.2512-8.678Q87.2512-4.146 84.0932-0.988Q80.9352 2.17 76.4032 2.17L23.2992 2.17ZM53.6322-15.308Q50.4132-15.308 47.9622-17.682Q45.5122-20.057 45.5122-23.296L45.5122-47.028Q45.5122-50.251 47.9422-52.751Q50.3722-55.251 53.6122-55.251L83.1312-55.251Q86.3512-55.251 88.7742-52.751Q91.1962-50.251 91.1962-47.031L91.1962-23.318Q91.1962-20.097 88.7942-17.703Q86.3922-15.308 83.1522-15.308L53.6322-15.308Z"/>
  </g>
  <g id="Medium-S" transform="matrix(1 0 0 1 1695.82 696)">
   <path class="monochrome-0 multicolor-0:tintColor hierarchical-0:primary SFSymbolsPreviewWireframe" d="M64.3412-29.411Q66.8622-29.411 68.5112-31.06Q70.1602-32.708 70.1602-35.23Q70.1602-37.752 68.5112-39.4Q66.8622-41.049 64.3412-41.049Q61.8192-41.049 60.1712-39.4Q58.5222-37.752 58.5222-35.23Q58.5222-32.708 60.1712-31.06Q61.8192-29.411 64.3412-29.411ZM21.8212 1.077Q17.9312 1.077 15.1912-1.663Q12.4512-4.403 12.4512-8.293L12.4512-62.167Q12.4512-66.057 15.1912-68.797Q17.9312-71.537 21.8212-71.537L75.6952-71.537Q79.5852-71.537 82.3252-68.797Q85.0652-66.057 85.0652-62.167L85.0652-53.278L75.6952-53.278L75.6952-62.167Q75.6952-62.167 75.6952-62.167Q75.6952-62.167 75.6952-62.167L21.8212-62.167Q21.8212-62.167 21.8212-62.167Q21.8212-62.167 21.8212-62.167L21.8212-8.293Q21.8212-8.293 21.8212-8.293Q21.8212-8.293 21.8212-8.293L75.6952-8.293Q75.6952-8.293 75.6952-8.293Q75.6952-8.293 75.6952-8.293L75.6952-17.28L85.0652-17.28L85.0652-8.293Q85.0652-4.403 82.3252-1.663Q79.5852 1.077 75.6952 1.077L21.8212 1.077ZM52.4752-15.308Q49.2232-15.308 46.8212-17.666Q44.4192-20.025 44.4192-23.296L44.4192-47.093Q44.4192-50.348 46.8002-52.799Q49.1832-55.251 52.4542-55.251L80.9772-55.251Q84.2292-55.251 86.6192-52.799Q89.0102-50.348 89.0102-47.095L89.0102-23.318Q89.0102-20.065 86.6402-17.687Q84.2692-15.308 80.9982-15.308L52.4752-15.308Z"/>
  </g>
  <g id="Regular-S" transform="matrix(1 0 0 1 1399.92 696)">
   <path class="monochrome-0 multicolor-0:tintColor hierarchical-0:primary SFSymbolsPreviewWireframe" d="M63.5392-29.411Q66.0602-29.411 67.7092-31.06Q69.3582-32.708 69.3582-35.23Q69.3582-37.752 67.7092-39.4Q66.0602-41.049 63.5392-41.049Q61.0172-41.049 59.3692-39.4Q57.7202-37.752 57.7202-35.23Q57.7202-32.708 59.3692-31.06Q61.0172-29.411 63.5392-29.411ZM20.7362 0.275Q17.3182 0.275 14.8852-2.159Q12.4512-4.592 12.4512-8.009L12.4512-62.45Q12.4512-65.868 14.8852-68.301Q17.3182-70.735 20.7362-70.735L75.1772-70.735Q78.5942-70.735 81.0272-68.301Q83.4612-65.868 83.4612-62.45L83.4612-53.278L75.1772-53.278L75.1772-62.45Q75.1772-62.45 75.1772-62.45Q75.1772-62.45 75.1772-62.45L20.7362-62.45Q20.7362-62.45 20.7362-62.45Q20.7362-62.45 20.7362-62.45L20.7362-8.009Q20.7362-8.009 20.7362-8.009Q20.7362-8.009 20.7362-8.009L75.1772-8.009Q75.1772-8.009 75.1772-8.009Q75.1772-8.009 75.1772-8.009L75.1772-17.28L83.4612-17.28L83.4612-8.009Q83.4612-4.592 81.0272-2.159Q78.5942 0.275 75.1772 0.275L20.7362 0.275ZM51.6262-15.308Q48.3512-15.308 45.9832-17.654Q43.6172-20.001 43.6172-23.296L43.6172-47.14Q43.6172-50.418 45.9632-52.835Q48.3102-55.251 51.6052-55.251L79.3972-55.251Q82.6722-55.251 85.0392-52.835Q87.4062-50.418 87.4062-47.142L87.4062-23.318Q87.4062-20.042 85.0592-17.675Q82.7132-15.308 79.4172-15.308L51.6262-15.308Z"/>
  </g>
  <g id="Light-S" transform="matrix(1 0 0 1 1105.18 696)">
   <path class="monochrome-0 multicolor-0:tintColor hierarchical-0:primary SFSymbolsPreviewWireframe" d="M61.5662-29.411Q64.0872-29.411 65.7362-31.06Q67.3852-32.708 67.3852-35.23Q67.3852-37.752 65.7362-39.4Q64.0872-41.049 61.5662-41.049Q59.0442-41.049 57.3962-39.4Q55.7472-37.752 55.7472-35.23Q55.7472-32.708 57.3962-31.06Q59.0442-29.411 61.5662-29.411ZM19.9762-1.698Q16.8252-1.698 14.6382-3.885Q12.4512-6.072 12.4512-9.223L12.4512-61.237Q12.4512-64.388 14.6382-66.575Q16.8252-68.762 19.9762-68.762L71.9902-68.762Q75.1412-68.762 77.3282-66.575Q79.5152-64.388 79.5152-61.237L79.5152-51.192L73.2042-51.192L73.2042-61.237Q73.2042-61.768 72.8622-62.109Q72.5212-62.45 71.9902-62.45L19.9762-62.45Q19.4452-62.45 19.1042-62.109Q18.7632-61.768 18.7632-61.237L18.7632-9.223Q18.7632-8.692 19.1042-8.351Q19.4452-8.009 19.9762-8.009L71.9902-8.009Q72.5212-8.009 72.8622-8.351Q73.2042-8.692 73.2042-9.223L73.2042-19.367L79.5152-19.367L79.5152-9.223Q79.5152-6.072 77.3282-3.885Q75.1412-1.698 71.9902-1.698L19.9762-1.698ZM50.8672-17.28Q47.8572-17.28 45.7372-19.38Q43.6162-21.481 43.6162-24.51L43.6162-45.926Q43.6162-48.939 45.7162-51.109Q47.8162-53.278 50.8462-53.278L76.2102-53.278Q79.2202-53.278 81.3402-51.109Q83.4602-48.939 83.4602-45.928L83.4602-24.532Q83.4602-21.521 81.3602-19.401Q79.2602-17.28 76.2302-17.28L50.8672-17.28Z"/>
  </g>
  <g id="Thin-S" transform="matrix(1 0 0 1 810.439 696)">
   <path class="monochrome-0 multicolor-0:tintColor hierarchical-0:primary SFSymbolsPreviewWireframe" d="M59.5942-29.411Q62.1152-29.411 63.7642-31.06Q65.4132-32.708 65.4132-35.23Q65.4132-37.752 63.7642-39.4Q62.1152-41.049 59.5942-41.049Q57.0722-41.049 55.4242-39.4Q53.7752-37.752 53.7752-35.23Q53.7752-32.708 55.4242-31.06Q57.0722-29.411 59.5942-29.411ZM19.2182-3.67Q16.3322-3.67 14.3912-5.61Q12.4512-7.551 12.4512-10.437L12.4512-60.023Q12.4512-62.909 14.3912-64.85Q16.3322-66.79 19.2182-66.79L68.8042-66.79Q71.6902-66.79 73.6312-64.85Q75.5712-62.909 75.5712-60.023L75.5712-49.106L71.2322-49.106L71.2322-60.023Q71.2322-61.085 70.5492-61.768Q69.8662-62.45 68.8042-62.45L19.2182-62.45Q18.1562-62.45 17.4732-61.768Q16.7912-61.085 16.7912-60.023L16.7912-10.437Q16.7912-9.375 17.4732-8.692Q18.1562-8.009 19.2182-8.009L68.8042-8.009Q69.8662-8.009 70.5492-8.692Q71.2322-9.375 71.2322-10.437L71.2322-21.453L75.5712-21.453L75.5712-10.437Q75.5712-7.551 73.6312-5.61Q71.6902-3.67 68.8042-3.67L19.2182-3.67ZM50.1092-19.253Q47.3642-19.253 45.4902-21.106Q43.6172-22.96 43.6172-25.724L43.6172-44.712Q43.6172-47.459 45.4702-49.383Q47.3242-51.306 50.0882-51.306L73.0242-51.306Q75.7682-51.306 77.6422-49.383Q79.5162-47.459 79.5162-44.715L79.5162-25.745Q79.5162-23 77.6622-21.127Q75.8092-19.253 73.0452-19.253L50.1092-19.253Z"/>
  </g>
  <g id="Ultralight-S" transform="matrix(1 0 0 1 514.91 696)">
   <path class="monochrome-0 multicolor-0:tintColor hierarchical-0:primary SFSymbolsPreviewWireframe" d="M58.4112-29.411Q60.9322-29.411 62.5812-31.06Q64.2302-32.708 64.2302-35.23Q64.2302-37.752 62.5812-39.4Q60.9322-41.049 58.4112-41.049Q55.8892-41.049 54.2412-39.4Q52.5922-37.752 52.5922-35.23Q52.5922-32.708 54.2412-31.06Q55.8892-29.411 58.4112-29.411ZM18.7642-4.853Q16.0372-4.853 14.2442-6.646Q12.4512-8.439 12.4512-11.165L12.4512-59.294Q12.4512-62.021 14.2442-63.814Q16.0372-65.606 18.7642-65.606L66.8922-65.606Q69.6192-65.606 71.4122-63.814Q73.2042-62.021 73.2042-59.294L73.2042-47.854L70.0492-47.854L70.0492-59.294Q70.0492-60.675 69.1612-61.563Q68.2732-62.45 66.8922-62.45L18.7642-62.45Q17.3832-62.45 16.4952-61.563Q15.6082-60.675 15.6082-59.294L15.6082-11.165Q15.6082-9.785 16.4952-8.897Q17.3832-8.009 18.7642-8.009L66.8922-8.009Q68.2732-8.009 69.1612-8.897Q70.0492-9.785 70.0492-11.165L70.0492-22.705L73.2042-22.705L73.2042-11.165Q73.2042-8.439 71.4122-6.646Q69.6192-4.853 66.8922-4.853L18.7642-4.853ZM49.6542-20.436Q47.0692-20.436 45.3432-22.142Q43.6172-23.847 43.6172-26.452L43.6172-43.984Q43.6172-46.572 45.3232-48.347Q47.0282-50.122 49.6332-50.122L71.1132-50.122Q73.6982-50.122 75.4242-48.347Q77.1502-46.572 77.1502-43.986L77.1502-26.474Q77.1502-23.888 75.4442-22.162Q73.7382-20.436 71.1332-20.436L49.6542-20.436Z"/>
  </g>
 </g>
</svg>
